<?xml version="1.0" encoding="utf-8"?>
<!-- Generator: Adobe Illustrator 19.0.0, SVG Export Plug-In . SVG Version: 6.00 Build 0)  -->
<svg version="1.1" id="Capa_1" xmlns="http://www.w3.org/2000/svg" xmlns:xlink="http://www.w3.org/1999/xlink" x="0px" y="0px"
	 width="512px" height="512px" viewBox="156 -156 512 512" style="enable-background:new 156 -156 512 512;" xml:space="preserve">
<style type="text/css">
	.st0{fill:#FFFFFF;}
</style>
<g>
	
	<image style="overflow:visible;opacity:0.4;" width="528" height="528" xlink:href="45E283B87029903.png"  transform="matrix(1 0 0 1 148 -164)">
	</image>
	<g>
		<g>
			<path class="st0" d="M453.3,100L637-83.7c11.4-11.4,11.4-29.9,0-41.3c-11.4-11.4-29.9-11.4-41.3,0L412,58.7L228.3-125
				c-11.4-11.4-29.9-11.4-41.3,0c-11.4,11.4-11.4,29.9,0,41.3L370.7,100L187,283.7c-11.4,11.4-11.4,29.9,0,41.3
				c5.7,5.7,13.2,8.6,20.7,8.6s14.9-2.9,20.7-8.6L412,141.3L595.7,325c5.7,5.7,13.2,8.6,20.7,8.6c7.5,0,14.9-2.9,20.7-8.6
				c11.4-11.4,11.4-29.9,0-41.3L453.3,100z"/>
		</g>
	</g>
</g>
</svg>
