<?xml version="1.0" encoding="utf-8"?>
<!-- Generator: Adobe Illustrator 19.0.0, SVG Export Plug-In . SVG Version: 6.00 Build 0)  -->
<svg version="1.1" id="Layer_1" xmlns="http://www.w3.org/2000/svg" xmlns:xlink="http://www.w3.org/1999/xlink" x="0px" y="0px"
	 width="512px" height="512px" viewBox="156 -156 512 512" style="enable-background:new 156 -156 512 512;" xml:space="preserve">
<style type="text/css">
	.st0{fill:#FFFFFF;}
	.st1{fill:#385C8E;}
</style>
<circle class="st0" cx="412" cy="100" r="256"/>
<path class="st1" d="M332.1,111h37v152.4c0,3,2.4,5.4,5.4,5.4h62.8c3,0,5.4-2.4,5.4-5.4V111.7h42.6c2.8,0,5.1-2.1,5.4-4.8l6.5-56.1
	c0.2-1.5-0.3-3.1-1.3-4.2c-1-1.2-2.5-1.8-4.1-1.8h-49V9.5c0-10.6,5.7-16,17-16c1.6,0,32.1,0,32.1,0c3,0,5.4-2.4,5.4-5.4v-51.5
	c0-3-2.4-5.4-5.4-5.4h-44.2c-0.3,0-1,0-2,0c-7.7,0-34.3,1.5-55.4,20.9C367-26.6,370.2-0.9,371,3.6v41.1h-38.9c-3,0-5.4,2.4-5.4,5.4
	v55.4C326.7,108.6,329.1,111,332.1,111z"/>
</svg>
