<?xml version="1.0" encoding="utf-8"?>
<!-- Generator: Adobe Illustrator 19.0.0, SVG Export Plug-In . SVG Version: 6.00 Build 0)  -->
<svg version="1.1" id="Layer_1" xmlns="http://www.w3.org/2000/svg" xmlns:xlink="http://www.w3.org/1999/xlink" x="0px" y="0px"
	 width="512px" height="512px" viewBox="156 -156 512 512" style="enable-background:new 156 -156 512 512;" xml:space="preserve">
<style type="text/css">
	.st0{fill:#FFFFFF;}
	.st1{fill:#007AAA;}
</style>
<circle class="st0" cx="410.5" cy="100.5" r="254.5"/>
<g transform="translate(0 -1)">
	<path class="st1" d="M301.5-65c20.1,0,37.1,17,37.1,37.1c0,21.2-18,37.6-37.1,37.1c-19.6,0.5-37.1-15.9-37.1-37.1
		C263.8-48.6,280.8-65,301.5-65"/>
	<path class="st1" d="M322.1,237h-42.4c-5.8,0-10.6-4.8-10.6-10.6V41c0-5.8,4.2-10.6,10.1-10.6h42.9c5.8,0,10.6,4.8,10.6,10.6v186
		C332.7,232.2,328,237,322.1,237"/>
	<path class="st1" d="M571.1,95c0-39.2-29.1-69.9-68.3-69.9h-11.1c-21.2,0-41.9,10.1-53,26.5c-3.7,3.7-5.3,5.3-5.3,5.3V35.7
		c0-2.1-3.2-5.3-5.3-5.3h-53c-2.1,0-5.3,2.1-5.3,4.8v197.6c0,2.1,3.2,4.2,5.3,4.2h58.3c2.1,0,5.3-2.1,5.3-4.2V118.3
		c0-19.6,14.8-36,34.4-36.6c10.1,0,19.1,3.7,26,10.6c6.4,6.4,9,15.4,9,25.4v113.9c0,2.1,3.2,5.3,5.3,5.3h53c2.1,0,5.3-3.2,5.3-5.3
		V95H571.1z"/>
</g>
</svg>
