<?xml version="1.0" encoding="utf-8"?>
<!-- Generator: Adobe Illustrator 19.0.0, SVG Export Plug-In . SVG Version: 6.00 Build 0)  -->
<svg version="1.1" id="Capa_1" xmlns="http://www.w3.org/2000/svg" xmlns:xlink="http://www.w3.org/1999/xlink" x="0px" y="0px"
	 width="512px" height="512px" viewBox="156 -156 512 512" style="enable-background:new 156 -156 512 512;" xml:space="preserve">
<style type="text/css">
	.st0{fill:#FFFFFF;}
	.st1{fill:#03A9F4;}
</style>
<circle class="st0" cx="412" cy="101" r="251"/>
<path class="st1" d="M548.6,15.3c-10.2,4.5-21,7.4-32.3,8.8c11.6-6.9,20.5-17.8,24.6-31c-10.8,6.5-22.8,11-35.5,13.6
	C495.2-4.2,480.5-11,464.5-11c-31,0-56,25.2-56,56c0,4.4,0.4,8.7,1.3,12.8c-46.6-2.3-87.8-24.6-115.5-58.6c-4.8,8.4-7.7,18-7.7,28.3
	c0,19.4,10,36.6,24.9,46.6c-9-0.2-17.8-2.8-25.3-6.9c0,0.2,0,0.4,0,0.6c0,27.2,19.4,49.8,44.9,55c-4.6,1.2-9.5,1.8-14.7,1.8
	c-3.6,0-7.2-0.2-10.6-1c7.3,22.2,27.9,38.5,52.3,39c-19.1,14.9-43.3,23.9-69.5,23.9c-4.6,0-9-0.2-13.4-0.8
	c24.8,16,54.2,25.1,85.9,25.1c103.1,0,159.4-85.4,159.4-159.4c0-2.5-0.1-4.9-0.2-7.2C531.7,36.5,541,26.6,548.6,15.3z"/>
</svg>
