<?xml version="1.0" encoding="utf-8"?>
<!-- Generator: Adobe Illustrator 19.0.0, SVG Export Plug-In . SVG Version: 6.00 Build 0)  -->
<svg version="1.1" id="Layer_1" xmlns="http://www.w3.org/2000/svg" xmlns:xlink="http://www.w3.org/1999/xlink" x="0px" y="0px"
	 width="461px" height="461px" viewBox="131 -130 461 461" style="enable-background:new 131 -130 461 461;" xml:space="preserve">
<style type="text/css">
	.st0{fill:#FFFFFF;}
	.st1{fill:#F61C0D;}
</style>
<circle class="st0" cx="359.5" cy="98.5" r="228.5"/>
<path class="st1" d="M435.9,10.4H287.1c-29.2,0-52.9,23.7-52.9,52.9v74.4c0,29.2,23.7,52.9,52.9,52.9h148.9
	c29.2,0,52.9-23.7,52.9-52.9V63.3C488.8,34.1,465.2,10.4,435.9,10.4z M400.2,104.1l-69.6,33.2c-1.9,0.9-4-0.5-4-2.5V66.3
	c0-2.1,2.2-3.4,4.1-2.5l69.6,35.3C402.3,100.2,402.3,103.1,400.2,104.1z"/>
</svg>
