<?xml version="1.0" encoding="utf-8"?>
<!-- Generator: Adobe Illustrator 19.0.0, SVG Export Plug-In . SVG Version: 6.00 Build 0)  -->
<svg version="1.1" id="Layer_1" xmlns="http://www.w3.org/2000/svg" xmlns:xlink="http://www.w3.org/1999/xlink" x="0px" y="0px"
	 width="762.5px" height="479.7px" viewBox="-39 355.8 762.5 479.7" style="enable-background:new -39 355.8 762.5 479.7;"
	 xml:space="preserve">
<style type="text/css">
	
		.st0{clip-path:url(#SVGID_4_);fill:none;stroke:#4C3AAD;stroke-width:2.5;stroke-linecap:round;stroke-linejoin:round;stroke-miterlimit:10;}
	
		.st1{clip-path:url(#SVGID_6_);fill:none;stroke:#4C3AAD;stroke-width:2.5;stroke-linecap:round;stroke-linejoin:round;stroke-miterlimit:10;}
	.st2{fill:#FFFFFF;}
	.st3{fill:#B3ADEA;stroke:#4C3AAD;stroke-width:3;stroke-miterlimit:10;}
	.st4{fill:#AEB7B7;stroke:#4C3AAD;stroke-width:3;stroke-miterlimit:10;}
	.st5{fill:#6459CE;stroke:#4C3AAD;stroke-width:3;stroke-miterlimit:10;}
	.st6{fill:#4C3AAD;stroke:#4C3AAD;stroke-width:3;stroke-miterlimit:10;}
	.st7{fill:#D7D0FF;stroke:#4C3AAD;stroke-width:3;stroke-miterlimit:10;}
	.st8{fill:#FFFFFF;stroke:#4C3AAD;stroke-width:3;stroke-miterlimit:10;}
	.st9{fill:none;stroke:#4C3AAD;stroke-width:3;stroke-miterlimit:10;}
	.st10{fill:#4C3AAD;}
	
		.st11{clip-path:url(#SVGID_8_);fill:none;stroke:#D7D0FF;stroke-width:2.5;stroke-linecap:round;stroke-linejoin:round;stroke-miterlimit:10;}
	
		.st12{clip-path:url(#SVGID_190_);fill:none;stroke:#4C3AAD;stroke-width:2.5;stroke-linecap:round;stroke-linejoin:round;stroke-miterlimit:10;}
	
		.st13{clip-path:url(#SVGID_192_);fill:none;stroke:#4C3AAD;stroke-width:2.5;stroke-linecap:round;stroke-linejoin:round;stroke-miterlimit:10;}
	
		.st14{clip-path:url(#SVGID_194_);fill:none;stroke:#4C3AAD;stroke-width:2.5;stroke-linecap:round;stroke-linejoin:round;stroke-miterlimit:10;}
	
		.st15{clip-path:url(#SVGID_196_);fill:none;stroke:#4C3AAD;stroke-width:2.5;stroke-linecap:round;stroke-linejoin:round;stroke-miterlimit:10;}
	
		.st16{clip-path:url(#SVGID_198_);fill:none;stroke:#4C3AAD;stroke-width:2.5;stroke-linecap:round;stroke-linejoin:round;stroke-miterlimit:10;}
	
		.st17{clip-path:url(#SVGID_200_);fill:none;stroke:#4C3AAD;stroke-width:2.5;stroke-linecap:round;stroke-linejoin:round;stroke-miterlimit:10;}
	
		.st18{clip-path:url(#SVGID_202_);fill:none;stroke:#4C3AAD;stroke-width:2.5;stroke-linecap:round;stroke-linejoin:round;stroke-miterlimit:10;}
	
		.st19{clip-path:url(#SVGID_204_);fill:none;stroke:#4C3AAD;stroke-width:2.5;stroke-linecap:round;stroke-linejoin:round;stroke-miterlimit:10;}
	
		.st20{clip-path:url(#SVGID_206_);fill:none;stroke:#4C3AAD;stroke-width:2.5;stroke-linecap:round;stroke-linejoin:round;stroke-miterlimit:10;}
	.st21{clip-path:url(#SVGID_208_);fill:#4C3AAD;}
	.st22{clip-path:url(#SVGID_210_);fill:#4C3AAD;}
	.st23{clip-path:url(#SVGID_212_);fill:#4C3AAD;}
	.st24{clip-path:url(#SVGID_214_);fill:#4C3AAD;}
	.st25{clip-path:url(#SVGID_216_);fill:#4C3AAD;}
	.st26{clip-path:url(#SVGID_218_);fill:#4C3AAD;}
	.st27{clip-path:url(#SVGID_220_);fill:#4C3AAD;}
	.st28{clip-path:url(#SVGID_222_);fill:#4C3AAD;}
	.st29{clip-path:url(#SVGID_224_);fill:#4C3AAD;}
	.st30{clip-path:url(#SVGID_226_);fill:#4C3AAD;}
	.st31{clip-path:url(#SVGID_228_);fill:none;stroke:#4C3AAD;stroke-miterlimit:10;}
	.st32{clip-path:url(#SVGID_230_);fill:#4C3AAD;}
	.st33{clip-path:url(#SVGID_232_);fill:#4C3AAD;}
	.st34{clip-path:url(#SVGID_234_);fill:#4C3AAD;}
	
		.st35{clip-path:url(#SVGID_242_);fill:none;stroke:#4C3AAD;stroke-width:2.5;stroke-linecap:round;stroke-linejoin:round;stroke-miterlimit:10;}
	
		.st36{clip-path:url(#SVGID_244_);fill:none;stroke:#4C3AAD;stroke-width:2.5;stroke-linecap:round;stroke-linejoin:round;stroke-miterlimit:10;}
	
		.st37{clip-path:url(#SVGID_246_);fill:none;stroke:#4C3AAD;stroke-width:2.5;stroke-linecap:round;stroke-linejoin:round;stroke-miterlimit:10;}
	.st38{fill:#F6BA8E;stroke:#4C3AAD;stroke-width:3;stroke-miterlimit:10;}
	.st39{fill:#616666;stroke:#4C3AAD;stroke-width:3;stroke-miterlimit:10;}
	.st40{fill:#A2AAAA;stroke:#4C3AAD;stroke-width:3;stroke-miterlimit:10;}
</style>
<g>
	<g>
		<defs>
			<rect id="SVGID_1_" x="-39" y="355.8" width="762.5" height="479.7"/>
		</defs>
		<clipPath id="SVGID_2_">
			<use xlink:href="#SVGID_1_"  style="overflow:visible;"/>
		</clipPath>
	</g>
	<g>
		<defs>
			<rect id="SVGID_3_" x="-39" y="355.8" width="762.5" height="479.7"/>
		</defs>
		<clipPath id="SVGID_4_">
			<use xlink:href="#SVGID_3_"  style="overflow:visible;"/>
		</clipPath>
		<path class="st0" d="M235.5,432.5c-3.6,0.1-5.4,2-5.4,5.5v8.2c0,4-1.8,6.3-5.3,7.1v0.3c3.5,0.7,5.3,3.1,5.3,7.1v8.3
			c0,1.9,0.5,3.3,1.4,4.1c0.9,0.9,2.3,1.3,4.1,1.3"/>
	</g>
	<g>
		<defs>
			<rect id="SVGID_5_" x="-39" y="355.8" width="762.5" height="479.7"/>
		</defs>
		<clipPath id="SVGID_6_">
			<use xlink:href="#SVGID_5_"  style="overflow:visible;"/>
		</clipPath>
		<path class="st1" d="M260,474.4c1.7,0,3.1-0.5,4-1.3c0.9-0.9,1.4-2.2,1.4-4.1v-8.3c0-2.1,0.4-3.7,1.3-4.8s2.2-1.9,4-2.2v-0.3
			c-3.5-0.7-5.3-3.1-5.3-7.1v-8.2c0-3.6-1.8-5.4-5.4-5.5"/>
	</g>
</g>
<path class="st2" d="M663.5,761.4v-34.8l-34.8-19.4v-35.1h-32.2c0,0,0-60,0-76.3c0-16.3-75.6,0-75.6,0V662h-11.7v-33.7L495.8,614
	v-61.2h-98.2v71.1h-17.4l-11.3-9.5v-39.8h-61.7v100.5h-40v-40.6l-21.7-14.8v-28.3h-60.8v63.4h-16.5l-17.4-27.7H115l-27.8,34.2
	l-66.9,20.3v66.5H-7.5v87.7h715.4v-74.2H663.5z"/>
<g>
	<path class="st3" d="M220.9,615l11.8,36.6c0.8,2.6,3.3,4.4,6,4.4h33.1v15h-54.6L220.9,615z"/>
	<g>
		<path class="st4" d="M265.6,717.4l-0.2-4.3c-1-4.7-5.1-8.1-9.9-8.1h-27.7l-17-83.2c-1-4.7-5.1-8.1-9.9-8.1h-71
			c-6.4,0-11.2,5.8-9.9,12.1l16.2,79.2l3.7,18.1c1.4,6.7,7.2,11.5,14.1,11.5h62.2h35.3C260.6,734.7,267.4,726.3,265.6,717.4z"/>
		<path class="st5" d="M216.2,734.7h-62.2c-6.8,0-12.7-4.8-14.1-11.5l-3.7-18.1L120,625.9c-1.3-6.3,3.5-12.1,9.9-12.1h71
			c4.8,0,8.9,3.4,9.9,8.1l17,83.2l2.5,12.4C232.1,726.3,225.3,734.7,216.2,734.7z"/>
		<path class="st6" d="M259.7,726.4h-35.3h-62.2c-6.8,0-12.7-4.8-14.1-11.5l-3.7-18.1l-16.2-79.2c-0.3-1.3-0.3-2.5-0.1-3.7
			c-5.5,0.9-9.4,6.3-8.2,12l16.2,79.2l3.7,18.1c1.4,6.7,7.2,11.5,14.1,11.5h62.2h35.3c6.2,0,11.4-3.9,13.4-9.2
			C263.3,726,261.6,726.4,259.7,726.4z"/>
	</g>
	<path class="st6" d="M199.3,693.7c0,0-14,26.9,12.1,31.7l33.2,17.2l-4.8,74.2l22.3,0l13.5-90.1c0.8-5.2-2.1-10.3-7-12l-40.7-16.4
		L199.3,693.7z"/>
	<path class="st6" d="M182.5,819.3l-0.6,11.4c0,2.6,1.8,4.6,4.1,4.6h39.3c3.5,0,5.5-4.5,3.5-7.7c-2.5-3.9-19-8.4-27.8-11.5
		l-16.5-0.6L182.5,819.3z"/>
	<path class="st6" d="M288.5,827.6c-2.4-3.6-17-7.8-26.1-10.9h-22.3v14c0,2.6,1.8,4.6,4.1,4.6H285
		C288.5,835.3,290.6,830.8,288.5,827.6z"/>
	<path class="st5" d="M159,697.7c0,0-7.8,27.5,18.2,32.3l22.6,8.9c3.8,1.5,5.8,5.7,4.7,9.7l-22.1,70.9h28.8l27.1-77.5
		c2.7-7.8,0.1-16.6-6.5-21.4l-34.2-25.3L159,697.7z"/>
	<g>
		<path class="st7" d="M158.5,698.1h64.4l-1.5-75.7c-0.2-4.4,0.6-8.4-2.7-11.3c-5.2-4.4-12.8-10.7-15.4-11.5l-26-2.1
			c0,0-2.1,0.7-5.1,1.9c-5.7,2.2-14.4,5.9-16.3,8.7l1.7,50.8L158.5,698.1z"/>
	</g>
	<path class="st8" d="M177.2,578.9v18.6c0,0,8,18.1,17.8,16.4c0,0,5.7-2.5,4.8-12v-10.4L177.2,578.9z"/>
	<path class="st8" d="M196.5,551.7c-10.7,0-19.3,8.6-19.3,19.3l0,6.8c0,11.1,8.6,20.1,19.3,20.1c10.7,0,19.3-9,19.3-20.1l0-6.8
		c0,0-0.7-10,0-13C216.5,555,196.5,551.7,196.5,551.7z"/>
	<path class="st6" d="M176.7,571.1c0,0,3.6,7.8,5.8,6.9c1.6-0.6,1.3-8.7,3.5-11.7c4.3-5.9,20.9,6.7,31.3-3.4
		c10.9-10.6-17.2-44.9-42.5-19.6c-8.3,8.4-6.1,26.2-2,31.7L176.7,571.1z"/>
	<path class="st8" d="M171.8,576c0-2.8,1.6-5,4.4-5c2.8,0,5,2.2,5,5c0,2.8-0.8,6.1-3.5,6.1C174.9,582.1,171.8,578.8,171.8,576z"/>
	<path class="st3" d="M172.2,599.3c2.5,17.7,15.6,23.2,15.6,23.2l7.1-8.6c-9.7,1.3-17.6-16.5-17.6-16.5S175.1,598.2,172.2,599.3z"/>
	<path class="st3" d="M194.8,613.9l7.8,5.9c0,0,5-12.1,0.5-20.2c-1.1-0.3-2.1-0.6-3.2-1v3.4c0.9,9.5-4.8,12-4.8,12
		C195,613.9,194.9,613.9,194.8,613.9z"/>
	<polygon class="st5" points="201.8,619.2 199.7,626.6 191,627.7 188,622.1 194.8,614 	"/>
	<polygon class="st6" points="199.7,626.6 206.6,671.5 199,682 188.9,672.7 191,627.7 	"/>
	<g>
		<path class="st6" d="M420,670.9H113.4c-1.4,0-2.6,1.1-2.6,2.6v8.4c0,1.4,1.1,2.6,2.6,2.6H420c1.4,0,2.6-1.1,2.6-2.6v-8.4
			C422.5,672.1,421.4,670.9,420,670.9z"/>
		<polygon class="st6" points="173.5,835.5 164.7,835.5 193.6,684.3 202.4,684.3 		"/>
		<polygon class="st5" points="229.2,835.5 220.4,835.5 249.3,684.3 258.1,684.3 		"/>
		<polygon class="st5" points="404.5,835.5 413.3,835.5 384.4,684.3 375.6,684.3 		"/>
		<polygon class="st6" points="348.9,835.5 357.7,835.5 328.8,684.3 320,684.3 		"/>
		<path class="st6" d="M400.9,684.3H179.3l0,0c0,5.1,4.2,9.3,9.3,9.3h202.9C396.7,693.6,400.9,689.4,400.9,684.3L400.9,684.3z"/>
		<g>
			<path class="st7" d="M341.3,605h-77.7c-3.8,0-7.1,2.7-7.9,6.4l-10.3,50.7h94.1l9.7-47.5C350.2,609.6,346.4,605,341.3,605z"/>
			<path class="st6" d="M341.4,662.1H208.6c-0.9,0-1.6,0.7-1.6,1.6v5.7c0,0.9,0.7,1.6,1.6,1.6h132.8c0.9,0,1.6-0.7,1.6-1.6v-5.7
				C343,662.8,342.3,662.1,341.4,662.1z"/>
			<path class="st3" d="M339.2,662.1h-94.9c2.1,0,3.8,1.7,3.8,3.8v1.2c0,2.1-1.7,3.8-3.8,3.8h94.9c2.1,0,3.8-1.7,3.8-3.8v-1.2
				C343,663.8,341.3,662.1,339.2,662.1z"/>
			<path class="st8" d="M240.5,665.9h-6.9c-0.6,0-1.1,0.5-1.1,1.1l0,0c0,0.6,0.5,1.1,1.1,1.1h6.9c0.6,0,1.1-0.5,1.1-1.1l0,0
				C241.6,666.4,241.1,665.9,240.5,665.9z"/>
			<circle class="st8" cx="297.7" cy="638.9" r="7.5"/>
		</g>
	</g>
	<path class="st7" d="M157.6,657.7h-1.1c-1.3,0-2.2-1.4-1.7-2.5l2.5-6l-1.4-41.2c0,0-16.2,12.9-24.4,57.2c-0.6,3,2.1,5.7,5.1,5.7
		h21.3h28.6v-13.2H157.6z"/>
	<path class="st3" d="M212.1,671.2c1.5,0,2.5-0.9,2-1.8c-1.9-3.2-6.9-5.4-12.8-5.4c-5.8,0-10.8,2.3-12.8,5.4c-0.5,0.9,0.5,1.8,2,1.8
		H212.1z"/>
	<path class="st8" d="M189.4,670.9c2.6-1.6,7-6,12.6-6.9c-3.6-3-8.3-4.2-13.2-4.2h-2.3v11.1H189.4z"/>
	<line class="st9" x1="189.4" y1="670.9" x2="186.5" y2="670.9"/>
</g>
<path class="st10" d="M-37.7,834.3h760H-37.7z"/>
<g>
	<g>
		<defs>
			<rect id="SVGID_7_" x="-39" y="355.8" width="762.5" height="479.7"/>
		</defs>
		<clipPath id="SVGID_8_">
			<use xlink:href="#SVGID_7_"  style="overflow:visible;"/>
		</clipPath>
		<line class="st11" x1="-37.8" y1="834.3" x2="722.3" y2="834.3"/>
	</g>
	<g>
		<defs>
			<rect id="SVGID_9_" x="-39" y="355.8" width="762.5" height="479.7"/>
		</defs>
		<clipPath id="SVGID_10_">
			<use xlink:href="#SVGID_9_"  style="overflow:visible;"/>
		</clipPath>
	</g>
	<g>
		<defs>
			<rect id="SVGID_11_" x="-39" y="355.8" width="762.5" height="479.7"/>
		</defs>
		<clipPath id="SVGID_12_">
			<use xlink:href="#SVGID_11_"  style="overflow:visible;"/>
		</clipPath>
	</g>
	<g>
		<defs>
			<rect id="SVGID_13_" x="-39" y="355.8" width="762.5" height="479.7"/>
		</defs>
		<clipPath id="SVGID_14_">
			<use xlink:href="#SVGID_13_"  style="overflow:visible;"/>
		</clipPath>
	</g>
	<g>
		<defs>
			<rect id="SVGID_15_" x="-39" y="355.8" width="762.5" height="479.7"/>
		</defs>
		<clipPath id="SVGID_16_">
			<use xlink:href="#SVGID_15_"  style="overflow:visible;"/>
		</clipPath>
	</g>
	<g>
		<defs>
			<rect id="SVGID_17_" x="-39" y="355.8" width="762.5" height="479.7"/>
		</defs>
		<clipPath id="SVGID_18_">
			<use xlink:href="#SVGID_17_"  style="overflow:visible;"/>
		</clipPath>
	</g>
	<g>
		<defs>
			<rect id="SVGID_19_" x="-39" y="355.8" width="762.5" height="479.7"/>
		</defs>
		<clipPath id="SVGID_20_">
			<use xlink:href="#SVGID_19_"  style="overflow:visible;"/>
		</clipPath>
	</g>
	<g>
		<defs>
			<rect id="SVGID_21_" x="-39" y="355.8" width="762.5" height="479.7"/>
		</defs>
		<clipPath id="SVGID_22_">
			<use xlink:href="#SVGID_21_"  style="overflow:visible;"/>
		</clipPath>
	</g>
	<g>
		<defs>
			<rect id="SVGID_23_" x="-39" y="355.8" width="762.5" height="479.7"/>
		</defs>
		<clipPath id="SVGID_24_">
			<use xlink:href="#SVGID_23_"  style="overflow:visible;"/>
		</clipPath>
	</g>
	<g>
		<defs>
			<rect id="SVGID_25_" x="-39" y="355.8" width="762.5" height="479.7"/>
		</defs>
		<clipPath id="SVGID_26_">
			<use xlink:href="#SVGID_25_"  style="overflow:visible;"/>
		</clipPath>
	</g>
	<g>
		<defs>
			<rect id="SVGID_27_" x="-39" y="355.8" width="762.5" height="479.7"/>
		</defs>
		<clipPath id="SVGID_28_">
			<use xlink:href="#SVGID_27_"  style="overflow:visible;"/>
		</clipPath>
	</g>
	<g>
		<defs>
			<rect id="SVGID_29_" x="-39" y="355.8" width="762.5" height="479.7"/>
		</defs>
		<clipPath id="SVGID_30_">
			<use xlink:href="#SVGID_29_"  style="overflow:visible;"/>
		</clipPath>
	</g>
	<g>
		<defs>
			<rect id="SVGID_31_" x="-39" y="355.8" width="762.5" height="479.7"/>
		</defs>
		<clipPath id="SVGID_32_">
			<use xlink:href="#SVGID_31_"  style="overflow:visible;"/>
		</clipPath>
	</g>
	<g>
		<defs>
			<rect id="SVGID_33_" x="-39" y="355.8" width="762.5" height="479.7"/>
		</defs>
		<clipPath id="SVGID_34_">
			<use xlink:href="#SVGID_33_"  style="overflow:visible;"/>
		</clipPath>
	</g>
	<g>
		<defs>
			<rect id="SVGID_35_" x="-39" y="355.8" width="762.5" height="479.7"/>
		</defs>
		<clipPath id="SVGID_36_">
			<use xlink:href="#SVGID_35_"  style="overflow:visible;"/>
		</clipPath>
	</g>
	<g>
		<defs>
			<rect id="SVGID_37_" x="-39" y="355.8" width="762.5" height="479.7"/>
		</defs>
		<clipPath id="SVGID_38_">
			<use xlink:href="#SVGID_37_"  style="overflow:visible;"/>
		</clipPath>
	</g>
	<g>
		<defs>
			<rect id="SVGID_39_" x="-39" y="355.8" width="762.5" height="479.7"/>
		</defs>
		<clipPath id="SVGID_40_">
			<use xlink:href="#SVGID_39_"  style="overflow:visible;"/>
		</clipPath>
	</g>
	<g>
		<defs>
			<rect id="SVGID_41_" x="-39" y="355.8" width="762.5" height="479.7"/>
		</defs>
		<clipPath id="SVGID_42_">
			<use xlink:href="#SVGID_41_"  style="overflow:visible;"/>
		</clipPath>
	</g>
	<g>
		<defs>
			<rect id="SVGID_43_" x="-39" y="355.8" width="762.5" height="479.7"/>
		</defs>
		<clipPath id="SVGID_44_">
			<use xlink:href="#SVGID_43_"  style="overflow:visible;"/>
		</clipPath>
	</g>
	<g>
		<defs>
			<rect id="SVGID_45_" x="-39" y="355.8" width="762.5" height="479.7"/>
		</defs>
		<clipPath id="SVGID_46_">
			<use xlink:href="#SVGID_45_"  style="overflow:visible;"/>
		</clipPath>
	</g>
	<g>
		<defs>
			<rect id="SVGID_47_" x="-39" y="355.8" width="762.5" height="479.7"/>
		</defs>
		<clipPath id="SVGID_48_">
			<use xlink:href="#SVGID_47_"  style="overflow:visible;"/>
		</clipPath>
	</g>
	<g>
		<defs>
			<rect id="SVGID_49_" x="-39" y="355.8" width="762.5" height="479.7"/>
		</defs>
		<clipPath id="SVGID_50_">
			<use xlink:href="#SVGID_49_"  style="overflow:visible;"/>
		</clipPath>
	</g>
	<g>
		<defs>
			<rect id="SVGID_51_" x="-39" y="355.8" width="762.5" height="479.7"/>
		</defs>
		<clipPath id="SVGID_52_">
			<use xlink:href="#SVGID_51_"  style="overflow:visible;"/>
		</clipPath>
	</g>
	<g>
		<defs>
			<rect id="SVGID_53_" x="-39" y="355.8" width="762.5" height="479.7"/>
		</defs>
		<clipPath id="SVGID_54_">
			<use xlink:href="#SVGID_53_"  style="overflow:visible;"/>
		</clipPath>
	</g>
	<g>
		<defs>
			<rect id="SVGID_55_" x="-39" y="355.8" width="762.5" height="479.7"/>
		</defs>
		<clipPath id="SVGID_56_">
			<use xlink:href="#SVGID_55_"  style="overflow:visible;"/>
		</clipPath>
	</g>
	<g>
		<defs>
			<rect id="SVGID_57_" x="-39" y="355.8" width="762.5" height="479.7"/>
		</defs>
		<clipPath id="SVGID_58_">
			<use xlink:href="#SVGID_57_"  style="overflow:visible;"/>
		</clipPath>
	</g>
	<g>
		<defs>
			<rect id="SVGID_59_" x="-39" y="355.8" width="762.5" height="479.7"/>
		</defs>
		<clipPath id="SVGID_60_">
			<use xlink:href="#SVGID_59_"  style="overflow:visible;"/>
		</clipPath>
	</g>
	<g>
		<defs>
			<rect id="SVGID_61_" x="-39" y="355.8" width="762.5" height="479.7"/>
		</defs>
		<clipPath id="SVGID_62_">
			<use xlink:href="#SVGID_61_"  style="overflow:visible;"/>
		</clipPath>
	</g>
	<g>
		<defs>
			<rect id="SVGID_63_" x="-39" y="355.8" width="762.5" height="479.7"/>
		</defs>
		<clipPath id="SVGID_64_">
			<use xlink:href="#SVGID_63_"  style="overflow:visible;"/>
		</clipPath>
	</g>
	<g>
		<defs>
			<rect id="SVGID_65_" x="-39" y="355.8" width="762.5" height="479.7"/>
		</defs>
		<clipPath id="SVGID_66_">
			<use xlink:href="#SVGID_65_"  style="overflow:visible;"/>
		</clipPath>
	</g>
	<g>
		<defs>
			<rect id="SVGID_67_" x="-39" y="355.8" width="762.5" height="479.7"/>
		</defs>
		<clipPath id="SVGID_68_">
			<use xlink:href="#SVGID_67_"  style="overflow:visible;"/>
		</clipPath>
	</g>
	<g>
		<defs>
			<rect id="SVGID_69_" x="-39" y="355.8" width="762.5" height="479.7"/>
		</defs>
		<clipPath id="SVGID_70_">
			<use xlink:href="#SVGID_69_"  style="overflow:visible;"/>
		</clipPath>
	</g>
	<g>
		<defs>
			<rect id="SVGID_71_" x="-39" y="355.8" width="762.5" height="479.7"/>
		</defs>
		<clipPath id="SVGID_72_">
			<use xlink:href="#SVGID_71_"  style="overflow:visible;"/>
		</clipPath>
	</g>
	<g>
		<defs>
			<rect id="SVGID_73_" x="-39" y="355.8" width="762.5" height="479.7"/>
		</defs>
		<clipPath id="SVGID_74_">
			<use xlink:href="#SVGID_73_"  style="overflow:visible;"/>
		</clipPath>
	</g>
	<g>
		<defs>
			<rect id="SVGID_75_" x="-39" y="355.8" width="762.5" height="479.7"/>
		</defs>
		<clipPath id="SVGID_76_">
			<use xlink:href="#SVGID_75_"  style="overflow:visible;"/>
		</clipPath>
	</g>
	<g>
		<defs>
			<rect id="SVGID_77_" x="-39" y="355.8" width="762.5" height="479.7"/>
		</defs>
		<clipPath id="SVGID_78_">
			<use xlink:href="#SVGID_77_"  style="overflow:visible;"/>
		</clipPath>
	</g>
	<g>
		<defs>
			<rect id="SVGID_79_" x="-39" y="355.8" width="762.5" height="479.7"/>
		</defs>
		<clipPath id="SVGID_80_">
			<use xlink:href="#SVGID_79_"  style="overflow:visible;"/>
		</clipPath>
	</g>
	<g>
		<defs>
			<rect id="SVGID_81_" x="-39" y="355.8" width="762.5" height="479.7"/>
		</defs>
		<clipPath id="SVGID_82_">
			<use xlink:href="#SVGID_81_"  style="overflow:visible;"/>
		</clipPath>
	</g>
	<g>
		<defs>
			<rect id="SVGID_83_" x="-39" y="355.8" width="762.5" height="479.7"/>
		</defs>
		<clipPath id="SVGID_84_">
			<use xlink:href="#SVGID_83_"  style="overflow:visible;"/>
		</clipPath>
	</g>
	<g>
		<defs>
			<rect id="SVGID_85_" x="-39" y="355.8" width="762.5" height="479.7"/>
		</defs>
		<clipPath id="SVGID_86_">
			<use xlink:href="#SVGID_85_"  style="overflow:visible;"/>
		</clipPath>
	</g>
	<g>
		<defs>
			<rect id="SVGID_87_" x="-39" y="355.8" width="762.5" height="479.7"/>
		</defs>
		<clipPath id="SVGID_88_">
			<use xlink:href="#SVGID_87_"  style="overflow:visible;"/>
		</clipPath>
	</g>
	<g>
		<defs>
			<rect id="SVGID_89_" x="-39" y="355.8" width="762.5" height="479.7"/>
		</defs>
		<clipPath id="SVGID_90_">
			<use xlink:href="#SVGID_89_"  style="overflow:visible;"/>
		</clipPath>
	</g>
	<g>
		<defs>
			<rect id="SVGID_91_" x="-39" y="355.8" width="762.5" height="479.7"/>
		</defs>
		<clipPath id="SVGID_92_">
			<use xlink:href="#SVGID_91_"  style="overflow:visible;"/>
		</clipPath>
	</g>
	<g>
		<defs>
			<rect id="SVGID_93_" x="-39" y="355.8" width="762.5" height="479.7"/>
		</defs>
		<clipPath id="SVGID_94_">
			<use xlink:href="#SVGID_93_"  style="overflow:visible;"/>
		</clipPath>
	</g>
	<g>
		<defs>
			<rect id="SVGID_95_" x="-39" y="355.8" width="762.5" height="479.7"/>
		</defs>
		<clipPath id="SVGID_96_">
			<use xlink:href="#SVGID_95_"  style="overflow:visible;"/>
		</clipPath>
	</g>
	<g>
		<defs>
			<rect id="SVGID_97_" x="-39" y="355.8" width="762.5" height="479.7"/>
		</defs>
		<clipPath id="SVGID_98_">
			<use xlink:href="#SVGID_97_"  style="overflow:visible;"/>
		</clipPath>
	</g>
	<g>
		<defs>
			<rect id="SVGID_99_" x="-39" y="355.8" width="762.5" height="479.7"/>
		</defs>
		<clipPath id="SVGID_100_">
			<use xlink:href="#SVGID_99_"  style="overflow:visible;"/>
		</clipPath>
	</g>
	<g>
		<defs>
			<rect id="SVGID_101_" x="-39" y="355.8" width="762.5" height="479.7"/>
		</defs>
		<clipPath id="SVGID_102_">
			<use xlink:href="#SVGID_101_"  style="overflow:visible;"/>
		</clipPath>
	</g>
	<g>
		<defs>
			<rect id="SVGID_103_" x="-39" y="355.8" width="762.5" height="479.7"/>
		</defs>
		<clipPath id="SVGID_104_">
			<use xlink:href="#SVGID_103_"  style="overflow:visible;"/>
		</clipPath>
	</g>
	<g>
		<defs>
			<rect id="SVGID_105_" x="-39" y="355.8" width="762.5" height="479.7"/>
		</defs>
		<clipPath id="SVGID_106_">
			<use xlink:href="#SVGID_105_"  style="overflow:visible;"/>
		</clipPath>
	</g>
	<g>
		<defs>
			<rect id="SVGID_107_" x="-39" y="355.8" width="762.5" height="479.7"/>
		</defs>
		<clipPath id="SVGID_108_">
			<use xlink:href="#SVGID_107_"  style="overflow:visible;"/>
		</clipPath>
	</g>
	<g>
		<defs>
			<rect id="SVGID_109_" x="-39" y="355.8" width="762.5" height="479.7"/>
		</defs>
		<clipPath id="SVGID_110_">
			<use xlink:href="#SVGID_109_"  style="overflow:visible;"/>
		</clipPath>
	</g>
	<g>
		<defs>
			<rect id="SVGID_111_" x="-39" y="355.8" width="762.5" height="479.7"/>
		</defs>
		<clipPath id="SVGID_112_">
			<use xlink:href="#SVGID_111_"  style="overflow:visible;"/>
		</clipPath>
	</g>
	<g>
		<defs>
			<rect id="SVGID_113_" x="-39" y="355.8" width="762.5" height="479.7"/>
		</defs>
		<clipPath id="SVGID_114_">
			<use xlink:href="#SVGID_113_"  style="overflow:visible;"/>
		</clipPath>
	</g>
	<g>
		<defs>
			<rect id="SVGID_115_" x="-39" y="355.8" width="762.5" height="479.7"/>
		</defs>
		<clipPath id="SVGID_116_">
			<use xlink:href="#SVGID_115_"  style="overflow:visible;"/>
		</clipPath>
	</g>
	<g>
		<defs>
			<rect id="SVGID_117_" x="-39" y="355.8" width="762.5" height="479.7"/>
		</defs>
		<clipPath id="SVGID_118_">
			<use xlink:href="#SVGID_117_"  style="overflow:visible;"/>
		</clipPath>
	</g>
	<g>
		<defs>
			<rect id="SVGID_119_" x="-39" y="355.8" width="762.5" height="479.7"/>
		</defs>
		<clipPath id="SVGID_120_">
			<use xlink:href="#SVGID_119_"  style="overflow:visible;"/>
		</clipPath>
	</g>
	<g>
		<defs>
			<rect id="SVGID_121_" x="-39" y="355.8" width="762.5" height="479.7"/>
		</defs>
		<clipPath id="SVGID_122_">
			<use xlink:href="#SVGID_121_"  style="overflow:visible;"/>
		</clipPath>
	</g>
	<g>
		<defs>
			<rect id="SVGID_123_" x="-39" y="355.8" width="762.5" height="479.7"/>
		</defs>
		<clipPath id="SVGID_124_">
			<use xlink:href="#SVGID_123_"  style="overflow:visible;"/>
		</clipPath>
	</g>
	<g>
		<defs>
			<rect id="SVGID_125_" x="-39" y="355.8" width="762.5" height="479.7"/>
		</defs>
		<clipPath id="SVGID_126_">
			<use xlink:href="#SVGID_125_"  style="overflow:visible;"/>
		</clipPath>
	</g>
	<g>
		<defs>
			<rect id="SVGID_127_" x="-39" y="355.8" width="762.5" height="479.7"/>
		</defs>
		<clipPath id="SVGID_128_">
			<use xlink:href="#SVGID_127_"  style="overflow:visible;"/>
		</clipPath>
	</g>
	<g>
		<defs>
			<rect id="SVGID_129_" x="-39" y="355.8" width="762.5" height="479.7"/>
		</defs>
		<clipPath id="SVGID_130_">
			<use xlink:href="#SVGID_129_"  style="overflow:visible;"/>
		</clipPath>
	</g>
	<g>
		<defs>
			<rect id="SVGID_131_" x="-39" y="355.8" width="762.5" height="479.7"/>
		</defs>
		<clipPath id="SVGID_132_">
			<use xlink:href="#SVGID_131_"  style="overflow:visible;"/>
		</clipPath>
	</g>
	<g>
		<defs>
			<rect id="SVGID_133_" x="-39" y="355.8" width="762.5" height="479.7"/>
		</defs>
		<clipPath id="SVGID_134_">
			<use xlink:href="#SVGID_133_"  style="overflow:visible;"/>
		</clipPath>
	</g>
	<g>
		<defs>
			<rect id="SVGID_135_" x="-39" y="355.8" width="762.5" height="479.7"/>
		</defs>
		<clipPath id="SVGID_136_">
			<use xlink:href="#SVGID_135_"  style="overflow:visible;"/>
		</clipPath>
	</g>
	<g>
		<defs>
			<rect id="SVGID_137_" x="-39" y="355.8" width="762.5" height="479.7"/>
		</defs>
		<clipPath id="SVGID_138_">
			<use xlink:href="#SVGID_137_"  style="overflow:visible;"/>
		</clipPath>
	</g>
	<g>
		<defs>
			<rect id="SVGID_139_" x="-39" y="355.8" width="762.5" height="479.7"/>
		</defs>
		<clipPath id="SVGID_140_">
			<use xlink:href="#SVGID_139_"  style="overflow:visible;"/>
		</clipPath>
	</g>
	<g>
		<defs>
			<rect id="SVGID_141_" x="-39" y="355.8" width="762.5" height="479.7"/>
		</defs>
		<clipPath id="SVGID_142_">
			<use xlink:href="#SVGID_141_"  style="overflow:visible;"/>
		</clipPath>
	</g>
	<g>
		<defs>
			<rect id="SVGID_143_" x="-39" y="355.8" width="762.5" height="479.7"/>
		</defs>
		<clipPath id="SVGID_144_">
			<use xlink:href="#SVGID_143_"  style="overflow:visible;"/>
		</clipPath>
	</g>
	<g>
		<defs>
			<rect id="SVGID_145_" x="-39" y="355.8" width="762.5" height="479.7"/>
		</defs>
		<clipPath id="SVGID_146_">
			<use xlink:href="#SVGID_145_"  style="overflow:visible;"/>
		</clipPath>
	</g>
	<g>
		<defs>
			<rect id="SVGID_147_" x="-39" y="355.8" width="762.5" height="479.7"/>
		</defs>
		<clipPath id="SVGID_148_">
			<use xlink:href="#SVGID_147_"  style="overflow:visible;"/>
		</clipPath>
	</g>
	<g>
		<defs>
			<rect id="SVGID_149_" x="-39" y="355.8" width="762.5" height="479.7"/>
		</defs>
		<clipPath id="SVGID_150_">
			<use xlink:href="#SVGID_149_"  style="overflow:visible;"/>
		</clipPath>
	</g>
	<g>
		<defs>
			<rect id="SVGID_151_" x="-39" y="355.8" width="762.5" height="479.7"/>
		</defs>
		<clipPath id="SVGID_152_">
			<use xlink:href="#SVGID_151_"  style="overflow:visible;"/>
		</clipPath>
	</g>
	<g>
		<defs>
			<rect id="SVGID_153_" x="-39" y="355.8" width="762.5" height="479.7"/>
		</defs>
		<clipPath id="SVGID_154_">
			<use xlink:href="#SVGID_153_"  style="overflow:visible;"/>
		</clipPath>
	</g>
	<g>
		<defs>
			<rect id="SVGID_155_" x="-39" y="355.8" width="762.5" height="479.7"/>
		</defs>
		<clipPath id="SVGID_156_">
			<use xlink:href="#SVGID_155_"  style="overflow:visible;"/>
		</clipPath>
	</g>
	<g>
		<defs>
			<rect id="SVGID_157_" x="-39" y="355.8" width="762.5" height="479.7"/>
		</defs>
		<clipPath id="SVGID_158_">
			<use xlink:href="#SVGID_157_"  style="overflow:visible;"/>
		</clipPath>
	</g>
	<g>
		<defs>
			<rect id="SVGID_159_" x="-39" y="355.8" width="762.5" height="479.7"/>
		</defs>
		<clipPath id="SVGID_160_">
			<use xlink:href="#SVGID_159_"  style="overflow:visible;"/>
		</clipPath>
	</g>
	<g>
		<defs>
			<rect id="SVGID_161_" x="-39" y="355.8" width="762.5" height="479.7"/>
		</defs>
		<clipPath id="SVGID_162_">
			<use xlink:href="#SVGID_161_"  style="overflow:visible;"/>
		</clipPath>
	</g>
	<g>
		<defs>
			<rect id="SVGID_163_" x="-39" y="355.8" width="762.5" height="479.7"/>
		</defs>
		<clipPath id="SVGID_164_">
			<use xlink:href="#SVGID_163_"  style="overflow:visible;"/>
		</clipPath>
	</g>
	<g>
		<defs>
			<rect id="SVGID_165_" x="-39" y="355.8" width="762.5" height="479.7"/>
		</defs>
		<clipPath id="SVGID_166_">
			<use xlink:href="#SVGID_165_"  style="overflow:visible;"/>
		</clipPath>
	</g>
	<g>
		<defs>
			<rect id="SVGID_167_" x="-39" y="355.8" width="762.5" height="479.7"/>
		</defs>
		<clipPath id="SVGID_168_">
			<use xlink:href="#SVGID_167_"  style="overflow:visible;"/>
		</clipPath>
	</g>
	<g>
		<defs>
			<rect id="SVGID_169_" x="-39" y="355.8" width="762.5" height="479.7"/>
		</defs>
		<clipPath id="SVGID_170_">
			<use xlink:href="#SVGID_169_"  style="overflow:visible;"/>
		</clipPath>
	</g>
	<g>
		<defs>
			<rect id="SVGID_171_" x="-39" y="355.8" width="762.5" height="479.7"/>
		</defs>
		<clipPath id="SVGID_172_">
			<use xlink:href="#SVGID_171_"  style="overflow:visible;"/>
		</clipPath>
	</g>
	<g>
		<defs>
			<rect id="SVGID_173_" x="-39" y="355.8" width="762.5" height="479.7"/>
		</defs>
		<clipPath id="SVGID_174_">
			<use xlink:href="#SVGID_173_"  style="overflow:visible;"/>
		</clipPath>
	</g>
	<g>
		<defs>
			<rect id="SVGID_175_" x="-39" y="355.8" width="762.5" height="479.7"/>
		</defs>
		<clipPath id="SVGID_176_">
			<use xlink:href="#SVGID_175_"  style="overflow:visible;"/>
		</clipPath>
	</g>
	<g>
		<defs>
			<rect id="SVGID_177_" x="-39" y="355.8" width="762.5" height="479.7"/>
		</defs>
		<clipPath id="SVGID_178_">
			<use xlink:href="#SVGID_177_"  style="overflow:visible;"/>
		</clipPath>
	</g>
	<g>
		<defs>
			<rect id="SVGID_179_" x="-39" y="355.8" width="762.5" height="479.7"/>
		</defs>
		<clipPath id="SVGID_180_">
			<use xlink:href="#SVGID_179_"  style="overflow:visible;"/>
		</clipPath>
	</g>
	<g>
		<defs>
			<rect id="SVGID_181_" x="-39" y="355.8" width="762.5" height="479.7"/>
		</defs>
		<clipPath id="SVGID_182_">
			<use xlink:href="#SVGID_181_"  style="overflow:visible;"/>
		</clipPath>
	</g>
	<g>
		<defs>
			<rect id="SVGID_183_" x="-39" y="355.8" width="762.5" height="479.7"/>
		</defs>
		<clipPath id="SVGID_184_">
			<use xlink:href="#SVGID_183_"  style="overflow:visible;"/>
		</clipPath>
	</g>
	<g>
		<defs>
			<rect id="SVGID_185_" x="-39" y="355.8" width="762.5" height="479.7"/>
		</defs>
		<clipPath id="SVGID_186_">
			<use xlink:href="#SVGID_185_"  style="overflow:visible;"/>
		</clipPath>
	</g>
	<g>
		<defs>
			<rect id="SVGID_187_" x="-39" y="355.8" width="762.5" height="479.7"/>
		</defs>
		<clipPath id="SVGID_188_">
			<use xlink:href="#SVGID_187_"  style="overflow:visible;"/>
		</clipPath>
	</g>
	<g>
		<defs>
			<rect id="SVGID_189_" x="-39" y="355.8" width="762.5" height="479.7"/>
		</defs>
		<clipPath id="SVGID_190_">
			<use xlink:href="#SVGID_189_"  style="overflow:visible;"/>
		</clipPath>
		<polyline class="st12" points="376.6,421.2 368.7,421.2 368.7,465.2 375.9,465.2 		"/>
	</g>
	<g>
		<defs>
			<rect id="SVGID_191_" x="-39" y="355.8" width="762.5" height="479.7"/>
		</defs>
		<clipPath id="SVGID_192_">
			<use xlink:href="#SVGID_191_"  style="overflow:visible;"/>
		</clipPath>
		<polyline class="st13" points="399.5,465.2 406.7,465.2 406.7,421.2 398.9,421.2 		"/>
	</g>
	<g>
		<defs>
			<rect id="SVGID_193_" x="-39" y="355.8" width="762.5" height="479.7"/>
		</defs>
		<clipPath id="SVGID_194_">
			<use xlink:href="#SVGID_193_"  style="overflow:visible;"/>
		</clipPath>
		<polyline class="st14" points="34.1,616.2 26.2,616.2 26.2,660.2 33.4,660.2 		"/>
	</g>
	<g>
		<defs>
			<rect id="SVGID_195_" x="-39" y="355.8" width="762.5" height="479.7"/>
		</defs>
		<clipPath id="SVGID_196_">
			<use xlink:href="#SVGID_195_"  style="overflow:visible;"/>
		</clipPath>
		<polyline class="st15" points="57,660.2 64.2,660.2 64.2,616.2 56.4,616.2 		"/>
	</g>
	<g>
		<defs>
			<rect id="SVGID_197_" x="-39" y="355.8" width="762.5" height="479.7"/>
		</defs>
		<clipPath id="SVGID_198_">
			<use xlink:href="#SVGID_197_"  style="overflow:visible;"/>
		</clipPath>
		<path class="st16" d="M484.7,383.2h-24.2 M484.7,393.9h-24.2"/>
	</g>
	<g>
		<defs>
			<rect id="SVGID_199_" x="-39" y="355.8" width="762.5" height="479.7"/>
		</defs>
		<clipPath id="SVGID_200_">
			<use xlink:href="#SVGID_199_"  style="overflow:visible;"/>
		</clipPath>
		<path class="st17" d="M520.9,383.2h-24.2 M520.9,393.9h-24.2"/>
	</g>
	<g>
		<defs>
			<rect id="SVGID_201_" x="-39" y="355.8" width="762.5" height="479.7"/>
		</defs>
		<clipPath id="SVGID_202_">
			<use xlink:href="#SVGID_201_"  style="overflow:visible;"/>
		</clipPath>
		<polyline class="st18" points="103.9,437.6 85.1,427.2 103.9,417 		"/>
	</g>
	<g>
		<defs>
			<rect id="SVGID_203_" x="-39" y="355.8" width="762.5" height="479.7"/>
		</defs>
		<clipPath id="SVGID_204_">
			<use xlink:href="#SVGID_203_"  style="overflow:visible;"/>
		</clipPath>
		<polyline class="st19" points="129.9,417 148.7,427.2 129.9,437.6 		"/>
	</g>
	<g>
		<defs>
			<rect id="SVGID_205_" x="-39" y="355.8" width="762.5" height="479.7"/>
		</defs>
		<clipPath id="SVGID_206_">
			<use xlink:href="#SVGID_205_"  style="overflow:visible;"/>
		</clipPath>
		<line class="st20" x1="125.6" y1="406.8" x2="109.6" y2="449.2"/>
	</g>
	<g>
		<defs>
			<rect id="SVGID_207_" x="-39" y="355.8" width="762.5" height="479.7"/>
		</defs>
		<clipPath id="SVGID_208_">
			<use xlink:href="#SVGID_207_"  style="overflow:visible;"/>
		</clipPath>
		<path class="st21" d="M261.5,373.1c0,1.7-0.6,3.1-1.9,4s-3.1,1.4-5.5,1.4c-2.5,0-4.4-0.4-5.8-1.2v-2.5c0.9,0.5,1.9,0.8,2.9,1.1
			c1,0.3,2,0.4,3,0.4c1.5,0,2.6-0.2,3.4-0.7s1.2-1.2,1.2-2.2c0-0.7-0.3-1.4-0.9-1.9s-1.9-1.1-3.7-1.8c-1.7-0.7-3-1.2-3.7-1.7
			s-1.3-1-1.6-1.6c-0.4-0.6-0.5-1.3-0.5-2.2c0-1.5,0.6-2.7,1.9-3.6c1.2-0.9,2.9-1.3,5.1-1.3c2,0,4,0.4,5.9,1.2l-1,2.3
			c-1.9-0.8-3.6-1.2-5.1-1.2c-1.3,0-2.4,0.2-3,0.6c-0.7,0.4-1,1-1,1.7c0,0.5,0.1,0.9,0.4,1.3c0.3,0.4,0.7,0.7,1.2,1
			c0.6,0.3,1.7,0.8,3.3,1.4c2.2,0.8,3.7,1.6,4.5,2.4C261.1,370.9,261.5,371.9,261.5,373.1"/>
	</g>
	<g>
		<defs>
			<rect id="SVGID_209_" x="-39" y="355.8" width="762.5" height="479.7"/>
		</defs>
		<clipPath id="SVGID_210_">
			<use xlink:href="#SVGID_209_"  style="overflow:visible;"/>
		</clipPath>
		<path class="st22" d="M273.5,378.6c-2.7,0-4.8-0.8-6.3-2.5c-1.5-1.7-2.2-4-2.2-7.1s0.8-5.5,2.3-7.3c1.5-1.7,3.7-2.6,6.4-2.6
			c0.9,0,1.8,0.1,2.7,0.3c0.9,0.2,1.6,0.4,2.1,0.7l-0.9,2.4c-0.6-0.3-1.3-0.5-2-0.6c-0.7-0.2-1.4-0.2-2-0.2c-3.8,0-5.7,2.4-5.7,7.3
			c0,2.3,0.5,4.1,1.4,5.3c0.9,1.2,2.3,1.8,4.1,1.8c1.6,0,3.2-0.3,4.8-1v2.5C277,378.3,275.4,378.6,273.5,378.6"/>
	</g>
	<g>
		<defs>
			<rect id="SVGID_211_" x="-39" y="355.8" width="762.5" height="479.7"/>
		</defs>
		<clipPath id="SVGID_212_">
			<use xlink:href="#SVGID_211_"  style="overflow:visible;"/>
		</clipPath>
		<path class="st23" d="M291.2,359.2c0.8,0,1.6,0.1,2.2,0.2L293,362c-0.7-0.2-1.4-0.2-2-0.2c-1.5,0-2.8,0.6-3.9,1.8
			c-1.1,1.2-1.6,2.8-1.6,4.6v10h-2.8v-18.7h2.3l0.3,3.5h0.1c0.8-1.2,1.6-2.2,2.6-2.8C289,359.5,290.1,359.2,291.2,359.2"/>
	</g>
	<g>
		<defs>
			<rect id="SVGID_213_" x="-39" y="355.8" width="762.5" height="479.7"/>
		</defs>
		<clipPath id="SVGID_214_">
			<use xlink:href="#SVGID_213_"  style="overflow:visible;"/>
		</clipPath>
		<path class="st24" d="M311.9,363.6H296 M311.9,370.6H296"/>
	</g>
	<g>
		<defs>
			<rect id="SVGID_215_" x="-39" y="355.8" width="762.5" height="479.7"/>
		</defs>
		<clipPath id="SVGID_216_">
			<use xlink:href="#SVGID_215_"  style="overflow:visible;"/>
		</clipPath>
		<path class="st25" d="M318.6,374.1c2.5,0,2.4,3.1,1.5,4c-0.7,0.8-2.2,0.8-3,0.1C316.3,377.4,316,374.1,318.6,374.1"/>
	</g>
	<g>
		<defs>
			<rect id="SVGID_217_" x="-39" y="355.8" width="762.5" height="479.7"/>
		</defs>
		<clipPath id="SVGID_218_">
			<use xlink:href="#SVGID_217_"  style="overflow:visible;"/>
		</clipPath>
		<path class="st26" d="M326.4,374.7c0.8-0.9,3.6-1.1,3.6,1.7c0,2.6-2.5,2.7-3.5,1.8C325.7,377.5,325.7,375.5,326.4,374.7"/>
	</g>
	<g>
		<defs>
			<rect id="SVGID_219_" x="-39" y="355.8" width="762.5" height="479.7"/>
		</defs>
		<clipPath id="SVGID_220_">
			<use xlink:href="#SVGID_219_"  style="overflow:visible;"/>
		</clipPath>
		<path class="st27" d="M335.2,376.4c0-2.9,2.8-2.6,3.6-1.7c0.9,0.9,1,4-1.5,4c-0.6,0-1.1-0.2-1.4-0.5
			C335.4,377.8,335.2,377.2,335.2,376.4"/>
	</g>
	<g>
		<defs>
			<rect id="SVGID_221_" x="-39" y="355.8" width="762.5" height="479.7"/>
		</defs>
		<clipPath id="SVGID_222_">
			<use xlink:href="#SVGID_221_"  style="overflow:visible;"/>
		</clipPath>
		<path class="st28" d="M528.3,484.8c0,1.7-0.6,3.1-1.9,4c-1.3,0.9-3.1,1.4-5.5,1.4c-2.5,0-4.4-0.4-5.8-1.2v-2.6
			c0.9,0.5,1.9,0.8,2.9,1.1c1,0.3,2,0.4,3,0.4c1.5,0,2.6-0.2,3.4-0.7c0.8-0.5,1.2-1.2,1.2-2.2c0-0.7-0.3-1.4-0.9-1.9
			c-0.6-0.5-1.9-1.1-3.7-1.8c-1.7-0.7-3-1.2-3.7-1.7s-1.3-1-1.6-1.6c-0.4-0.6-0.5-1.3-0.5-2.2c0-1.5,0.6-2.7,1.9-3.6
			c1.2-0.9,2.9-1.3,5.1-1.3c2,0,4,0.4,5.9,1.2l-1,2.3c-1.9-0.8-3.6-1.2-5.1-1.2c-1.3,0-2.4,0.2-3,0.6c-0.7,0.4-1,1-1,1.7
			c0,0.5,0.1,0.9,0.4,1.3c0.3,0.4,0.7,0.7,1.2,1c0.6,0.3,1.7,0.8,3.3,1.4c2.2,0.8,3.7,1.6,4.5,2.4
			C527.9,482.5,528.3,483.6,528.3,484.8"/>
	</g>
	<g>
		<defs>
			<rect id="SVGID_223_" x="-39" y="355.8" width="762.5" height="479.7"/>
		</defs>
		<clipPath id="SVGID_224_">
			<use xlink:href="#SVGID_223_"  style="overflow:visible;"/>
		</clipPath>
		<path class="st29" d="M540.4,490.2c-2.7,0-4.8-0.8-6.3-2.5c-1.5-1.7-2.2-4-2.2-7.1c0-3.1,0.8-5.5,2.3-7.3c1.5-1.7,3.7-2.6,6.4-2.6
			c0.9,0,1.8,0.1,2.7,0.3c0.9,0.2,1.6,0.4,2.1,0.7l-0.9,2.4c-0.6-0.3-1.3-0.5-2-0.6c-0.7-0.2-1.4-0.2-2-0.2c-3.8,0-5.7,2.4-5.7,7.3
			c0,2.3,0.5,4.1,1.4,5.3c0.9,1.2,2.3,1.8,4.1,1.8c1.6,0,3.2-0.3,4.8-1v2.5C543.8,489.9,542.3,490.2,540.4,490.2"/>
	</g>
	<g>
		<defs>
			<rect id="SVGID_225_" x="-39" y="355.8" width="762.5" height="479.7"/>
		</defs>
		<clipPath id="SVGID_226_">
			<use xlink:href="#SVGID_225_"  style="overflow:visible;"/>
		</clipPath>
		<path class="st30" d="M558.1,470.8c0.8,0,1.6,0.1,2.2,0.2l-0.4,2.6c-0.8-0.2-1.5-0.3-2-0.3c-1.5,0-2.8,0.6-3.9,1.8
			c-1.1,1.2-1.6,2.8-1.6,4.6v10h-2.8V471h2.3l0.3,3.5h0.1c0.7-1.2,1.5-2.2,2.5-2.8C555.8,471.2,556.9,470.8,558.1,470.8"/>
	</g>
	<g>
		<defs>
			<rect id="SVGID_227_" x="-39" y="355.8" width="762.5" height="479.7"/>
		</defs>
		<clipPath id="SVGID_228_">
			<use xlink:href="#SVGID_227_"  style="overflow:visible;"/>
		</clipPath>
		<path class="st31" d="M578.7,475.3h-15.9 M578.7,482.2h-15.9"/>
	</g>
	<g>
		<defs>
			<rect id="SVGID_229_" x="-39" y="355.8" width="762.5" height="479.7"/>
		</defs>
		<clipPath id="SVGID_230_">
			<use xlink:href="#SVGID_229_"  style="overflow:visible;"/>
		</clipPath>
		<path class="st32" d="M585.4,485.8c2.5,0,2.4,3.1,1.5,4c-0.7,0.8-2.2,0.8-3,0.1C583.1,489.1,582.8,485.8,585.4,485.8"/>
	</g>
	<g>
		<defs>
			<rect id="SVGID_231_" x="-39" y="355.8" width="762.5" height="479.7"/>
		</defs>
		<clipPath id="SVGID_232_">
			<use xlink:href="#SVGID_231_"  style="overflow:visible;"/>
		</clipPath>
		<path class="st33" d="M593.2,486.4c0.8-0.9,3.6-1.1,3.6,1.7c0,2.6-2.5,2.7-3.5,1.8C592.5,489.2,592.5,487.2,593.2,486.4"/>
	</g>
	<g>
		<defs>
			<rect id="SVGID_233_" x="-39" y="355.8" width="762.5" height="479.7"/>
		</defs>
		<clipPath id="SVGID_234_">
			<use xlink:href="#SVGID_233_"  style="overflow:visible;"/>
		</clipPath>
		<path class="st34" d="M602,488.1c0-2.9,2.8-2.6,3.6-1.7c0.9,0.9,1,4-1.5,4c-0.6,0-1.1-0.2-1.4-0.5
			C602.2,489.5,602,488.9,602,488.1"/>
	</g>
	<g>
		<defs>
			<rect id="SVGID_235_" x="-39" y="355.8" width="762.5" height="479.7"/>
		</defs>
		<clipPath id="SVGID_236_">
			<use xlink:href="#SVGID_235_"  style="overflow:visible;"/>
		</clipPath>
	</g>
	<g>
		<defs>
			<rect id="SVGID_237_" x="-39" y="355.8" width="762.5" height="479.7"/>
		</defs>
		<clipPath id="SVGID_238_">
			<use xlink:href="#SVGID_237_"  style="overflow:visible;"/>
		</clipPath>
	</g>
	<g>
		<defs>
			<rect id="SVGID_239_" x="-39" y="355.8" width="762.5" height="479.7"/>
		</defs>
		<clipPath id="SVGID_240_">
			<use xlink:href="#SVGID_239_"  style="overflow:visible;"/>
		</clipPath>
	</g>
	<g>
		<defs>
			<rect id="SVGID_241_" x="-39" y="355.8" width="762.5" height="479.7"/>
		</defs>
		<clipPath id="SVGID_242_">
			<use xlink:href="#SVGID_241_"  style="overflow:visible;"/>
		</clipPath>
		<path class="st35" d="M81.8,517.9H55.7 M81.8,529.3H55.7"/>
	</g>
	<g>
		<defs>
			<rect id="SVGID_243_" x="-39" y="355.8" width="762.5" height="479.7"/>
		</defs>
		<clipPath id="SVGID_244_">
			<use xlink:href="#SVGID_243_"  style="overflow:visible;"/>
		</clipPath>
		<line class="st36" x1="42.7" y1="500.9" x2="42.7" y2="530.6"/>
	</g>
	<g>
		<defs>
			<rect id="SVGID_245_" x="-39" y="355.8" width="762.5" height="479.7"/>
		</defs>
		<clipPath id="SVGID_246_">
			<use xlink:href="#SVGID_245_"  style="overflow:visible;"/>
		</clipPath>
		<line class="st37" x1="42.7" y1="538.8" x2="42.7" y2="540.5"/>
	</g>
	<g>
		<defs>
			<rect id="SVGID_247_" x="-39" y="355.8" width="762.5" height="479.7"/>
		</defs>
		<clipPath id="SVGID_248_">
			<use xlink:href="#SVGID_247_"  style="overflow:visible;"/>
		</clipPath>
	</g>
	<g>
		<defs>
			<rect id="SVGID_249_" x="-39" y="355.8" width="762.5" height="479.7"/>
		</defs>
		<clipPath id="SVGID_250_">
			<use xlink:href="#SVGID_249_"  style="overflow:visible;"/>
		</clipPath>
	</g>
	<g>
		<defs>
			<rect id="SVGID_251_" x="-39" y="355.8" width="762.5" height="479.7"/>
		</defs>
		<clipPath id="SVGID_252_">
			<use xlink:href="#SVGID_251_"  style="overflow:visible;"/>
		</clipPath>
	</g>
</g>
<g>
	<polygon class="st3" points="494.9,566.8 488.2,604.9 460.2,589.3 449,599.8 486.3,629.4 509.3,604.3 	"/>
	<path class="st6" d="M583,822.3v7.4c0,2.5-1.8,4.5-4.1,4.5h-41.4c-3.5,0-5.6-4.4-3.5-7.6c2.6-3.8,19.3-8.2,28.2-11.3l16.7-0.6
		L583,822.3z"/>
	<path class="st6" d="M465.9,822.7v7.4c0,2.5-1.8,4.5-4.1,4.5h-41.4c-3.5,0-5.6-4.4-3.5-7.6c2.6-3.8,19.3-8.2,28.2-11.3l16.7-0.6
		L465.9,822.7z"/>
	<polygon class="st6" points="488.8,660.9 444,816.5 465.5,823.2 522.2,686.4 499.2,660.9 	"/>
	<path class="st5" d="M540,660.9h-45.3l64.6,155.4l23.6,6.3l-39.8-129C543.1,693.6,542,675,540,660.9z"/>
	<path class="st7" d="M496.7,558.6c0,0-18.6,68-14.5,103.1l62.5,0.8c0,0,0.3-32.1-2.3-59.9c-1.6-17-7.9-32.8-23.7-43.8l-0.4-0.3
		L496.7,558.6z"/>
	<path class="st6" d="M474.5,510.4c0,0-0.4-17.9,15.4-19.5c31.6-3.3,42.9,26.4,27.9,46.6c-15,20.2-35.4-15.5-35.4-15.5L474.5,510.4z
		"/>
	<path class="st8" d="M474.7,525.8c0,14.5,4.3,26.1,16.2,26.1c2,0,4.1-0.4,6-1v7.5h20.9v-21c0,0-17.2-4.8-18.1-10.3v2.9l-4.8,1.5
		l-0.8-13.2c0-2.6-5-4.8-7.6-5c-4.6-0.4-11.2-1.2-12-3.1L474.7,525.8z"/>
	<ellipse class="st8" cx="504.9" cy="529.4" rx="5.8" ry="6.1"/>
	<path class="st8" d="M496.9,551v7.5h20.9v-21C512.2,548.3,496.9,551,496.9,551z"/>
	<path class="st8" d="M460.1,589.3l-9-14.6c-1-1.6-3.1-2-4.6-0.9l0,0c-4.1,2.9-5.9,8.1-4.4,12.8c1.4,4.8,3.7,10.4,6.8,13.2
		L460.1,589.3z"/>
	<path class="st6" d="M448.2,560.7h-8.5c-1.2,0-2,0.9-1.6,1.9l7.9,23.3c0.4,1,1.7,1.9,2.9,1.9h8.5c2,0,3.4,3.4,1.6-1.9l-7.9-23.3
		C450.7,561.5,449.4,560.7,448.2,560.7z"/>
	<path class="st8" d="M460.2,589.4l1.3-5.8c0.6-1.5,0.1-3.2-1.4-4l-3.1-1.8c-0.9-0.5-2.1-0.3-2.8,0.6l0,0c-0.7,1-0.5,2.4,0.5,3
		l1.4,0.9l1.5,0.9l-2.9,5.2L460.2,589.4z"/>
	<path class="st38" d="M503.2,689.4l-3.8,9.5c-0.5,1,0,2.2,1.2,2.8l0,0c1.1,0.6,2.5,0.4,3.4-0.4l2.1-3.8l-0.7,10.9
		c0,1.9,1.8,3.4,3.9,3.4h5c2.2,0,3.9-1.5,3.9-3.4v-17.1L503.2,689.4z"/>
	<path class="st8" d="M518.3,691.3v17.1c0,1.8-1.8,3.4-3.9,3.4h-5c-2.2,0-3.9-1.5-3.9-3.4l0.3-5.4l0.3-4.8l0-0.7l-0.4,0.7h-6
		l3.5-8.8L518.3,691.3z"/>
	<path class="st7" d="M502.2,587.6l6.4,28.8l-8.5,76.6h20.2l13.3-79.5l-6.9-32.2c-1.5-6.9-7.6-11.4-14-10.4h0
		C505.3,572.2,500.5,579.8,502.2,587.6z"/>
	<path class="st3" d="M482.8,661.7l20.8,0.3l5-45.6l-6.4-28.8c-0.2-1.1-0.3-2.1-0.3-3.2c0-6.5,4.4-12.4,10.6-13.4
		c-1.2-0.2-2.5-0.2-3.8,0c-6.2,1-10.7,6.9-10.7,13.4c0,1.1,0.1,2.1,0.3,3.2l6.2,27.5c0.6,2.5,0.2,5.2-1,7.5L482.8,661.7z"/>
	<path class="st3" d="M527.7,662.3l8.7-48.8l-6.8-32.2c-1.5-6.9-6.1-11.4-12.5-10.3c-0.1,0-0.3,0-0.4,0.1c4.7,1,8.7,4.9,9.9,10.3
		l6.9,32.2l-8.1,48.8L527.7,662.3z"/>
	<path class="st3" d="M523.8,562.7h-28.1c0.5-2.1,0.9-3.5,1-3.9l0.1-0.2l0.1-0.1l20.7-6.2L523.8,562.7z"/>
	<path class="st3" d="M525.2,698.2h-27c-2.1,0-3.8,1.7-3.8,3.8v10.6h4.9v-8c0-0.9,0.7-1.6,1.6-1.6h21.4c0.9,0,1.6,0.7,1.6,1.6v8h5
		V702C529,699.9,527.3,698.2,525.2,698.2z"/>
	<rect x="494.5" y="709.8" class="st39" width="4.9" height="2.7"/>
	<rect x="524.1" y="709.8" class="st39" width="5" height="2.7"/>
	<path class="st8" d="M506,698.2l-0.3,4.8h12.6v-4.8H506z"/>
	<path class="st7" d="M550.7,712.6H473c-1.8,0-3.2,1.4-3.2,3.2v48.7c0,1.8,1.4,3.2,3.2,3.2h77.7c1.8,0,3.2-1.4,3.2-3.2v-48.7
		C554,714,552.5,712.6,550.7,712.6z"/>
	<path class="st3" d="M546.2,712.6h-68.5c-4.3,0-7.8,3.5-7.8,7.8l40.9,22.9l43.2-22.9C554,716,550.5,712.6,546.2,712.6z"/>
	<rect x="499.4" y="712.6" class="st40" width="24.7" height="2"/>
	<path class="st5" d="M510.7,729.9L510.7,729.9c-2.5,0-4.5,2-4.5,4.5v10.1c0,2.5,2,4.5,4.5,4.5l0,0c2.5,0,4.5-2,4.5-4.5v-10.1
		C515.2,731.9,513.2,729.9,510.7,729.9z"/>
	<circle class="st4" cx="510.7" cy="743.3" r="2.7"/>
</g>
</svg>
