<?xml version="1.0" encoding="utf-8"?>
<!-- Generator: Adobe Illustrator 19.0.0, SVG Export Plug-In . SVG Version: 6.00 Build 0)  -->
<svg version="1.1" id="Layer_1" xmlns="http://www.w3.org/2000/svg" xmlns:xlink="http://www.w3.org/1999/xlink" x="0px" y="0px"
	 width="762.5px" height="479.7px" viewBox="-39 355.8 762.5 479.7" style="enable-background:new -39 355.8 762.5 479.7;"
	 xml:space="preserve">
<style type="text/css">
	.st0{fill:#D7D0FF;stroke:#4B3AAD;stroke-width:2.5;stroke-miterlimit:10;}
	.st1{fill:#FFFFFF;stroke:#4B3AAD;stroke-width:2.5;stroke-miterlimit:10;}
	.st2{fill:none;stroke:#FFFFFF;stroke-width:2.5;stroke-linecap:round;stroke-linejoin:round;stroke-miterlimit:10;}
	.st3{fill:none;stroke:#4C3AAD;stroke-width:2.5;stroke-linecap:round;stroke-linejoin:round;stroke-miterlimit:10;}
	
		.st4{clip-path:url(#SVGID_2_);fill:none;stroke:#D7D0FF;stroke-width:2.5;stroke-linecap:round;stroke-linejoin:round;stroke-miterlimit:10;}
	
		.st5{clip-path:url(#SVGID_4_);fill:none;stroke:#FFFFFF;stroke-width:2.5;stroke-linecap:round;stroke-linejoin:round;stroke-miterlimit:10;}
	
		.st6{clip-path:url(#SVGID_6_);fill:none;stroke:#FFFFFF;stroke-width:2.5;stroke-linecap:round;stroke-linejoin:round;stroke-miterlimit:10;}
	
		.st7{clip-path:url(#SVGID_8_);fill:none;stroke:#4C3AAD;stroke-width:2.5;stroke-linecap:round;stroke-linejoin:round;stroke-miterlimit:10;}
	
		.st8{clip-path:url(#SVGID_10_);fill:none;stroke:#4C3AAD;stroke-width:2.5;stroke-linecap:round;stroke-linejoin:round;stroke-miterlimit:10;}
	
		.st9{clip-path:url(#SVGID_12_);fill:none;stroke:#4C3AAD;stroke-width:2.5;stroke-linecap:round;stroke-linejoin:round;stroke-miterlimit:10;}
	
		.st10{clip-path:url(#SVGID_14_);fill:none;stroke:#4C3AAD;stroke-width:2.5;stroke-linecap:round;stroke-linejoin:round;stroke-miterlimit:10;}
	
		.st11{clip-path:url(#SVGID_16_);fill:none;stroke:#4C3AAD;stroke-width:2.5;stroke-linecap:round;stroke-linejoin:round;stroke-miterlimit:10;}
	
		.st12{clip-path:url(#SVGID_18_);fill:none;stroke:#4C3AAD;stroke-width:2.5;stroke-linecap:round;stroke-linejoin:round;stroke-miterlimit:10;}
	
		.st13{clip-path:url(#SVGID_20_);fill:none;stroke:#4C3AAD;stroke-width:2.5;stroke-linecap:round;stroke-linejoin:round;stroke-miterlimit:10;}
	
		.st14{clip-path:url(#SVGID_22_);fill:none;stroke:#4C3AAD;stroke-width:2.5;stroke-linecap:round;stroke-linejoin:round;stroke-miterlimit:10;}
	
		.st15{clip-path:url(#SVGID_24_);fill:none;stroke:#4C3AAD;stroke-width:2.5;stroke-linecap:round;stroke-linejoin:round;stroke-miterlimit:10;}
	.st16{clip-path:url(#SVGID_26_);fill:#4C3AAD;}
	.st17{clip-path:url(#SVGID_28_);fill:#4C3AAD;}
	.st18{clip-path:url(#SVGID_30_);fill:#4C3AAD;}
	.st19{clip-path:url(#SVGID_32_);fill:#4C3AAD;}
	.st20{clip-path:url(#SVGID_34_);fill:#4C3AAD;}
	.st21{clip-path:url(#SVGID_36_);fill:#4C3AAD;}
	.st22{clip-path:url(#SVGID_38_);fill:#4C3AAD;}
	.st23{clip-path:url(#SVGID_40_);fill:#4C3AAD;}
	.st24{clip-path:url(#SVGID_42_);fill:#4C3AAD;}
	.st25{clip-path:url(#SVGID_44_);fill:#4C3AAD;}
	.st26{clip-path:url(#SVGID_46_);fill:none;stroke:#4C3AAD;stroke-miterlimit:10;}
	
		.st27{clip-path:url(#SVGID_48_);fill:none;stroke:#4C3AAD;stroke-width:2.5;stroke-linecap:round;stroke-linejoin:round;stroke-miterlimit:10;}
	
		.st28{clip-path:url(#SVGID_50_);fill:none;stroke:#4C3AAD;stroke-width:2.5;stroke-linecap:round;stroke-linejoin:round;stroke-miterlimit:10;}
	
		.st29{clip-path:url(#SVGID_52_);fill:none;stroke:#4C3AAD;stroke-width:2.5;stroke-linecap:round;stroke-linejoin:round;stroke-miterlimit:10;}
	
		.st30{clip-path:url(#SVGID_54_);fill:none;stroke:#4C3AAD;stroke-width:2.5;stroke-linecap:round;stroke-linejoin:round;stroke-miterlimit:10;}
	
		.st31{clip-path:url(#SVGID_56_);fill:none;stroke:#4C3AAD;stroke-width:2.5;stroke-linecap:round;stroke-linejoin:round;stroke-miterlimit:10;}
	
		.st32{clip-path:url(#SVGID_58_);fill:none;stroke:#4C3AAD;stroke-width:2.5;stroke-linecap:round;stroke-linejoin:round;stroke-miterlimit:10;}
	.st33{fill:#4C3AAD;stroke:#4B3AAD;stroke-width:2.5;stroke-miterlimit:10;}
	.st34{fill:#D7D0FF;}
	.st35{fill:none;stroke:#4B3AAD;stroke-width:2.5;stroke-miterlimit:10;}
</style>
<g id="XMLID_97_">
	<rect id="XMLID_44_" x="504.5" y="510.9" class="st0" width="65.5" height="300.6"/>
	<rect id="XMLID_39_" x="504.5" y="736.7" class="st0" width="65.5" height="22.8"/>
	<circle id="XMLID_38_" class="st1" cx="549.3" cy="717.2" r="6.3"/>
	<circle id="XMLID_37_" class="st1" cx="525.2" cy="717.2" r="6.3"/>
</g>
<g id="XMLID_81_">
	<g id="XMLID_83_">
		<path id="XMLID_28_" class="st0" d="M463.8,819.4h-343c-9.4,0-17-7.6-17-17V554c0-9.4,7.6-17,17-17h343c9.4,0,17,7.6,17,17v248.3
			C480.8,811.8,473.2,819.4,463.8,819.4z"/>
		<path id="XMLID_27_" class="st0" d="M103.7,779v17.5c0,12.6,10.2,22.8,22.8,22.8h331.4c12.6,0,22.8-10.2,22.8-22.8V779H103.7z"/>
		<path id="XMLID_26_" class="st0" d="M461.9,645.2l18.9-86.6c0-11.9-9.7-21.6-21.6-21.6H125.3c-11.9,0-21.6,9.7-21.6,21.6
			l18.9,86.6c3.8,17.3,19.1,29.6,36.7,29.6h265.8C442.8,674.8,458.1,662.5,461.9,645.2z"/>
	</g>
</g>
<line class="st2" x1="422.5" y1="564" x2="435.2" y2="564"/>
<line class="st2" x1="422.5" y1="575.7" x2="435.2" y2="575.7"/>
<line class="st2" x1="422.5" y1="587.4" x2="435.2" y2="587.4"/>
<line class="st2" x1="422.5" y1="599.2" x2="435.2" y2="599.2"/>
<line class="st2" x1="422.5" y1="610.9" x2="435.2" y2="610.9"/>
<line class="st2" x1="422.5" y1="622.5" x2="435.2" y2="622.5"/>
<line class="st2" x1="422.5" y1="634.2" x2="435.2" y2="634.2"/>
<line class="st2" x1="422.5" y1="646" x2="435.2" y2="646"/>
<line class="st2" x1="422.5" y1="657.7" x2="435.2" y2="657.7"/>
<line class="st2" x1="422.5" y1="669.4" x2="435.2" y2="669.4"/>
<line class="st2" x1="422.5" y1="681" x2="435.2" y2="681"/>
<line class="st2" x1="422.5" y1="692.8" x2="435.2" y2="692.8"/>
<line class="st2" x1="422.5" y1="704.5" x2="435.2" y2="704.5"/>
<line class="st2" x1="450.4" y1="568.8" x2="481.5" y2="568.8"/>
<line class="st2" x1="450.4" y1="707.5" x2="481.5" y2="707.5"/>
<line class="st2" x1="465.2" y1="730.7" x2="488.4" y2="730.7"/>
<line class="st2" x1="462.7" y1="589" x2="499.3" y2="589"/>
<line class="st2" x1="366" y1="666" x2="403.6" y2="666"/>
<line class="st2" x1="457.6" y1="695.5" x2="495.2" y2="695.5"/>
<line class="st2" x1="451.4" y1="601.5" x2="489" y2="601.5"/>
<line class="st2" x1="422.3" y1="738" x2="491.4" y2="738"/>
<line class="st2" x1="321.8" y1="572.2" x2="368" y2="572.2"/>
<line class="st2" x1="337.1" y1="583" x2="398.6" y2="583"/>
<line class="st2" x1="337.1" y1="597.2" x2="398.6" y2="597.2"/>
<line class="st2" x1="337.1" y1="611.4" x2="398.6" y2="611.4"/>
<line class="st2" x1="337.1" y1="625.5" x2="398.6" y2="625.5"/>
<line class="st2" x1="337.1" y1="639.8" x2="398.6" y2="639.8"/>
<line class="st2" x1="337.1" y1="654" x2="398.6" y2="654"/>
<g>
	<g>
		<path class="st3" d="M260.4,420.9c-3.6,0.1-5.4,2-5.4,5.5v8.2c0,4-1.8,6.3-5.3,7.1v0.3c3.5,0.7,5.3,3.1,5.3,7.1v8.3
			c0,1.9,0.5,3.3,1.4,4.1c0.9,0.9,2.3,1.3,4.1,1.3"/>
	</g>
	<g>
		<path class="st3" d="M284.9,462.8c1.7,0,3.1-0.5,4-1.3c0.9-0.9,1.4-2.2,1.4-4.1v-8.3c0-2.1,0.4-3.7,1.3-4.8s2.2-1.9,4-2.2v-0.3
			c-3.5-0.7-5.3-3.1-5.3-7.1v-8.2c0-3.6-1.8-5.4-5.4-5.5"/>
	</g>
</g>
<g>
	<g>
		<g>
			<defs>
				<rect id="SVGID_1_" x="-39" y="355.8" width="762.5" height="479.7"/>
			</defs>
			<clipPath id="SVGID_2_">
				<use xlink:href="#SVGID_1_"  style="overflow:visible;"/>
			</clipPath>
			<line class="st4" x1="-37.8" y1="834.2" x2="722.3" y2="834.2"/>
		</g>
	</g>
	<g>
		<g>
			<defs>
				<rect id="SVGID_3_" x="-39" y="355.8" width="762.5" height="479.7"/>
			</defs>
			<clipPath id="SVGID_4_">
				<use xlink:href="#SVGID_3_"  style="overflow:visible;"/>
			</clipPath>
			<path class="st5" d="M533,635.2"/>
		</g>
		<g>
			<defs>
				<rect id="SVGID_5_" x="-39" y="355.8" width="762.5" height="479.7"/>
			</defs>
			<clipPath id="SVGID_6_">
				<use xlink:href="#SVGID_5_"  style="overflow:visible;"/>
			</clipPath>
			<path class="st6" d="M495.4,635.2"/>
		</g>
	</g>
	<g>
		<g>
			<defs>
				<rect id="SVGID_7_" x="-39" y="355.8" width="762.5" height="479.7"/>
			</defs>
			<clipPath id="SVGID_8_">
				<use xlink:href="#SVGID_7_"  style="overflow:visible;"/>
			</clipPath>
			<polyline class="st7" points="608.7,738.5 600.8,738.5 600.8,782.5 608,782.5 			"/>
		</g>
	</g>
	<g>
		<g>
			<defs>
				<rect id="SVGID_9_" x="-39" y="355.8" width="762.5" height="479.7"/>
			</defs>
			<clipPath id="SVGID_10_">
				<use xlink:href="#SVGID_9_"  style="overflow:visible;"/>
			</clipPath>
			<polyline class="st8" points="631.6,782.5 638.8,782.5 638.8,738.5 631,738.5 			"/>
		</g>
	</g>
	<g>
		<g>
			<defs>
				<rect id="SVGID_11_" x="-39" y="355.8" width="762.5" height="479.7"/>
			</defs>
			<clipPath id="SVGID_12_">
				<use xlink:href="#SVGID_11_"  style="overflow:visible;"/>
			</clipPath>
			<polyline class="st9" points="23.5,695.2 15.6,695.2 15.6,739.2 22.8,739.2 			"/>
		</g>
	</g>
	<g>
		<g>
			<defs>
				<rect id="SVGID_13_" x="-39" y="355.8" width="762.5" height="479.7"/>
			</defs>
			<clipPath id="SVGID_14_">
				<use xlink:href="#SVGID_13_"  style="overflow:visible;"/>
			</clipPath>
			<polyline class="st10" points="46.4,739.2 53.6,739.2 53.6,695.2 45.8,695.2 			"/>
		</g>
	</g>
	<g>
		<g>
			<defs>
				<rect id="SVGID_15_" x="-39" y="355.8" width="762.5" height="479.7"/>
			</defs>
			<clipPath id="SVGID_16_">
				<use xlink:href="#SVGID_15_"  style="overflow:visible;"/>
			</clipPath>
			<path class="st11" d="M484.7,383.2h-24.2 M484.7,393.9h-24.2"/>
		</g>
	</g>
	<g>
		<g>
			<defs>
				<rect id="SVGID_17_" x="-39" y="355.8" width="762.5" height="479.7"/>
			</defs>
			<clipPath id="SVGID_18_">
				<use xlink:href="#SVGID_17_"  style="overflow:visible;"/>
			</clipPath>
			<path class="st12" d="M520.9,383.2h-24.2 M520.9,393.9h-24.2"/>
		</g>
	</g>
	<g>
		<g>
			<defs>
				<rect id="SVGID_19_" x="-39" y="355.8" width="762.5" height="479.7"/>
			</defs>
			<clipPath id="SVGID_20_">
				<use xlink:href="#SVGID_19_"  style="overflow:visible;"/>
			</clipPath>
			<polyline class="st13" points="103.9,437.6 85.1,427.2 103.9,417 			"/>
		</g>
	</g>
	<g>
		<g>
			<defs>
				<rect id="SVGID_21_" x="-39" y="355.8" width="762.5" height="479.7"/>
			</defs>
			<clipPath id="SVGID_22_">
				<use xlink:href="#SVGID_21_"  style="overflow:visible;"/>
			</clipPath>
			<polyline class="st14" points="129.9,417 148.7,427.2 129.9,437.6 			"/>
		</g>
	</g>
	<g>
		<g>
			<defs>
				<rect id="SVGID_23_" x="-39" y="355.8" width="762.5" height="479.7"/>
			</defs>
			<clipPath id="SVGID_24_">
				<use xlink:href="#SVGID_23_"  style="overflow:visible;"/>
			</clipPath>
			<line class="st15" x1="125.6" y1="406.8" x2="109.6" y2="449.2"/>
		</g>
	</g>
	<g>
		<g>
			<defs>
				<rect id="SVGID_25_" x="-39" y="355.8" width="762.5" height="479.7"/>
			</defs>
			<clipPath id="SVGID_26_">
				<use xlink:href="#SVGID_25_"  style="overflow:visible;"/>
			</clipPath>
			<path class="st16" d="M634.5,509.2c0,1.7-0.6,3.1-1.9,4c-1.3,0.9-3.1,1.4-5.5,1.4c-2.5,0-4.4-0.4-5.8-1.2V511
				c0.9,0.5,1.9,0.8,2.9,1.1s2,0.4,3,0.4c1.5,0,2.6-0.2,3.4-0.7c0.8-0.5,1.2-1.2,1.2-2.2c0-0.7-0.3-1.4-0.9-1.9
				c-0.6-0.5-1.9-1.1-3.7-1.8c-1.7-0.7-3-1.2-3.7-1.7s-1.3-1-1.6-1.6c-0.4-0.6-0.5-1.3-0.5-2.2c0-1.5,0.6-2.7,1.9-3.6
				c1.2-0.9,2.9-1.3,5.1-1.3c2,0,4,0.4,5.9,1.2l-1,2.3c-1.9-0.8-3.6-1.2-5.1-1.2c-1.3,0-2.4,0.2-3,0.6c-0.7,0.4-1,1-1,1.7
				c0,0.5,0.1,0.9,0.4,1.3s0.7,0.7,1.2,1c0.6,0.3,1.7,0.8,3.3,1.4c2.2,0.8,3.7,1.6,4.5,2.4C634.1,507.1,634.5,508.1,634.5,509.2"/>
		</g>
	</g>
	<g>
		<g>
			<defs>
				<rect id="SVGID_27_" x="-39" y="355.8" width="762.5" height="479.7"/>
			</defs>
			<clipPath id="SVGID_28_">
				<use xlink:href="#SVGID_27_"  style="overflow:visible;"/>
			</clipPath>
			<path class="st17" d="M646.5,514.8c-2.7,0-4.8-0.8-6.3-2.5s-2.2-4-2.2-7.1s0.8-5.5,2.3-7.3c1.5-1.7,3.7-2.6,6.4-2.6
				c0.9,0,1.8,0.1,2.7,0.3c0.9,0.2,1.6,0.4,2.1,0.7l-0.9,2.4c-0.6-0.3-1.3-0.5-2-0.6c-0.7-0.2-1.4-0.2-2-0.2c-3.8,0-5.7,2.4-5.7,7.3
				c0,2.3,0.5,4.1,1.4,5.3c0.9,1.2,2.3,1.8,4.1,1.8c1.6,0,3.2-0.3,4.8-1v2.5C650,514.5,648.4,514.8,646.5,514.8"/>
		</g>
	</g>
	<g>
		<g>
			<defs>
				<rect id="SVGID_29_" x="-39" y="355.8" width="762.5" height="479.7"/>
			</defs>
			<clipPath id="SVGID_30_">
				<use xlink:href="#SVGID_29_"  style="overflow:visible;"/>
			</clipPath>
			<path class="st18" d="M664.2,495.4c0.8,0,1.6,0.1,2.2,0.2l-0.4,2.6c-0.7-0.2-1.4-0.2-2-0.2c-1.5,0-2.8,0.6-3.9,1.8
				c-1.1,1.2-1.6,2.8-1.6,4.6v10h-2.8v-18.7h2.3l0.3,3.5h0.1c0.8-1.2,1.6-2.2,2.6-2.8C662,495.7,663.1,495.4,664.2,495.4"/>
		</g>
	</g>
	<g>
		<g>
			<defs>
				<rect id="SVGID_31_" x="-39" y="355.8" width="762.5" height="479.7"/>
			</defs>
			<clipPath id="SVGID_32_">
				<use xlink:href="#SVGID_31_"  style="overflow:visible;"/>
			</clipPath>
			<path class="st19" d="M684.9,499.8H669 M684.9,506.8H669"/>
		</g>
	</g>
	<g>
		<g>
			<defs>
				<rect id="SVGID_33_" x="-39" y="355.8" width="762.5" height="479.7"/>
			</defs>
			<clipPath id="SVGID_34_">
				<use xlink:href="#SVGID_33_"  style="overflow:visible;"/>
			</clipPath>
			<path class="st20" d="M691.6,510.2c2.5,0,2.4,3.1,1.5,4c-0.7,0.8-2.2,0.8-3,0.1C689.3,513.5,689,510.2,691.6,510.2"/>
		</g>
	</g>
	<g>
		<g>
			<defs>
				<rect id="SVGID_35_" x="-39" y="355.8" width="762.5" height="479.7"/>
			</defs>
			<clipPath id="SVGID_36_">
				<use xlink:href="#SVGID_35_"  style="overflow:visible;"/>
			</clipPath>
			<path class="st21" d="M699.4,510.9c0.8-0.9,3.6-1.1,3.6,1.7c0,2.6-2.5,2.7-3.5,1.8C698.7,513.7,698.7,511.7,699.4,510.9"/>
		</g>
	</g>
	<g>
		<g>
			<defs>
				<rect id="SVGID_37_" x="-39" y="355.8" width="762.5" height="479.7"/>
			</defs>
			<clipPath id="SVGID_38_">
				<use xlink:href="#SVGID_37_"  style="overflow:visible;"/>
			</clipPath>
			<path class="st22" d="M708.2,512.5c0-2.9,2.8-2.6,3.6-1.7c0.9,0.9,1,4-1.5,4c-0.6,0-1.1-0.2-1.4-0.5
				C708.4,514,708.2,513.4,708.2,512.5"/>
		</g>
	</g>
	<g>
		<g>
			<defs>
				<rect id="SVGID_39_" x="-39" y="355.8" width="762.5" height="479.7"/>
			</defs>
			<clipPath id="SVGID_40_">
				<use xlink:href="#SVGID_39_"  style="overflow:visible;"/>
			</clipPath>
			<path class="st23" d="M-8.4,816.9c0,1.7-0.6,3.1-1.9,4s-3.1,1.4-5.5,1.4c-2.5,0-4.4-0.4-5.8-1.2v-2.6c0.9,0.5,1.9,0.8,2.9,1.1
				s2,0.4,3,0.4c1.5,0,2.6-0.2,3.4-0.7c0.8-0.5,1.2-1.2,1.2-2.2c0-0.7-0.3-1.4-0.9-1.9c-0.6-0.5-1.9-1.1-3.7-1.8
				c-1.7-0.7-3-1.2-3.7-1.7s-1.3-1-1.6-1.6c-0.4-0.6-0.5-1.3-0.5-2.2c0-1.5,0.6-2.7,1.9-3.6c1.2-0.9,2.9-1.3,5.1-1.3
				c2,0,4,0.4,5.9,1.2l-1,2.3c-1.9-0.8-3.6-1.2-5.1-1.2c-1.3,0-2.4,0.2-3,0.6c-0.7,0.4-1,1-1,1.7c0,0.5,0.1,0.9,0.4,1.3
				c0.3,0.4,0.7,0.7,1.2,1c0.6,0.3,1.7,0.8,3.3,1.4c2.2,0.8,3.7,1.6,4.5,2.4C-8.8,814.5-8.4,815.7-8.4,816.9"/>
		</g>
	</g>
	<g>
		<g>
			<defs>
				<rect id="SVGID_41_" x="-39" y="355.8" width="762.5" height="479.7"/>
			</defs>
			<clipPath id="SVGID_42_">
				<use xlink:href="#SVGID_41_"  style="overflow:visible;"/>
			</clipPath>
			<path class="st24" d="M3.7,822.2c-2.7,0-4.8-0.8-6.3-2.5s-2.2-4-2.2-7.1s0.8-5.5,2.3-7.3c1.5-1.7,3.7-2.6,6.4-2.6
				c0.9,0,1.8,0.1,2.7,0.3s1.6,0.4,2.1,0.7l-0.9,2.4c-0.6-0.3-1.3-0.5-2-0.6c-0.7-0.2-1.4-0.2-2-0.2c-3.8,0-5.7,2.4-5.7,7.3
				c0,2.3,0.5,4.1,1.4,5.3s2.3,1.8,4.1,1.8c1.6,0,3.2-0.3,4.8-1v2.5C7.1,822,5.6,822.2,3.7,822.2"/>
		</g>
	</g>
	<g>
		<g>
			<defs>
				<rect id="SVGID_43_" x="-39" y="355.8" width="762.5" height="479.7"/>
			</defs>
			<clipPath id="SVGID_44_">
				<use xlink:href="#SVGID_43_"  style="overflow:visible;"/>
			</clipPath>
			<path class="st25" d="M21.4,802.9c0.8,0,1.6,0.1,2.2,0.2l-0.4,2.6c-0.8-0.2-1.5-0.3-2-0.3c-1.5,0-2.8,0.6-3.9,1.8
				s-1.6,2.8-1.6,4.6v10h-2.8V803h2.3l0.3,3.5h0.1c0.7-1.2,1.5-2.2,2.5-2.8C19.1,803.2,20.2,802.9,21.4,802.9"/>
		</g>
	</g>
	<g>
		<g>
			<defs>
				<rect id="SVGID_45_" x="-39" y="355.8" width="762.5" height="479.7"/>
			</defs>
			<clipPath id="SVGID_46_">
				<use xlink:href="#SVGID_45_"  style="overflow:visible;"/>
			</clipPath>
			<path class="st26" d="M42,807.4H26.1"/>
		</g>
	</g>
	<g>
		<g>
			<defs>
				<rect id="SVGID_47_" x="-39" y="355.8" width="762.5" height="479.7"/>
			</defs>
			<clipPath id="SVGID_48_">
				<use xlink:href="#SVGID_47_"  style="overflow:visible;"/>
			</clipPath>
			<path class="st27" d="M81.8,518H55.7 M81.8,529.2H55.7"/>
		</g>
	</g>
	<g>
		<g>
			<defs>
				<rect id="SVGID_49_" x="-39" y="355.8" width="762.5" height="479.7"/>
			</defs>
			<clipPath id="SVGID_50_">
				<use xlink:href="#SVGID_49_"  style="overflow:visible;"/>
			</clipPath>
			<line class="st28" x1="42.7" y1="500.9" x2="42.7" y2="530.5"/>
		</g>
	</g>
	<g>
		<g>
			<defs>
				<rect id="SVGID_51_" x="-39" y="355.8" width="762.5" height="479.7"/>
			</defs>
			<clipPath id="SVGID_52_">
				<use xlink:href="#SVGID_51_"  style="overflow:visible;"/>
			</clipPath>
			<line class="st29" x1="42.7" y1="538.8" x2="42.7" y2="540.5"/>
		</g>
	</g>
	<g>
		<g>
			<defs>
				<rect id="SVGID_53_" x="-39" y="355.8" width="762.5" height="479.7"/>
			</defs>
			<clipPath id="SVGID_54_">
				<use xlink:href="#SVGID_53_"  style="overflow:visible;"/>
			</clipPath>
			<path class="st30" d="M661.4,609.5h-26.1 M661.4,620.8h-26.1"/>
		</g>
	</g>
	<g>
		<g>
			<defs>
				<rect id="SVGID_55_" x="-39" y="355.8" width="762.5" height="479.7"/>
			</defs>
			<clipPath id="SVGID_56_">
				<use xlink:href="#SVGID_55_"  style="overflow:visible;"/>
			</clipPath>
			<line class="st31" x1="622.3" y1="592.5" x2="622.3" y2="622"/>
		</g>
	</g>
	<g>
		<g>
			<defs>
				<rect id="SVGID_57_" x="-39" y="355.8" width="762.5" height="479.7"/>
			</defs>
			<clipPath id="SVGID_58_">
				<use xlink:href="#SVGID_57_"  style="overflow:visible;"/>
			</clipPath>
			<line class="st32" x1="622.3" y1="630.2" x2="622.3" y2="632"/>
		</g>
	</g>
</g>
<g id="XMLID_64_">
	<g id="XMLID_73_">
		<path id="XMLID_24_" class="st0" d="M238.4,483.8c21.6,0,53.7,17.5,53.7,39.1l3.9,13.9h-96.7v-13.9
			C199.2,501.2,216.8,483.8,238.4,483.8z"/>
		<path id="XMLID_21_" class="st33" d="M464.8,483.8c23.2,0,42.1,18.8,42.1,42.1c0,0,0.1,270.1,0.1,270.6
			c0,21.1,16.7,38.3,37.6,39.1H320c-23.2,0-42.1-18.8-42.1-42.1c0,0-0.1-270.1-0.1-270.6c0-21.1-16.7-38.3-37.6-39.1L464.8,483.8
			L464.8,483.8z"/>
		<path id="XMLID_20_" class="st0" d="M360.2,796.4v-13.9h225.4v13.9c0,21.6-17.5,39.1-39.1,39.1c-2.4,0-208.6,0-225.4,0
			C342.7,835.5,360.2,818,360.2,796.4z"/>
	</g>
	<g id="XMLID_65_">
		<polygon id="XMLID_17_" class="st1" points="323.7,752.8 336.3,742.4 349.6,752.8 349.6,717.4 323.7,717.4 		"/>
		<g id="XMLID_66_">
			<g id="XMLID_16_">
				<path class="st34" d="M363.5,703.9c0-5.1,1.1-10.6-1.3-14.8c-2.5-4.3-7.8-6.1-12.1-8.5c-4.2-2.4-8.3-6.2-13.5-6.2
					c-5.1,0-9.3,3.8-13.5,6.2c-4.3,2.5-9.6,4.3-12.1,8.5c-2.4,4.2-1.3,9.6-1.3,14.8c0,5.1-1.1,10.6,1.3,14.8
					c2.5,4.3,7.8,6.1,12.1,8.5c4.2,2.4,8.3,6.2,13.5,6.2c5.1,0,9.3-3.8,13.5-6.2c4.3-2.5,9.6-4.3,12.1-8.5
					C364.6,714.5,363.5,709,363.5,703.9z"/>
				<path class="st35" d="M363.5,703.9c0-5.1,1.1-10.6-1.3-14.8c-2.5-4.3-7.8-6.1-12.1-8.5c-4.2-2.4-8.3-6.2-13.5-6.2
					c-5.1,0-9.3,3.8-13.5,6.2c-4.3,2.5-9.6,4.3-12.1,8.5c-2.4,4.2-1.3,9.6-1.3,14.8c0,5.1-1.1,10.6,1.3,14.8
					c2.5,4.3,7.8,6.1,12.1,8.5c4.2,2.4,8.3,6.2,13.5,6.2c5.1,0,9.3-3.8,13.5-6.2c4.3-2.5,9.6-4.3,12.1-8.5
					C364.6,714.5,363.5,709,363.5,703.9z"/>
			</g>
			<circle id="XMLID_15_" class="st1" cx="336.6" cy="703.9" r="18.8"/>
			<path id="XMLID_14_" class="st1" d="M336.6,722.7c10.4,0,18.8-8.4,18.8-18.8c0-10.4-8.4-18.8-18.8-18.8"/>
		</g>
	</g>
</g>
<line class="st2" x1="420.6" y1="566.8" x2="433.3" y2="566.8"/>
<line class="st2" x1="420.6" y1="578.5" x2="433.3" y2="578.5"/>
<line class="st2" x1="420.6" y1="590.2" x2="433.3" y2="590.2"/>
<line class="st2" x1="420.6" y1="602" x2="433.3" y2="602"/>
<line class="st2" x1="420.6" y1="613.7" x2="433.3" y2="613.7"/>
<line class="st2" x1="420.6" y1="625.4" x2="433.3" y2="625.4"/>
<line class="st2" x1="420.6" y1="637" x2="433.3" y2="637"/>
<line class="st2" x1="420.6" y1="648.8" x2="433.3" y2="648.8"/>
<line class="st2" x1="420.6" y1="660.5" x2="433.3" y2="660.5"/>
<line class="st2" x1="420.6" y1="672.2" x2="433.3" y2="672.2"/>
<line class="st2" x1="420.6" y1="683.9" x2="433.3" y2="683.9"/>
<line class="st2" x1="420.6" y1="695.5" x2="433.3" y2="695.5"/>
<line class="st2" x1="420.6" y1="707.2" x2="433.3" y2="707.2"/>
<line class="st2" x1="420.6" y1="719" x2="433.3" y2="719"/>
<line class="st2" x1="420.6" y1="730.7" x2="433.3" y2="730.7"/>
<line class="st2" x1="420.6" y1="742.4" x2="433.3" y2="742.4"/>
<line class="st2" x1="448.5" y1="571.5" x2="479.6" y2="571.5"/>
<line class="st2" x1="448.5" y1="710.2" x2="479.6" y2="710.2"/>
<line class="st2" x1="463.3" y1="733.5" x2="486.5" y2="733.5"/>
<line class="st2" x1="460.8" y1="591.9" x2="497.4" y2="591.9"/>
<line class="st2" x1="294.9" y1="563" x2="341.1" y2="563"/>
<line class="st2" x1="319.9" y1="575" x2="366.1" y2="575"/>
<line class="st2" x1="335.2" y1="585.8" x2="396.7" y2="585.8"/>
<line class="st2" x1="335.2" y1="600" x2="396.7" y2="600"/>
<line class="st2" x1="335.2" y1="614.2" x2="396.7" y2="614.2"/>
<line class="st2" x1="335.2" y1="628.4" x2="396.7" y2="628.4"/>
<line class="st2" x1="335.2" y1="642.5" x2="396.7" y2="642.5"/>
<line class="st2" x1="335.2" y1="656.8" x2="396.7" y2="656.8"/>
<g id="XMLID_49_">
	<g id="XMLID_50_">
		<g id="XMLID_54_">
			<line id="XMLID_11_" class="st0" x1="346.5" y1="440.5" x2="346.5" y2="514.5"/>
			<path id="XMLID_10_" class="st0" d="M506.1,529.9l-76.3-4c-2.6-0.1-5.2-0.9-7.5-2.2l-70.7-39.2l10.2-34.7l154.6,45.4L506.1,529.9
				z"/>
			<path id="XMLID_8_" class="st0" d="M334,435.1l112-1.9c3-0.1,5.9,0.8,8.4,2.4l95.7,63.1c2.7,1.8,1.3,5.9-1.9,5.8l-111.4-5.6
				c-3.5-0.2-7-1.2-10.1-3l-94.2-54.6C329.5,439.6,330.7,435.1,334,435.1z"/>
			<path id="XMLID_7_" class="st0" d="M436.9,492.9c-2.8-0.1-5.7-1-8.1-2.4l-91.2-52.9l108.6-1.9c2,0,4,0.6,5.7,1.7l92.1,60.8
				L436.9,492.9z"/>
		</g>
		<path id="XMLID_6_" class="st0" d="M357.2,537.5h-10.6l-3.7-10.9l-2.3,10.9h-5.2v-20.1c0-6,4.9-10.9,10.9-10.9l0,0
			c6,0,10.9,4.9,10.9,10.9L357.2,537.5L357.2,537.5z"/>
	</g>
</g>
</svg>
