<?xml version="1.0" encoding="utf-8"?>
<!-- Generator: Adobe Illustrator 19.0.0, SVG Export Plug-In . SVG Version: 6.00 Build 0)  -->
<svg version="1.1" id="Layer_1" xmlns="http://www.w3.org/2000/svg" xmlns:xlink="http://www.w3.org/1999/xlink" x="0px" y="0px"
	 viewBox="0 0 762.5 479.7" style="enable-background:new 0 0 762.5 479.7;" xml:space="preserve">
<style type="text/css">
	.st0{clip-path:url(#SVGID_2_);fill:#FFFFFF;}
	
		.st1{clip-path:url(#SVGID_2_);fill:none;stroke:#4C3AAD;stroke-width:2.5;stroke-linecap:round;stroke-linejoin:round;stroke-miterlimit:10;}
	.st2{fill:#4C3AAD;}
	
		.st3{clip-path:url(#SVGID_4_);fill:none;stroke:#D7D0FF;stroke-width:2.5;stroke-linecap:round;stroke-linejoin:round;stroke-miterlimit:10;}
	.st4{clip-path:url(#SVGID_4_);fill:#D7D0FF;}
	
		.st5{clip-path:url(#SVGID_4_);fill:none;stroke:#4C3AAD;stroke-width:2.5;stroke-linecap:round;stroke-linejoin:round;stroke-miterlimit:10;}
	.st6{clip-path:url(#SVGID_4_);fill:#4C3AAD;}
	
		.st7{clip-path:url(#SVGID_4_);fill:none;stroke:#FFFFFF;stroke-width:2.5;stroke-linecap:round;stroke-linejoin:round;stroke-miterlimit:10;}
	.st8{clip-path:url(#SVGID_4_);fill:#FFFFFF;}
	
		.st9{clip-path:url(#SVGID_4_);fill:none;stroke:#1F75BF;stroke-width:2.5;stroke-linecap:round;stroke-linejoin:round;stroke-miterlimit:10;}
	.st10{clip-path:url(#SVGID_4_);fill:#6EC0FF;}
	.st11{clip-path:url(#SVGID_4_);fill:none;stroke:#4C3AAD;stroke-miterlimit:10;}
</style>
<g>
	<defs>
		<rect id="SVGID_1_" width="762.5" height="479.7"/>
	</defs>
	<clipPath id="SVGID_2_">
		<use xlink:href="#SVGID_1_"  style="overflow:visible;"/>
	</clipPath>
	<path class="st0" d="M710.5,329.2C710.5,147.4,563.1,0,381.3,0C199.4,0,52,147.4,52,329.2c0,53.7,12.9,104.4,35.7,149.2h587.1
		C697.6,433.7,710.5,383,710.5,329.2"/>
	<path class="st1" d="M274.5,76.7c-3.6,0.1-5.4,2-5.4,5.5v8.2c0,4-1.8,6.3-5.3,7.1v0.3c3.5,0.7,5.3,3.1,5.3,7.1v8.3
		c0,1.9,0.5,3.3,1.4,4.1c0.9,0.9,2.3,1.3,4.1,1.3"/>
	<path class="st1" d="M299,118.6c1.7,0,3.1-0.5,4-1.3c0.9-0.9,1.4-2.2,1.4-4.1v-8.3c0-2.1,0.4-3.7,1.3-4.8c0.9-1.1,2.2-1.9,4-2.2
		v-0.3c-3.5-0.7-5.3-3.1-5.3-7.1v-8.2c0-3.6-1.8-5.4-5.4-5.5"/>
</g>
<path class="st2" d="M1.3,478.5h760H1.3z"/>
<g>
	<defs>
		<rect id="SVGID_3_" width="762.5" height="479.7"/>
	</defs>
	<clipPath id="SVGID_4_">
		<use xlink:href="#SVGID_3_"  style="overflow:visible;"/>
	</clipPath>
	<line class="st3" x1="1.2" y1="478.5" x2="761.3" y2="478.5"/>
	<path class="st4" d="M631.7,452.4H150.1V179.7c0-12.8,10.4-23.2,23.2-23.2h435.2c12.8,0,23.2,10.4,23.2,23.2V452.4z"/>
	<path class="st5" d="M631.7,452.4H150.1V179.7c0-12.8,10.4-23.2,23.2-23.2h435.2c12.8,0,23.2,10.4,23.2,23.2V452.4z"/>
	<rect x="174.7" y="187.5" class="st6" width="432.3" height="233.8"/>
	<rect x="174.7" y="187.5" class="st3" width="432.3" height="233.8"/>
	<path class="st4" d="M397.2,172.9c0,3.5-2.8,6.3-6.3,6.3c-3.5,0-6.3-2.8-6.3-6.3c0-3.5,2.8-6.3,6.3-6.3
		C394.3,166.6,397.2,169.4,397.2,172.9"/>
	<path class="st5" d="M397.2,172.9c0,3.5-2.8,6.3-6.3,6.3c-3.5,0-6.3-2.8-6.3-6.3c0-3.5,2.8-6.3,6.3-6.3
		C394.3,166.6,397.2,169.4,397.2,172.9z"/>
	<line class="st7" x1="319.4" y1="210.2" x2="332.1" y2="210.2"/>
	<line class="st7" x1="319.4" y1="221.9" x2="332.1" y2="221.9"/>
	<line class="st7" x1="319.4" y1="233.6" x2="332.1" y2="233.6"/>
	<line class="st7" x1="319.4" y1="245.4" x2="332.1" y2="245.4"/>
	<line class="st7" x1="319.4" y1="257.1" x2="332.1" y2="257.1"/>
	<line class="st7" x1="319.4" y1="268.8" x2="332.1" y2="268.8"/>
	<line class="st7" x1="319.4" y1="280.5" x2="332.1" y2="280.5"/>
	<line class="st7" x1="319.4" y1="292.2" x2="332.1" y2="292.2"/>
	<line class="st7" x1="319.4" y1="303.9" x2="332.1" y2="303.9"/>
	<line class="st7" x1="319.4" y1="315.6" x2="332.1" y2="315.6"/>
	<line class="st7" x1="319.4" y1="327.3" x2="332.1" y2="327.3"/>
	<line class="st7" x1="319.4" y1="339" x2="332.1" y2="339"/>
	<line class="st7" x1="319.4" y1="350.7" x2="332.1" y2="350.7"/>
	<line class="st7" x1="319.4" y1="362.4" x2="332.1" y2="362.4"/>
	<line class="st7" x1="319.4" y1="374.1" x2="332.1" y2="374.1"/>
	<line class="st7" x1="319.4" y1="385.8" x2="332.1" y2="385.8"/>
	<line class="st7" x1="347.3" y1="215" x2="378.4" y2="215"/>
	<line class="st7" x1="347.3" y1="353.7" x2="378.4" y2="353.7"/>
	<line class="st7" x1="362.1" y1="376.9" x2="385.3" y2="376.9"/>
	<line class="st7" x1="399.7" y1="376.9" x2="422.8" y2="376.9"/>
	<line class="st7" x1="437.2" y1="376.9" x2="460.4" y2="376.9"/>
	<line class="st7" x1="359.6" y1="235.3" x2="396.2" y2="235.3"/>
	<line class="st7" x1="377.4" y1="258" x2="415" y2="258"/>
	<line class="st7" x1="377.4" y1="303.8" x2="415" y2="303.8"/>
	<line class="st7" x1="429.7" y1="258" x2="467.3" y2="258"/>
	<line class="st7" x1="482.1" y1="258" x2="519.7" y2="258"/>
	<line class="st7" x1="534.4" y1="258" x2="572" y2="258"/>
	<line class="st7" x1="396.2" y1="279.5" x2="519.7" y2="279.5"/>
	<line class="st7" x1="396.2" y1="327.1" x2="591.3" y2="327.1"/>
	<line class="st7" x1="396.2" y1="343.3" x2="591.3" y2="343.3"/>
	<line class="st7" x1="534.4" y1="279.5" x2="572" y2="279.5"/>
	<line class="st7" x1="390.3" y1="215" x2="459.4" y2="215"/>
	<line class="st7" x1="193.7" y1="206.4" x2="239.9" y2="206.4"/>
	<line class="st7" x1="218.7" y1="218.4" x2="264.9" y2="218.4"/>
	<line class="st7" x1="234" y1="229.2" x2="295.5" y2="229.2"/>
	<line class="st7" x1="234" y1="243.4" x2="295.5" y2="243.4"/>
	<line class="st7" x1="234" y1="257.6" x2="295.5" y2="257.6"/>
	<line class="st7" x1="234" y1="271.8" x2="295.5" y2="271.8"/>
	<line class="st7" x1="234" y1="286" x2="295.5" y2="286"/>
	<line class="st7" x1="234" y1="300.2" x2="295.5" y2="300.2"/>
	<path class="st4" d="M573.7,403.9c2-2.4-16.3-21.1-14.3-24.1c2.6-3.9-16.1-5.5-14.1-15.2l18.1-64.3l-12.1,3
		c-13.7,4.4-14,8.1-19.9,22.5c-3.7,9-7.9,21.7-11.2,36.4c-1.4,6-1.7,12.2,1.9,17.9c0.7,1.1,9.9,10,21.4,13.4L573.7,403.9z"/>
	<path class="st5" d="M573.7,403.9c2-2.4-16.3-21.1-14.3-24.1c2.6-3.9-16.1-5.5-14.1-15.2l18.1-64.3l-12.1,3
		c-13.7,4.4-14,8.1-19.9,22.5c-3.7,9-7.9,21.7-11.2,36.4c-1.4,6-1.7,12.2,1.9,17.9c0.7,1.1,9.9,10,21.4,13.4L573.7,403.9z"/>
	<path class="st4" d="M606.3,407.2c-2-2.4,16.1-24.1,14.1-27.1c-2.6-3.9,17-13.3,15-23.1L621,303.2l6.5-1.1
		c8.8,1.9,15.6,6.9,19.4,18.2c4.2,12.6,6.5,18.3,12.3,39.2c1.7,5.9,4.1,15.3,0.6,21c-0.7,1.1-3.2,6.1-14.7,11.1L606.3,407.2z"/>
	<path class="st5" d="M606.3,407.2c-2-2.4,16.1-24.1,14.1-27.1c-2.6-3.9,17-13.3,15-23.1L621,303.2l6.5-1.1
		c8.8,1.9,15.6,6.9,19.4,18.2c4.2,12.6,6.5,18.3,12.3,39.2c1.7,5.9,4.1,15.3,0.6,21c-0.7,1.1-3.2,6.1-14.7,11.1L606.3,407.2z"/>
	<path class="st4" d="M631.6,303.2c-12.2-6.1-41.6-6-41.6-6s-19.8,0.7-28.8,3.3c-4.8,1.4-17.9,3.8-18.3,12.9
		c-0.6,13.9,10.9,75.3,12.5,94.9c0.2,2.9,1.4,6.9,4.4,6.9l62.6-0.3c3,0,5.5-2.2,5.7-5.1l9.5-86.8C637.7,323.1,639.1,307,631.6,303.2
		"/>
	<path class="st5" d="M631.6,303.2c-12.2-6.1-41.6-6-41.6-6s-19.8,0.7-28.8,3.3c-4.8,1.4-17.9,3.8-18.3,12.9
		c-0.6,13.9,10.9,75.3,12.5,94.9c0.2,2.9,1.4,6.9,4.4,6.9l62.6-0.3c3,0,5.5-2.2,5.7-5.1l9.5-86.8C637.7,323.1,639.1,307,631.6,303.2
		z"/>
	<path class="st4" d="M603.4,274.8l2.7,31c0,0-5.3,7.6-15.8,7.6c-10.9,0-15.1-7.2-15.1-7.2l2.6-31.5L603.4,274.8z"/>
	<path class="st5" d="M603.4,274.8l2.7,31c0,0-5.3,7.6-15.8,7.6c-10.9,0-15.1-7.2-15.1-7.2l2.6-31.5L603.4,274.8z"/>
	<path class="st8" d="M619,258.5c-2.6-0.4-2.7,0.8-3.6,2.1c0.2-3.6,0.3-6.1,0.3-6.1s0-24.6-26.3-24.2c-27.5,0.4-25.4,25.4-25.4,25.4
		l0.1,2.7c-0.6-0.9-1.6-0.9-2.7-0.9c-5,0-4.7,7.4-4.5,9.9c0.3,3.6,2.8,14.6,7.8,13.4c1.5-0.3,0.6-3.6,0.7-3.8
		c1.1,9.5,6.4,29.3,24,29.6c3.4,0.1,19.2-1.6,23-23c0.1-0.5,1-3.8,0.6-1.8c0,0,4.3,0.7,7.3-6.7C623.3,267.9,623.7,259.3,619,258.5"
		/>
	<path class="st5" d="M619,258.5c-2.6-0.4-2.7,0.8-3.6,2.1c0.2-3.6,0.3-6.1,0.3-6.1s0-24.6-26.3-24.2c-27.5,0.4-25.4,25.4-25.4,25.4
		l0.1,2.7c-0.6-0.9-1.6-0.9-2.7-0.9c-5,0-4.7,7.4-4.5,9.9c0.3,3.6,2.8,14.6,7.8,13.4c1.5-0.3,0.6-3.6,0.7-3.8
		c1.1,9.5,6.4,29.3,24,29.6c3.4,0.1,19.2-1.6,23-23c0.1-0.5,1-3.8,0.6-1.8c0,0,4.3,0.7,7.3-6.7C623.3,267.9,623.7,259.3,619,258.5z"
		/>
	<path class="st4" d="M564,265.8c0,0-11.2-25.5-2.9-36.9c3.7-5,6.7-6.6,13.5-10c7.7-3.8,19.8-4.9,19.8-4.9s-2.8,1.5-5.7,3.5
		c-3.8,2.6,5.7,1.3,13,1.9c6,0.5,15,5.8,18,11.2c4.6,8.3-5,33.3-5,33.3s-0.6-12.4-6.3-15.1c-5.7-2.7-5.5,9.2-5.5,9.2
		s-24.8-10.3-29.7-12.3C569,244,565.3,250.1,564,265.8"/>
	<path class="st5" d="M564,265.8c0,0-11.2-25.5-2.9-36.9c3.7-5,6.7-6.6,13.5-10c7.7-3.8,19.8-4.9,19.8-4.9s-2.8,1.5-5.7,3.5
		c-3.8,2.6,5.7,1.3,13,1.9c6,0.5,15,5.8,18,11.2c4.6,8.3-5,33.3-5,33.3s-0.6-12.4-6.3-15.1c-5.7-2.7-5.5,9.2-5.5,9.2
		s-24.8-10.3-29.7-12.3C569,244,565.3,250.1,564,265.8z"/>
	<path class="st4" d="M566.5,426c0,0-16.1-3.7-26.9,1c-10.8,4.7-20.4,12.1-20.1,19.8c0.2,6.1,4.7,11.7,12.2,9.3
		c11.7-3.7,21-7.1,24.2-7.3c3.2-0.2,7.6,3.4,8.3-0.2c0.7-3.7-1.5-11-1.5-11s-0.7-2.4-3.4-3.7C556.8,432.6,566.5,426,566.5,426"/>
	<path class="st5" d="M566.5,426c0,0-16.1-3.7-26.9,1c-10.8,4.7-20.4,12.1-20.1,19.8c0.2,6.1,4.7,11.7,12.2,9.3
		c11.7-3.7,21-7.1,24.2-7.3c3.2-0.2,7.6,3.4,8.3-0.2c0.7-3.7-1.5-11-1.5-11s-0.7-2.4-3.4-3.7C556.8,432.6,566.5,426,566.5,426z"/>
	<path class="st4" d="M565.8,448c0.7-3.7-0.7-11-0.7-11s-0.2-2.9-5.6-3.2c-2.4-0.1,4-5.6,6.3-7.3c-6.8,0.5-16.2,1.5-22.3,4.2
		c-10.8,4.6-20.4,12.1-20.1,19.8c0.1,1.9,0.6,3.2,1.5,4.8c1.9,2,3.8,2.2,7.7,1.1c11.8-3.6,23.5-8.4,26.6-8.7
		C562.4,447.5,565.1,451.7,565.8,448"/>
	<path class="st5" d="M565.8,448c0.7-3.7-0.7-11-0.7-11s-0.2-2.9-5.6-3.2c-2.4-0.1,4-5.6,6.3-7.3c-6.8,0.5-16.2,1.5-22.3,4.2
		c-10.8,4.6-20.4,12.1-20.1,19.8c0.1,1.9,0.6,3.2,1.5,4.8c1.9,2,3.8,2.2,7.7,1.1c11.8-3.6,23.5-8.4,26.6-8.7
		C562.4,447.5,565.1,451.7,565.8,448z"/>
	<path class="st4" d="M542.7,453c6.4-2.4,9.5-2.9,11.8-3c3.2-0.2,8.5,4,9.2,0.3c0.7-3.7-0.8-11.2-0.8-11.2s-0.2-4.6-5.6-4.8
		c0,0-5.6,0.6-11.5,3.6"/>
	<path class="st5" d="M542.7,453c6.4-2.4,9.5-2.9,11.8-3c3.2-0.2,8.5,4,9.2,0.3c0.7-3.7-0.8-11.2-0.8-11.2s-0.2-4.6-5.6-4.8
		c0,0-5.6,0.6-11.5,3.6"/>
	<path class="st6" d="M668.2,418.8c-24.9,22.4-104.4,32-104.4,32l-3.5-20.2c0,0,80.4-37.1,89.2-39.7c8.8-2.7,18.2-2.1,23,8.9
		C675.2,406.2,672.6,414.9,668.2,418.8"/>
	<path class="st3" d="M668.2,418.8c-24.9,22.4-104.4,32-104.4,32l-3.5-20.2c0,0,80.4-37.1,89.2-39.7c8.8-2.7,18.2-2.1,23,8.9
		C675.2,406.2,672.6,414.9,668.2,418.8z"/>
	<polygon class="st8" points="606.2,443.8 633,449.8 629.8,433.3 607.3,425.7 	"/>
	<polygon class="st9" points="606.2,443.8 633,449.8 629.8,433.3 607.3,425.7 	"/>
	<path class="st4" d="M615.2,427.1c0,0,4.1-6.3,20.7-2.2c17.3,4.3,30,15,30,23.4c0,9-7.8,14.1-15.9,11.5c-12.7-4-21.9-9.1-25.3-9.4
		c-3.4-0.3-4-2.2-5.3-2.1c-4,0.2,1.7-5.8,1.7-5.8s9.1-9.5,12-10.8C636,430.4,615.2,427.1,615.2,427.1"/>
	<path class="st5" d="M615.2,427.1c0,0,4.1-6.3,20.7-2.2c17.3,4.3,30,15,30,23.4c0,9-7.8,14.1-15.9,11.5c-12.7-4-21.9-9.1-25.3-9.4
		c-3.4-0.3-4-2.2-5.3-2.1c-4,0.2,1.7-5.8,1.7-5.8s9.1-9.5,12-10.8C636,430.4,615.2,427.1,615.2,427.1z"/>
	<path class="st4" d="M622.3,444.7c2.6-1.8,3.6-6.9,3.6-6.9s0.8,0,3.5-2.7c2.8-2.8-13.5-7.5-13.3-7.4c7.4,0.5,17.5,1.7,24.1,4.6
		c11.6,5,18.7,8.4,19.9,16.6c0.5,3.1-1.5,5.9-2.7,7.6c-2.6,3.2-6.4,3.5-10.6,2.2c-12.7-3.9-25-9.7-28.4-10
		C614.9,448.5,620,446.4,622.3,444.7"/>
	<path class="st5" d="M622.3,444.7c2.6-1.8,3.6-6.9,3.6-6.9s0.8,0,3.5-2.7c2.8-2.8-13.5-7.5-13.3-7.4c7.4,0.5,17.5,1.7,24.1,4.6
		c11.6,5,18.7,8.4,19.9,16.6c0.5,3.1-1.5,5.9-2.7,7.6c-2.6,3.2-6.4,3.5-10.6,2.2c-12.7-3.9-25-9.7-28.4-10
		C614.9,448.5,620,446.4,622.3,444.7z"/>
	<path class="st4" d="M642.6,439.1c-5.1-2.4-13-4.8-13-4.8c-0.1,0-2-0.4-4.4,0.4c-2.2,0.8-3.7,3.1-3.7,3.1s-5.6,9.1-6.4,12.1
		c-0.2,0.9,0.3,2.3,2.5,2.3c2,0.2,3.6-1,4.9-0.9c2.8,0.2,7.5,1.9,16.2,4.7"/>
	<path class="st5" d="M642.6,439.1c-5.1-2.4-13-4.8-13-4.8c-0.1,0-2-0.4-4.4,0.4c-2.2,0.8-3.7,3.1-3.7,3.1s-5.6,9.1-6.4,12.1
		c-0.2,0.9,0.3,2.3,2.5,2.3c2,0.2,3.6-1,4.9-0.9c2.8,0.2,7.5,1.9,16.2,4.7"/>
	<path class="st6" d="M518.2,421c2.6,2,13,8.6,28.3,14.3c23.9,8.8,56.4,14.6,60.9,16.1l10.9-26.3c0,0-35.4-14.7-56.5-23.3
		c-10.9-4.4-27.3-16.4-38.8-14.7C514.1,388.4,498.6,405.8,518.2,421"/>
	<path class="st3" d="M518.2,421c2.6,2,13,8.6,28.3,14.3c23.9,8.8,56.4,14.6,60.9,16.1l10.9-26.3c0,0-35.4-14.7-56.5-23.3
		c-10.9-4.4-27.3-16.4-38.8-14.7C514.1,388.4,498.6,405.8,518.2,421z"/>
	<path class="st8" d="M637.4,412.8h-93.6v-58.1c0-2.5,2-4.5,4.5-4.5h84.6c2.5,0,4.5,2,4.5,4.5V412.8z"/>
	<path class="st5" d="M637.4,412.8h-93.6v-58.1c0-2.5,2-4.5,4.5-4.5h84.6c2.5,0,4.5,2,4.5,4.5V412.8z"/>
	<path class="st10" d="M594.8,380.9c0,2.3-1.9,4.2-4.2,4.2c-2.3,0-4.2-1.9-4.2-4.2c0-2.3,1.9-4.2,4.2-4.2
		C592.9,376.7,594.8,378.6,594.8,380.9"/>
	<circle class="st5" cx="590.6" cy="380.9" r="4.2"/>
	<path class="st7" d="M628.7,451.5c0,0,2.7-1.4,4.5-5.1c1.8-3.7,1.9-6,1.9-6"/>
	<path class="st7" d="M633.8,453.3c0,0,2.7-1.4,4.5-5.1c1.8-3.7,1.9-6,1.9-6"/>
	<path class="st7" d="M639,455.2c0,0,2.7-1.4,4.5-5.1c1.8-3.7,1.9-6,1.9-6"/>
	<path class="st7" d="M554.2,448c0,0-2.7-1.4-4.5-5.1c-1.8-3.7-1.9-6-1.9-6"/>
	<path class="st7" d="M549,449.8c0,0-2.7-1.4-4.5-5.1c-1.8-3.7-1.9-6-1.9-6"/>
	<path class="st7" d="M543.9,451.7c0,0-2.7-1.4-4.5-5.1c-1.8-3.7-1.9-6-1.9-6"/>
	<path class="st4" d="M668.1,466.5c-8.1,7.7-18.9,12-30,12H146.3c-11.2,0-22.1-4.1-30.6-11.4l-12.2-10.5c-2.3-2-0.9-5.7,2.1-5.7
		h570.1c3.1,0,4.7,3.8,2.4,6L668.1,466.5z"/>
	<path class="st5" d="M668.1,466.5c-8.1,7.7-18.9,12-30,12H146.3c-11.2,0-22.1-4.1-30.6-11.4l-12.2-10.5c-2.3-2-0.9-5.7,2.1-5.7
		h570.1c3.1,0,4.7,3.8,2.4,6L668.1,466.5z"/>
	<path class="st4" d="M315,451.1l8.9,7.2c4.6,3.7,10.4,5.8,16.3,5.8h86.2c5.9,0,11.7-2,16.3-5.8l9-7.2H315z"/>
	<path class="st5" d="M315,451.1l8.9,7.2c4.6,3.7,10.4,5.8,16.3,5.8h86.2c5.9,0,11.7-2,16.3-5.8l9-7.2H315z"/>
	<polyline class="st5" points="415.6,65.4 407.7,65.4 407.7,109.4 414.9,109.4 	"/>
	<polyline class="st5" points="438.5,109.4 445.7,109.4 445.7,65.4 437.9,65.4 	"/>
	<polyline class="st5" points="73.1,260.4 65.2,260.4 65.2,304.4 72.4,304.4 	"/>
	<polyline class="st5" points="96,304.4 103.2,304.4 103.2,260.4 95.4,260.4 	"/>
	<path class="st5" d="M523.7,27.4h-24.2 M523.7,38.1h-24.2"/>
	<path class="st5" d="M559.9,27.4h-24.2 M559.9,38.1h-24.2"/>
	<polyline class="st5" points="142.9,81.8 124.1,71.4 142.9,61.2 	"/>
	<polyline class="st5" points="168.9,61.2 187.7,71.4 168.9,81.8 	"/>
	<line class="st5" x1="164.6" y1="51" x2="148.6" y2="93.4"/>
	<path class="st6" d="M300.5,17.3c0,1.7-0.6,3.1-1.9,4c-1.3,0.9-3.1,1.4-5.5,1.4c-2.5,0-4.4-0.4-5.8-1.2V19c0.9,0.5,1.9,0.8,2.9,1.1
		c1,0.3,2,0.4,3,0.4c1.5,0,2.6-0.2,3.4-0.7c0.8-0.5,1.2-1.2,1.2-2.2c0-0.7-0.3-1.4-0.9-1.9c-0.6-0.5-1.9-1.1-3.7-1.8
		c-1.7-0.7-3-1.2-3.7-1.7c-0.7-0.5-1.3-1-1.6-1.6c-0.4-0.6-0.5-1.3-0.5-2.2c0-1.5,0.6-2.7,1.9-3.6c1.2-0.9,2.9-1.3,5.1-1.3
		c2,0,4,0.4,5.9,1.2l-1,2.3c-1.9-0.8-3.6-1.2-5.1-1.2c-1.3,0-2.4,0.2-3,0.6c-0.7,0.4-1,1-1,1.7c0,0.5,0.1,0.9,0.4,1.3
		c0.3,0.4,0.7,0.7,1.2,1c0.6,0.3,1.7,0.8,3.3,1.4c2.2,0.8,3.7,1.6,4.5,2.4C300.1,15.1,300.5,16.1,300.5,17.3"/>
	<path class="st6" d="M312.5,22.8c-2.7,0-4.8-0.8-6.3-2.5c-1.5-1.7-2.2-4-2.2-7.1c0-3.1,0.8-5.5,2.3-7.3c1.5-1.7,3.7-2.6,6.4-2.6
		c0.9,0,1.8,0.1,2.7,0.3c0.9,0.2,1.6,0.4,2.1,0.7l-0.9,2.4c-0.6-0.3-1.3-0.5-2-0.6c-0.7-0.2-1.4-0.2-2-0.2c-3.8,0-5.7,2.4-5.7,7.3
		c0,2.3,0.5,4.1,1.4,5.3c0.9,1.2,2.3,1.8,4.1,1.8c1.6,0,3.2-0.3,4.8-1v2.5C316,22.5,314.4,22.8,312.5,22.8"/>
	<path class="st6" d="M330.2,3.4c0.8,0,1.6,0.1,2.2,0.2l-0.4,2.6C331.3,6,330.6,6,330,6c-1.5,0-2.8,0.6-3.9,1.8
		c-1.1,1.2-1.6,2.8-1.6,4.6v10h-2.8V3.7h2.3l0.3,3.5h0.1C325.2,6,326,5,327,4.4C328,3.7,329.1,3.4,330.2,3.4"/>
	<path class="st6" d="M350.9,7.8H335 M350.9,14.8H335"/>
	<path class="st6" d="M357.6,18.3c2.5,0,2.4,3.1,1.5,4c-0.7,0.8-2.2,0.8-3,0.1C355.3,21.6,355,18.3,357.6,18.3"/>
	<path class="st6" d="M365.4,18.9c0.8-0.9,3.6-1.1,3.6,1.7c0,2.6-2.5,2.7-3.5,1.8C364.7,21.7,364.7,19.7,365.4,18.9"/>
	<path class="st6" d="M374.2,20.6c0-2.9,2.8-2.6,3.6-1.7c0.9,0.9,1,4-1.5,4c-0.6,0-1.1-0.2-1.4-0.5C374.4,22,374.2,21.4,374.2,20.6"
		/>
	<path class="st6" d="M567.3,129c0,1.7-0.6,3.1-1.9,4c-1.3,0.9-3.1,1.4-5.5,1.4c-2.5,0-4.4-0.4-5.8-1.2v-2.6
		c0.9,0.5,1.9,0.8,2.9,1.1c1,0.3,2,0.4,3,0.4c1.5,0,2.6-0.2,3.4-0.7c0.8-0.5,1.2-1.2,1.2-2.2c0-0.7-0.3-1.4-0.9-1.9
		c-0.6-0.5-1.9-1.1-3.7-1.8c-1.7-0.7-3-1.2-3.7-1.7c-0.7-0.5-1.3-1-1.6-1.6c-0.4-0.6-0.5-1.3-0.5-2.2c0-1.5,0.6-2.7,1.9-3.6
		c1.2-0.9,2.9-1.3,5.1-1.3c2,0,4,0.4,5.9,1.2l-1,2.3c-1.9-0.8-3.6-1.2-5.1-1.2c-1.3,0-2.4,0.2-3,0.6c-0.7,0.4-1,1-1,1.7
		c0,0.5,0.1,0.9,0.4,1.3c0.3,0.4,0.7,0.7,1.2,1c0.6,0.3,1.7,0.8,3.3,1.4c2.2,0.8,3.7,1.6,4.5,2.4C566.9,126.7,567.3,127.8,567.3,129
		"/>
	<path class="st6" d="M579.4,134.4c-2.7,0-4.8-0.8-6.3-2.5c-1.5-1.7-2.2-4-2.2-7.1c0-3.1,0.8-5.5,2.3-7.3c1.5-1.7,3.7-2.6,6.4-2.6
		c0.9,0,1.8,0.1,2.7,0.3c0.9,0.2,1.6,0.4,2.1,0.7l-0.9,2.4c-0.6-0.3-1.3-0.5-2-0.6c-0.7-0.2-1.4-0.2-2-0.2c-3.8,0-5.7,2.4-5.7,7.3
		c0,2.3,0.5,4.1,1.4,5.3c0.9,1.2,2.3,1.8,4.1,1.8c1.6,0,3.2-0.3,4.8-1v2.5C582.8,134.1,581.3,134.4,579.4,134.4"/>
	<path class="st6" d="M597.1,115c0.8,0,1.6,0.1,2.2,0.2l-0.4,2.6c-0.8-0.2-1.5-0.3-2-0.3c-1.5,0-2.8,0.6-3.9,1.8
		c-1.1,1.2-1.6,2.8-1.6,4.6v10h-2.8v-18.7h2.3l0.3,3.5h0.1c0.7-1.2,1.5-2.2,2.5-2.8C594.8,115.4,595.9,115,597.1,115"/>
	<path class="st11" d="M617.7,119.5h-15.9 M617.7,126.4h-15.9"/>
	<path class="st6" d="M624.4,130c2.5,0,2.4,3.1,1.5,4c-0.7,0.8-2.2,0.8-3,0.1C622.1,133.3,621.8,130,624.4,130"/>
	<path class="st6" d="M632.2,130.6c0.8-0.9,3.6-1.1,3.6,1.7c0,2.6-2.5,2.7-3.5,1.8C631.5,133.4,631.5,131.4,632.2,130.6"/>
	<path class="st6" d="M641,132.3c0-2.9,2.8-2.6,3.6-1.7c0.9,0.9,1,4-1.5,4c-0.6,0-1.1-0.2-1.4-0.5C641.2,133.7,641,133.1,641,132.3"
		/>
	<path class="st6" d="M582.5,292.2c0,0,3.4,3.3,8.6,2.7c3.1-0.3,7.7-2.9,8.7-6.2"/>
	<path class="st6" d="M600.3,266.7c-0.2,0.4-0.3,0.8-0.3,1.3c0,1.8,1.5,3.3,3.3,3.3c1.8,0,3.3-1.5,3.3-3.3c0-0.5-0.1-0.9-0.3-1.3
		H600.3z"/>
	<path class="st6" d="M574.3,266.7c-0.2,0.4-0.3,0.8-0.3,1.3c0,1.8,1.5,3.3,3.3,3.3c1.8,0,3.3-1.5,3.3-3.3c0-0.5-0.1-0.9-0.3-1.3
		H574.3z"/>
	<path class="st5" d="M120.8,162.1H94.7 M120.8,173.5H94.7"/>
	<line class="st5" x1="81.7" y1="145.1" x2="81.7" y2="174.8"/>
	<line class="st5" x1="81.7" y1="183" x2="81.7" y2="184.7"/>
	<path class="st5" d="M700.4,253.6h-26.1 M700.4,265h-26.1"/>
	<line class="st5" x1="661.3" y1="236.6" x2="661.3" y2="266.3"/>
	<line class="st5" x1="661.3" y1="274.5" x2="661.3" y2="276.2"/>
</g>
</svg>
