<?xml version="1.0" encoding="utf-8"?>
<!-- Generator: Adobe Illustrator 19.0.0, SVG Export Plug-In . SVG Version: 6.00 Build 0)  -->
<svg version="1.1" id="Layer_1" xmlns="http://www.w3.org/2000/svg" xmlns:xlink="http://www.w3.org/1999/xlink" x="0px" y="0px"
	 width="762.5px" height="479.7px" viewBox="-39 355.8 762.5 479.7" style="enable-background:new -39 355.8 762.5 479.7;"
	 xml:space="preserve">
<style type="text/css">
	.st0{fill:#7469E2;stroke:#4B3AAD;stroke-width:2.5;stroke-miterlimit:10;}
	.st1{fill:#D7D0FF;stroke:#4B3AAD;stroke-width:2.5;stroke-miterlimit:10;}
	.st2{fill:#FFFFFF;stroke:#4B3AAD;stroke-width:2.5;stroke-miterlimit:10;}
	.st3{fill:none;stroke:#FFFFFF;stroke-width:2.5;stroke-linecap:round;stroke-linejoin:round;stroke-miterlimit:10;}
	.st4{fill:none;stroke:#4C3AAD;stroke-width:2.5;stroke-linecap:round;stroke-linejoin:round;stroke-miterlimit:10;}
	
		.st5{clip-path:url(#SVGID_2_);fill:none;stroke:#D7D0FF;stroke-width:2.5;stroke-linecap:round;stroke-linejoin:round;stroke-miterlimit:10;}
	
		.st6{clip-path:url(#SVGID_76_);fill:none;stroke:#FFFFFF;stroke-width:2.5;stroke-linecap:round;stroke-linejoin:round;stroke-miterlimit:10;}
	
		.st7{clip-path:url(#SVGID_184_);fill:none;stroke:#4C3AAD;stroke-width:2.5;stroke-linecap:round;stroke-linejoin:round;stroke-miterlimit:10;}
	
		.st8{clip-path:url(#SVGID_186_);fill:none;stroke:#4C3AAD;stroke-width:2.5;stroke-linecap:round;stroke-linejoin:round;stroke-miterlimit:10;}
	
		.st9{clip-path:url(#SVGID_188_);fill:none;stroke:#4C3AAD;stroke-width:2.5;stroke-linecap:round;stroke-linejoin:round;stroke-miterlimit:10;}
	
		.st10{clip-path:url(#SVGID_190_);fill:none;stroke:#4C3AAD;stroke-width:2.5;stroke-linecap:round;stroke-linejoin:round;stroke-miterlimit:10;}
	
		.st11{clip-path:url(#SVGID_192_);fill:none;stroke:#4C3AAD;stroke-width:2.5;stroke-linecap:round;stroke-linejoin:round;stroke-miterlimit:10;}
	
		.st12{clip-path:url(#SVGID_194_);fill:none;stroke:#4C3AAD;stroke-width:2.5;stroke-linecap:round;stroke-linejoin:round;stroke-miterlimit:10;}
	
		.st13{clip-path:url(#SVGID_196_);fill:none;stroke:#4C3AAD;stroke-width:2.5;stroke-linecap:round;stroke-linejoin:round;stroke-miterlimit:10;}
	
		.st14{clip-path:url(#SVGID_198_);fill:none;stroke:#4C3AAD;stroke-width:2.5;stroke-linecap:round;stroke-linejoin:round;stroke-miterlimit:10;}
	
		.st15{clip-path:url(#SVGID_200_);fill:none;stroke:#4C3AAD;stroke-width:2.5;stroke-linecap:round;stroke-linejoin:round;stroke-miterlimit:10;}
	.st16{clip-path:url(#SVGID_202_);fill:#4C3AAD;}
	.st17{clip-path:url(#SVGID_204_);fill:#4C3AAD;}
	.st18{clip-path:url(#SVGID_206_);fill:#4C3AAD;}
	.st19{clip-path:url(#SVGID_208_);fill:#4C3AAD;}
	.st20{clip-path:url(#SVGID_210_);fill:#4C3AAD;}
	.st21{clip-path:url(#SVGID_212_);fill:#4C3AAD;}
	.st22{clip-path:url(#SVGID_214_);fill:#4C3AAD;}
	.st23{clip-path:url(#SVGID_216_);fill:#4C3AAD;}
	.st24{clip-path:url(#SVGID_218_);fill:#4C3AAD;}
	.st25{clip-path:url(#SVGID_220_);fill:#4C3AAD;}
	.st26{clip-path:url(#SVGID_222_);fill:none;stroke:#4C3AAD;stroke-miterlimit:10;}
	
		.st27{clip-path:url(#SVGID_236_);fill:none;stroke:#4C3AAD;stroke-width:2.5;stroke-linecap:round;stroke-linejoin:round;stroke-miterlimit:10;}
	
		.st28{clip-path:url(#SVGID_238_);fill:none;stroke:#4C3AAD;stroke-width:2.5;stroke-linecap:round;stroke-linejoin:round;stroke-miterlimit:10;}
	
		.st29{clip-path:url(#SVGID_240_);fill:none;stroke:#4C3AAD;stroke-width:2.5;stroke-linecap:round;stroke-linejoin:round;stroke-miterlimit:10;}
	
		.st30{clip-path:url(#SVGID_242_);fill:none;stroke:#4C3AAD;stroke-width:2.5;stroke-linecap:round;stroke-linejoin:round;stroke-miterlimit:10;}
	
		.st31{clip-path:url(#SVGID_244_);fill:none;stroke:#4C3AAD;stroke-width:2.5;stroke-linecap:round;stroke-linejoin:round;stroke-miterlimit:10;}
	
		.st32{clip-path:url(#SVGID_246_);fill:none;stroke:#4C3AAD;stroke-width:2.5;stroke-linecap:round;stroke-linejoin:round;stroke-miterlimit:10;}
	.st33{fill:#4C3AAD;stroke:#4B3AAD;stroke-width:2.5;stroke-miterlimit:10;}
	.st34{fill:#D7D0FF;}
	.st35{fill:none;stroke:#4B3AAD;stroke-width:2.5;stroke-miterlimit:10;}
	.st36{opacity:0.5;fill:#0F3032;stroke:#4B3AAD;stroke-width:2.5;stroke-miterlimit:10;}
	.st37{fill:none;stroke:#4B3AAD;stroke-width:3;stroke-miterlimit:10;}
	.st38{fill:#6157C4;stroke:#4B3AAD;stroke-width:2.5;stroke-miterlimit:10;}
</style>
<g id="XMLID_97_">
	<rect id="XMLID_44_" x="504.5" y="510.9" class="st0" width="65.5" height="300.6"/>
	<rect id="XMLID_39_" x="504.5" y="736.7" class="st1" width="65.5" height="22.8"/>
	<circle id="XMLID_38_" class="st2" cx="549.3" cy="717.3" r="6.3"/>
	<circle id="XMLID_37_" class="st2" cx="525.2" cy="717.3" r="6.3"/>
</g>
<g id="XMLID_81_">
	<g id="XMLID_83_">
		<path id="XMLID_28_" class="st1" d="M463.8,819.4h-343c-9.4,0-17-7.6-17-17V554c0-9.4,7.6-17,17-17h343c9.4,0,17,7.6,17,17v248.3
			C480.8,811.8,473.2,819.4,463.8,819.4z"/>
		<path id="XMLID_27_" class="st0" d="M103.7,779.1v17.5c0,12.6,10.2,22.8,22.8,22.8h331.4c12.6,0,22.8-10.2,22.8-22.8v-17.5H103.7z
			"/>
		<path id="XMLID_26_" class="st0" d="M461.9,645.2l18.9-86.6c0-11.9-9.7-21.6-21.6-21.6H125.3c-11.9,0-21.6,9.7-21.6,21.6
			l18.9,86.6c3.8,17.3,19.1,29.6,36.7,29.6h265.8C442.8,674.8,458.1,662.5,461.9,645.2z"/>
	</g>
</g>
<line class="st3" x1="422.5" y1="564" x2="435.2" y2="564"/>
<line class="st3" x1="422.5" y1="575.7" x2="435.2" y2="575.7"/>
<line class="st3" x1="422.5" y1="587.4" x2="435.2" y2="587.4"/>
<line class="st3" x1="422.5" y1="599.2" x2="435.2" y2="599.2"/>
<line class="st3" x1="422.5" y1="610.9" x2="435.2" y2="610.9"/>
<line class="st3" x1="422.5" y1="622.6" x2="435.2" y2="622.6"/>
<line class="st3" x1="422.5" y1="634.3" x2="435.2" y2="634.3"/>
<line class="st3" x1="422.5" y1="646" x2="435.2" y2="646"/>
<line class="st3" x1="422.5" y1="657.7" x2="435.2" y2="657.7"/>
<line class="st3" x1="422.5" y1="669.4" x2="435.2" y2="669.4"/>
<line class="st3" x1="422.5" y1="681.1" x2="435.2" y2="681.1"/>
<line class="st3" x1="422.5" y1="692.8" x2="435.2" y2="692.8"/>
<line class="st3" x1="422.5" y1="704.5" x2="435.2" y2="704.5"/>
<line class="st3" x1="450.4" y1="568.8" x2="481.5" y2="568.8"/>
<line class="st3" x1="450.4" y1="707.5" x2="481.5" y2="707.5"/>
<line class="st3" x1="465.2" y1="730.7" x2="488.4" y2="730.7"/>
<line class="st3" x1="462.7" y1="589.1" x2="499.3" y2="589.1"/>
<line class="st3" x1="366" y1="666.1" x2="403.6" y2="666.1"/>
<line class="st3" x1="457.6" y1="695.6" x2="495.2" y2="695.6"/>
<line class="st3" x1="451.4" y1="601.6" x2="489" y2="601.6"/>
<line class="st3" x1="422.3" y1="738.1" x2="491.4" y2="738.1"/>
<line class="st3" x1="321.8" y1="572.2" x2="368" y2="572.2"/>
<line class="st3" x1="337.1" y1="583" x2="398.6" y2="583"/>
<line class="st3" x1="337.1" y1="597.2" x2="398.6" y2="597.2"/>
<line class="st3" x1="337.1" y1="611.4" x2="398.6" y2="611.4"/>
<line class="st3" x1="337.1" y1="625.6" x2="398.6" y2="625.6"/>
<line class="st3" x1="337.1" y1="639.8" x2="398.6" y2="639.8"/>
<line class="st3" x1="337.1" y1="654" x2="398.6" y2="654"/>
<g>
	<g>
		<path class="st4" d="M260.4,420.9c-3.6,0.1-5.4,2-5.4,5.5v8.2c0,4-1.8,6.3-5.3,7.1v0.3c3.5,0.7,5.3,3.1,5.3,7.1v8.3
			c0,1.9,0.5,3.3,1.4,4.1c0.9,0.9,2.3,1.3,4.1,1.3"/>
	</g>
	<g>
		<path class="st4" d="M284.9,462.8c1.7,0,3.1-0.5,4-1.3c0.9-0.9,1.4-2.2,1.4-4.1v-8.3c0-2.1,0.4-3.7,1.3-4.8s2.2-1.9,4-2.2v-0.3
			c-3.5-0.7-5.3-3.1-5.3-7.1v-8.2c0-3.6-1.8-5.4-5.4-5.5"/>
	</g>
</g>
<g>
	<g>
		<defs>
			<rect id="SVGID_1_" x="-39" y="355.8" width="762.5" height="479.7"/>
		</defs>
		<clipPath id="SVGID_2_">
			<use xlink:href="#SVGID_1_"  style="overflow:visible;"/>
		</clipPath>
		<line class="st5" x1="-37.8" y1="834.3" x2="722.3" y2="834.3"/>
	</g>
	<g>
		<defs>
			<rect id="SVGID_3_" x="-39" y="355.8" width="762.5" height="479.7"/>
		</defs>
		<clipPath id="SVGID_4_">
			<use xlink:href="#SVGID_3_"  style="overflow:visible;"/>
		</clipPath>
	</g>
	<g>
		<defs>
			<rect id="SVGID_5_" x="-39" y="355.8" width="762.5" height="479.7"/>
		</defs>
		<clipPath id="SVGID_6_">
			<use xlink:href="#SVGID_5_"  style="overflow:visible;"/>
		</clipPath>
	</g>
	<g>
		<defs>
			<rect id="SVGID_7_" x="-39" y="355.8" width="762.5" height="479.7"/>
		</defs>
		<clipPath id="SVGID_8_">
			<use xlink:href="#SVGID_7_"  style="overflow:visible;"/>
		</clipPath>
	</g>
	<g>
		<defs>
			<rect id="SVGID_9_" x="-39" y="355.8" width="762.5" height="479.7"/>
		</defs>
		<clipPath id="SVGID_10_">
			<use xlink:href="#SVGID_9_"  style="overflow:visible;"/>
		</clipPath>
	</g>
	<g>
		<defs>
			<rect id="SVGID_11_" x="-39" y="355.8" width="762.5" height="479.7"/>
		</defs>
		<clipPath id="SVGID_12_">
			<use xlink:href="#SVGID_11_"  style="overflow:visible;"/>
		</clipPath>
	</g>
	<g>
		<defs>
			<rect id="SVGID_13_" x="-39" y="355.8" width="762.5" height="479.7"/>
		</defs>
		<clipPath id="SVGID_14_">
			<use xlink:href="#SVGID_13_"  style="overflow:visible;"/>
		</clipPath>
	</g>
	<g>
		<defs>
			<rect id="SVGID_15_" x="-39" y="355.8" width="762.5" height="479.7"/>
		</defs>
		<clipPath id="SVGID_16_">
			<use xlink:href="#SVGID_15_"  style="overflow:visible;"/>
		</clipPath>
	</g>
	<g>
		<defs>
			<rect id="SVGID_17_" x="-39" y="355.8" width="762.5" height="479.7"/>
		</defs>
		<clipPath id="SVGID_18_">
			<use xlink:href="#SVGID_17_"  style="overflow:visible;"/>
		</clipPath>
	</g>
	<g>
		<defs>
			<rect id="SVGID_19_" x="-39" y="355.8" width="762.5" height="479.7"/>
		</defs>
		<clipPath id="SVGID_20_">
			<use xlink:href="#SVGID_19_"  style="overflow:visible;"/>
		</clipPath>
	</g>
	<g>
		<defs>
			<rect id="SVGID_21_" x="-39" y="355.8" width="762.5" height="479.7"/>
		</defs>
		<clipPath id="SVGID_22_">
			<use xlink:href="#SVGID_21_"  style="overflow:visible;"/>
		</clipPath>
	</g>
	<g>
		<defs>
			<rect id="SVGID_23_" x="-39" y="355.8" width="762.5" height="479.7"/>
		</defs>
		<clipPath id="SVGID_24_">
			<use xlink:href="#SVGID_23_"  style="overflow:visible;"/>
		</clipPath>
	</g>
	<g>
		<defs>
			<rect id="SVGID_25_" x="-39" y="355.8" width="762.5" height="479.7"/>
		</defs>
		<clipPath id="SVGID_26_">
			<use xlink:href="#SVGID_25_"  style="overflow:visible;"/>
		</clipPath>
	</g>
	<g>
		<defs>
			<rect id="SVGID_27_" x="-39" y="355.8" width="762.5" height="479.7"/>
		</defs>
		<clipPath id="SVGID_28_">
			<use xlink:href="#SVGID_27_"  style="overflow:visible;"/>
		</clipPath>
	</g>
	<g>
		<defs>
			<rect id="SVGID_29_" x="-39" y="355.8" width="762.5" height="479.7"/>
		</defs>
		<clipPath id="SVGID_30_">
			<use xlink:href="#SVGID_29_"  style="overflow:visible;"/>
		</clipPath>
	</g>
	<g>
		<defs>
			<rect id="SVGID_31_" x="-39" y="355.8" width="762.5" height="479.7"/>
		</defs>
		<clipPath id="SVGID_32_">
			<use xlink:href="#SVGID_31_"  style="overflow:visible;"/>
		</clipPath>
	</g>
	<g>
		<defs>
			<rect id="SVGID_33_" x="-39" y="355.8" width="762.5" height="479.7"/>
		</defs>
		<clipPath id="SVGID_34_">
			<use xlink:href="#SVGID_33_"  style="overflow:visible;"/>
		</clipPath>
	</g>
	<g>
		<defs>
			<rect id="SVGID_35_" x="-39" y="355.8" width="762.5" height="479.7"/>
		</defs>
		<clipPath id="SVGID_36_">
			<use xlink:href="#SVGID_35_"  style="overflow:visible;"/>
		</clipPath>
	</g>
	<g>
		<defs>
			<rect id="SVGID_37_" x="-39" y="355.8" width="762.5" height="479.7"/>
		</defs>
		<clipPath id="SVGID_38_">
			<use xlink:href="#SVGID_37_"  style="overflow:visible;"/>
		</clipPath>
	</g>
	<g>
		<defs>
			<rect id="SVGID_39_" x="-39" y="355.8" width="762.5" height="479.7"/>
		</defs>
		<clipPath id="SVGID_40_">
			<use xlink:href="#SVGID_39_"  style="overflow:visible;"/>
		</clipPath>
	</g>
	<g>
		<defs>
			<rect id="SVGID_41_" x="-39" y="355.8" width="762.5" height="479.7"/>
		</defs>
		<clipPath id="SVGID_42_">
			<use xlink:href="#SVGID_41_"  style="overflow:visible;"/>
		</clipPath>
	</g>
	<g>
		<defs>
			<rect id="SVGID_43_" x="-39" y="355.8" width="762.5" height="479.7"/>
		</defs>
		<clipPath id="SVGID_44_">
			<use xlink:href="#SVGID_43_"  style="overflow:visible;"/>
		</clipPath>
	</g>
	<g>
		<defs>
			<rect id="SVGID_45_" x="-39" y="355.8" width="762.5" height="479.7"/>
		</defs>
		<clipPath id="SVGID_46_">
			<use xlink:href="#SVGID_45_"  style="overflow:visible;"/>
		</clipPath>
	</g>
	<g>
		<defs>
			<rect id="SVGID_47_" x="-39" y="355.8" width="762.5" height="479.7"/>
		</defs>
		<clipPath id="SVGID_48_">
			<use xlink:href="#SVGID_47_"  style="overflow:visible;"/>
		</clipPath>
	</g>
	<g>
		<defs>
			<rect id="SVGID_49_" x="-39" y="355.8" width="762.5" height="479.7"/>
		</defs>
		<clipPath id="SVGID_50_">
			<use xlink:href="#SVGID_49_"  style="overflow:visible;"/>
		</clipPath>
	</g>
	<g>
		<defs>
			<rect id="SVGID_51_" x="-39" y="355.8" width="762.5" height="479.7"/>
		</defs>
		<clipPath id="SVGID_52_">
			<use xlink:href="#SVGID_51_"  style="overflow:visible;"/>
		</clipPath>
	</g>
	<g>
		<defs>
			<rect id="SVGID_53_" x="-39" y="355.8" width="762.5" height="479.7"/>
		</defs>
		<clipPath id="SVGID_54_">
			<use xlink:href="#SVGID_53_"  style="overflow:visible;"/>
		</clipPath>
	</g>
	<g>
		<defs>
			<rect id="SVGID_55_" x="-39" y="355.8" width="762.5" height="479.7"/>
		</defs>
		<clipPath id="SVGID_56_">
			<use xlink:href="#SVGID_55_"  style="overflow:visible;"/>
		</clipPath>
	</g>
	<g>
		<defs>
			<rect id="SVGID_57_" x="-39" y="355.8" width="762.5" height="479.7"/>
		</defs>
		<clipPath id="SVGID_58_">
			<use xlink:href="#SVGID_57_"  style="overflow:visible;"/>
		</clipPath>
	</g>
	<g>
		<defs>
			<rect id="SVGID_59_" x="-39" y="355.8" width="762.5" height="479.7"/>
		</defs>
		<clipPath id="SVGID_60_">
			<use xlink:href="#SVGID_59_"  style="overflow:visible;"/>
		</clipPath>
	</g>
	<g>
		<defs>
			<rect id="SVGID_61_" x="-39" y="355.8" width="762.5" height="479.7"/>
		</defs>
		<clipPath id="SVGID_62_">
			<use xlink:href="#SVGID_61_"  style="overflow:visible;"/>
		</clipPath>
	</g>
	<g>
		<defs>
			<rect id="SVGID_63_" x="-39" y="355.8" width="762.5" height="479.7"/>
		</defs>
		<clipPath id="SVGID_64_">
			<use xlink:href="#SVGID_63_"  style="overflow:visible;"/>
		</clipPath>
	</g>
	<g>
		<defs>
			<rect id="SVGID_65_" x="-39" y="355.8" width="762.5" height="479.7"/>
		</defs>
		<clipPath id="SVGID_66_">
			<use xlink:href="#SVGID_65_"  style="overflow:visible;"/>
		</clipPath>
	</g>
	<g>
		<defs>
			<rect id="SVGID_67_" x="-39" y="355.8" width="762.5" height="479.7"/>
		</defs>
		<clipPath id="SVGID_68_">
			<use xlink:href="#SVGID_67_"  style="overflow:visible;"/>
		</clipPath>
	</g>
	<g>
		<defs>
			<rect id="SVGID_69_" x="-39" y="355.8" width="762.5" height="479.7"/>
		</defs>
		<clipPath id="SVGID_70_">
			<use xlink:href="#SVGID_69_"  style="overflow:visible;"/>
		</clipPath>
	</g>
	<g>
		<defs>
			<rect id="SVGID_71_" x="-39" y="355.8" width="762.5" height="479.7"/>
		</defs>
		<clipPath id="SVGID_72_">
			<use xlink:href="#SVGID_71_"  style="overflow:visible;"/>
		</clipPath>
	</g>
	<g>
		<defs>
			<rect id="SVGID_73_" x="-39" y="355.8" width="762.5" height="479.7"/>
		</defs>
		<clipPath id="SVGID_74_">
			<use xlink:href="#SVGID_73_"  style="overflow:visible;"/>
		</clipPath>
	</g>
	<g>
		<defs>
			<rect id="SVGID_75_" x="-39" y="355.8" width="762.5" height="479.7"/>
		</defs>
		<clipPath id="SVGID_76_">
			<use xlink:href="#SVGID_75_"  style="overflow:visible;"/>
		</clipPath>
		<path class="st6" d="M533,635.3"/>
		<path class="st6" d="M495.4,635.3"/>
	</g>
	<g>
		<defs>
			<rect id="SVGID_77_" x="-39" y="355.8" width="762.5" height="479.7"/>
		</defs>
		<clipPath id="SVGID_78_">
			<use xlink:href="#SVGID_77_"  style="overflow:visible;"/>
		</clipPath>
	</g>
	<g>
		<defs>
			<rect id="SVGID_79_" x="-39" y="355.8" width="762.5" height="479.7"/>
		</defs>
		<clipPath id="SVGID_80_">
			<use xlink:href="#SVGID_79_"  style="overflow:visible;"/>
		</clipPath>
	</g>
	<g>
		<defs>
			<rect id="SVGID_81_" x="-39" y="355.8" width="762.5" height="479.7"/>
		</defs>
		<clipPath id="SVGID_82_">
			<use xlink:href="#SVGID_81_"  style="overflow:visible;"/>
		</clipPath>
	</g>
	<g>
		<defs>
			<rect id="SVGID_83_" x="-39" y="355.8" width="762.5" height="479.7"/>
		</defs>
		<clipPath id="SVGID_84_">
			<use xlink:href="#SVGID_83_"  style="overflow:visible;"/>
		</clipPath>
	</g>
	<g>
		<defs>
			<rect id="SVGID_85_" x="-39" y="355.8" width="762.5" height="479.7"/>
		</defs>
		<clipPath id="SVGID_86_">
			<use xlink:href="#SVGID_85_"  style="overflow:visible;"/>
		</clipPath>
	</g>
	<g>
		<defs>
			<rect id="SVGID_87_" x="-39" y="355.8" width="762.5" height="479.7"/>
		</defs>
		<clipPath id="SVGID_88_">
			<use xlink:href="#SVGID_87_"  style="overflow:visible;"/>
		</clipPath>
	</g>
	<g>
		<defs>
			<rect id="SVGID_89_" x="-39" y="355.8" width="762.5" height="479.7"/>
		</defs>
		<clipPath id="SVGID_90_">
			<use xlink:href="#SVGID_89_"  style="overflow:visible;"/>
		</clipPath>
	</g>
	<g>
		<defs>
			<rect id="SVGID_91_" x="-39" y="355.8" width="762.5" height="479.7"/>
		</defs>
		<clipPath id="SVGID_92_">
			<use xlink:href="#SVGID_91_"  style="overflow:visible;"/>
		</clipPath>
	</g>
	<g>
		<defs>
			<rect id="SVGID_93_" x="-39" y="355.8" width="762.5" height="479.7"/>
		</defs>
		<clipPath id="SVGID_94_">
			<use xlink:href="#SVGID_93_"  style="overflow:visible;"/>
		</clipPath>
	</g>
	<g>
		<defs>
			<rect id="SVGID_95_" x="-39" y="355.8" width="762.5" height="479.7"/>
		</defs>
		<clipPath id="SVGID_96_">
			<use xlink:href="#SVGID_95_"  style="overflow:visible;"/>
		</clipPath>
	</g>
	<g>
		<defs>
			<rect id="SVGID_97_" x="-39" y="355.8" width="762.5" height="479.7"/>
		</defs>
		<clipPath id="SVGID_98_">
			<use xlink:href="#SVGID_97_"  style="overflow:visible;"/>
		</clipPath>
	</g>
	<g>
		<defs>
			<rect id="SVGID_99_" x="-39" y="355.8" width="762.5" height="479.7"/>
		</defs>
		<clipPath id="SVGID_100_">
			<use xlink:href="#SVGID_99_"  style="overflow:visible;"/>
		</clipPath>
	</g>
	<g>
		<defs>
			<rect id="SVGID_101_" x="-39" y="355.8" width="762.5" height="479.7"/>
		</defs>
		<clipPath id="SVGID_102_">
			<use xlink:href="#SVGID_101_"  style="overflow:visible;"/>
		</clipPath>
	</g>
	<g>
		<defs>
			<rect id="SVGID_103_" x="-39" y="355.8" width="762.5" height="479.7"/>
		</defs>
		<clipPath id="SVGID_104_">
			<use xlink:href="#SVGID_103_"  style="overflow:visible;"/>
		</clipPath>
	</g>
	<g>
		<defs>
			<rect id="SVGID_105_" x="-39" y="355.8" width="762.5" height="479.7"/>
		</defs>
		<clipPath id="SVGID_106_">
			<use xlink:href="#SVGID_105_"  style="overflow:visible;"/>
		</clipPath>
	</g>
	<g>
		<defs>
			<rect id="SVGID_107_" x="-39" y="355.8" width="762.5" height="479.7"/>
		</defs>
		<clipPath id="SVGID_108_">
			<use xlink:href="#SVGID_107_"  style="overflow:visible;"/>
		</clipPath>
	</g>
	<g>
		<defs>
			<rect id="SVGID_109_" x="-39" y="355.8" width="762.5" height="479.7"/>
		</defs>
		<clipPath id="SVGID_110_">
			<use xlink:href="#SVGID_109_"  style="overflow:visible;"/>
		</clipPath>
	</g>
	<g>
		<defs>
			<rect id="SVGID_111_" x="-39" y="355.8" width="762.5" height="479.7"/>
		</defs>
		<clipPath id="SVGID_112_">
			<use xlink:href="#SVGID_111_"  style="overflow:visible;"/>
		</clipPath>
	</g>
	<g>
		<defs>
			<rect id="SVGID_113_" x="-39" y="355.8" width="762.5" height="479.7"/>
		</defs>
		<clipPath id="SVGID_114_">
			<use xlink:href="#SVGID_113_"  style="overflow:visible;"/>
		</clipPath>
	</g>
	<g>
		<defs>
			<rect id="SVGID_115_" x="-39" y="355.8" width="762.5" height="479.7"/>
		</defs>
		<clipPath id="SVGID_116_">
			<use xlink:href="#SVGID_115_"  style="overflow:visible;"/>
		</clipPath>
	</g>
	<g>
		<defs>
			<rect id="SVGID_117_" x="-39" y="355.8" width="762.5" height="479.7"/>
		</defs>
		<clipPath id="SVGID_118_">
			<use xlink:href="#SVGID_117_"  style="overflow:visible;"/>
		</clipPath>
	</g>
	<g>
		<defs>
			<rect id="SVGID_119_" x="-39" y="355.8" width="762.5" height="479.7"/>
		</defs>
		<clipPath id="SVGID_120_">
			<use xlink:href="#SVGID_119_"  style="overflow:visible;"/>
		</clipPath>
	</g>
	<g>
		<defs>
			<rect id="SVGID_121_" x="-39" y="355.8" width="762.5" height="479.7"/>
		</defs>
		<clipPath id="SVGID_122_">
			<use xlink:href="#SVGID_121_"  style="overflow:visible;"/>
		</clipPath>
	</g>
	<g>
		<defs>
			<rect id="SVGID_123_" x="-39" y="355.8" width="762.5" height="479.7"/>
		</defs>
		<clipPath id="SVGID_124_">
			<use xlink:href="#SVGID_123_"  style="overflow:visible;"/>
		</clipPath>
	</g>
	<g>
		<defs>
			<rect id="SVGID_125_" x="-39" y="355.8" width="762.5" height="479.7"/>
		</defs>
		<clipPath id="SVGID_126_">
			<use xlink:href="#SVGID_125_"  style="overflow:visible;"/>
		</clipPath>
	</g>
	<g>
		<defs>
			<rect id="SVGID_127_" x="-39" y="355.8" width="762.5" height="479.7"/>
		</defs>
		<clipPath id="SVGID_128_">
			<use xlink:href="#SVGID_127_"  style="overflow:visible;"/>
		</clipPath>
	</g>
	<g>
		<defs>
			<rect id="SVGID_129_" x="-39" y="355.8" width="762.5" height="479.7"/>
		</defs>
		<clipPath id="SVGID_130_">
			<use xlink:href="#SVGID_129_"  style="overflow:visible;"/>
		</clipPath>
	</g>
	<g>
		<defs>
			<rect id="SVGID_131_" x="-39" y="355.8" width="762.5" height="479.7"/>
		</defs>
		<clipPath id="SVGID_132_">
			<use xlink:href="#SVGID_131_"  style="overflow:visible;"/>
		</clipPath>
	</g>
	<g>
		<defs>
			<rect id="SVGID_133_" x="-39" y="355.8" width="762.5" height="479.7"/>
		</defs>
		<clipPath id="SVGID_134_">
			<use xlink:href="#SVGID_133_"  style="overflow:visible;"/>
		</clipPath>
	</g>
	<g>
		<defs>
			<rect id="SVGID_135_" x="-39" y="355.8" width="762.5" height="479.7"/>
		</defs>
		<clipPath id="SVGID_136_">
			<use xlink:href="#SVGID_135_"  style="overflow:visible;"/>
		</clipPath>
	</g>
	<g>
		<defs>
			<rect id="SVGID_137_" x="-39" y="355.8" width="762.5" height="479.7"/>
		</defs>
		<clipPath id="SVGID_138_">
			<use xlink:href="#SVGID_137_"  style="overflow:visible;"/>
		</clipPath>
	</g>
	<g>
		<defs>
			<rect id="SVGID_139_" x="-39" y="355.8" width="762.5" height="479.7"/>
		</defs>
		<clipPath id="SVGID_140_">
			<use xlink:href="#SVGID_139_"  style="overflow:visible;"/>
		</clipPath>
	</g>
	<g>
		<defs>
			<rect id="SVGID_141_" x="-39" y="355.8" width="762.5" height="479.7"/>
		</defs>
		<clipPath id="SVGID_142_">
			<use xlink:href="#SVGID_141_"  style="overflow:visible;"/>
		</clipPath>
	</g>
	<g>
		<defs>
			<rect id="SVGID_143_" x="-39" y="355.8" width="762.5" height="479.7"/>
		</defs>
		<clipPath id="SVGID_144_">
			<use xlink:href="#SVGID_143_"  style="overflow:visible;"/>
		</clipPath>
	</g>
	<g>
		<defs>
			<rect id="SVGID_145_" x="-39" y="355.8" width="762.5" height="479.7"/>
		</defs>
		<clipPath id="SVGID_146_">
			<use xlink:href="#SVGID_145_"  style="overflow:visible;"/>
		</clipPath>
	</g>
	<g>
		<defs>
			<rect id="SVGID_147_" x="-39" y="355.8" width="762.5" height="479.7"/>
		</defs>
		<clipPath id="SVGID_148_">
			<use xlink:href="#SVGID_147_"  style="overflow:visible;"/>
		</clipPath>
	</g>
	<g>
		<defs>
			<rect id="SVGID_149_" x="-39" y="355.8" width="762.5" height="479.7"/>
		</defs>
		<clipPath id="SVGID_150_">
			<use xlink:href="#SVGID_149_"  style="overflow:visible;"/>
		</clipPath>
	</g>
	<g>
		<defs>
			<rect id="SVGID_151_" x="-39" y="355.8" width="762.5" height="479.7"/>
		</defs>
		<clipPath id="SVGID_152_">
			<use xlink:href="#SVGID_151_"  style="overflow:visible;"/>
		</clipPath>
	</g>
	<g>
		<defs>
			<rect id="SVGID_153_" x="-39" y="355.8" width="762.5" height="479.7"/>
		</defs>
		<clipPath id="SVGID_154_">
			<use xlink:href="#SVGID_153_"  style="overflow:visible;"/>
		</clipPath>
	</g>
	<g>
		<defs>
			<rect id="SVGID_155_" x="-39" y="355.8" width="762.5" height="479.7"/>
		</defs>
		<clipPath id="SVGID_156_">
			<use xlink:href="#SVGID_155_"  style="overflow:visible;"/>
		</clipPath>
	</g>
	<g>
		<defs>
			<rect id="SVGID_157_" x="-39" y="355.8" width="762.5" height="479.7"/>
		</defs>
		<clipPath id="SVGID_158_">
			<use xlink:href="#SVGID_157_"  style="overflow:visible;"/>
		</clipPath>
	</g>
	<g>
		<defs>
			<rect id="SVGID_159_" x="-39" y="355.8" width="762.5" height="479.7"/>
		</defs>
		<clipPath id="SVGID_160_">
			<use xlink:href="#SVGID_159_"  style="overflow:visible;"/>
		</clipPath>
	</g>
	<g>
		<defs>
			<rect id="SVGID_161_" x="-39" y="355.8" width="762.5" height="479.7"/>
		</defs>
		<clipPath id="SVGID_162_">
			<use xlink:href="#SVGID_161_"  style="overflow:visible;"/>
		</clipPath>
	</g>
	<g>
		<defs>
			<rect id="SVGID_163_" x="-39" y="355.8" width="762.5" height="479.7"/>
		</defs>
		<clipPath id="SVGID_164_">
			<use xlink:href="#SVGID_163_"  style="overflow:visible;"/>
		</clipPath>
	</g>
	<g>
		<defs>
			<rect id="SVGID_165_" x="-39" y="355.8" width="762.5" height="479.7"/>
		</defs>
		<clipPath id="SVGID_166_">
			<use xlink:href="#SVGID_165_"  style="overflow:visible;"/>
		</clipPath>
	</g>
	<g>
		<defs>
			<rect id="SVGID_167_" x="-39" y="355.8" width="762.5" height="479.7"/>
		</defs>
		<clipPath id="SVGID_168_">
			<use xlink:href="#SVGID_167_"  style="overflow:visible;"/>
		</clipPath>
	</g>
	<g>
		<defs>
			<rect id="SVGID_169_" x="-39" y="355.8" width="762.5" height="479.7"/>
		</defs>
		<clipPath id="SVGID_170_">
			<use xlink:href="#SVGID_169_"  style="overflow:visible;"/>
		</clipPath>
	</g>
	<g>
		<defs>
			<rect id="SVGID_171_" x="-39" y="355.8" width="762.5" height="479.7"/>
		</defs>
		<clipPath id="SVGID_172_">
			<use xlink:href="#SVGID_171_"  style="overflow:visible;"/>
		</clipPath>
	</g>
	<g>
		<defs>
			<rect id="SVGID_173_" x="-39" y="355.8" width="762.5" height="479.7"/>
		</defs>
		<clipPath id="SVGID_174_">
			<use xlink:href="#SVGID_173_"  style="overflow:visible;"/>
		</clipPath>
	</g>
	<g>
		<defs>
			<rect id="SVGID_175_" x="-39" y="355.8" width="762.5" height="479.7"/>
		</defs>
		<clipPath id="SVGID_176_">
			<use xlink:href="#SVGID_175_"  style="overflow:visible;"/>
		</clipPath>
	</g>
	<g>
		<defs>
			<rect id="SVGID_177_" x="-39" y="355.8" width="762.5" height="479.7"/>
		</defs>
		<clipPath id="SVGID_178_">
			<use xlink:href="#SVGID_177_"  style="overflow:visible;"/>
		</clipPath>
	</g>
	<g>
		<defs>
			<rect id="SVGID_179_" x="-39" y="355.8" width="762.5" height="479.7"/>
		</defs>
		<clipPath id="SVGID_180_">
			<use xlink:href="#SVGID_179_"  style="overflow:visible;"/>
		</clipPath>
	</g>
	<g>
		<defs>
			<rect id="SVGID_181_" x="-39" y="355.8" width="762.5" height="479.7"/>
		</defs>
		<clipPath id="SVGID_182_">
			<use xlink:href="#SVGID_181_"  style="overflow:visible;"/>
		</clipPath>
	</g>
	<g>
		<defs>
			<rect id="SVGID_183_" x="-39" y="355.8" width="762.5" height="479.7"/>
		</defs>
		<clipPath id="SVGID_184_">
			<use xlink:href="#SVGID_183_"  style="overflow:visible;"/>
		</clipPath>
		<polyline class="st7" points="608.7,738.5 600.8,738.5 600.8,782.5 608,782.5 		"/>
	</g>
	<g>
		<defs>
			<rect id="SVGID_185_" x="-39" y="355.8" width="762.5" height="479.7"/>
		</defs>
		<clipPath id="SVGID_186_">
			<use xlink:href="#SVGID_185_"  style="overflow:visible;"/>
		</clipPath>
		<polyline class="st8" points="631.6,782.5 638.8,782.5 638.8,738.5 631,738.5 		"/>
	</g>
	<g>
		<defs>
			<rect id="SVGID_187_" x="-39" y="355.8" width="762.5" height="479.7"/>
		</defs>
		<clipPath id="SVGID_188_">
			<use xlink:href="#SVGID_187_"  style="overflow:visible;"/>
		</clipPath>
		<polyline class="st9" points="23.5,695.2 15.6,695.2 15.6,739.2 22.8,739.2 		"/>
	</g>
	<g>
		<defs>
			<rect id="SVGID_189_" x="-39" y="355.8" width="762.5" height="479.7"/>
		</defs>
		<clipPath id="SVGID_190_">
			<use xlink:href="#SVGID_189_"  style="overflow:visible;"/>
		</clipPath>
		<polyline class="st10" points="46.4,739.2 53.6,739.2 53.6,695.2 45.8,695.2 		"/>
	</g>
	<g>
		<defs>
			<rect id="SVGID_191_" x="-39" y="355.8" width="762.5" height="479.7"/>
		</defs>
		<clipPath id="SVGID_192_">
			<use xlink:href="#SVGID_191_"  style="overflow:visible;"/>
		</clipPath>
		<path class="st11" d="M484.7,383.2h-24.2 M484.7,393.9h-24.2"/>
	</g>
	<g>
		<defs>
			<rect id="SVGID_193_" x="-39" y="355.8" width="762.5" height="479.7"/>
		</defs>
		<clipPath id="SVGID_194_">
			<use xlink:href="#SVGID_193_"  style="overflow:visible;"/>
		</clipPath>
		<path class="st12" d="M520.9,383.2h-24.2 M520.9,393.9h-24.2"/>
	</g>
	<g>
		<defs>
			<rect id="SVGID_195_" x="-39" y="355.8" width="762.5" height="479.7"/>
		</defs>
		<clipPath id="SVGID_196_">
			<use xlink:href="#SVGID_195_"  style="overflow:visible;"/>
		</clipPath>
		<polyline class="st13" points="103.9,437.6 85.1,427.2 103.9,417 		"/>
	</g>
	<g>
		<defs>
			<rect id="SVGID_197_" x="-39" y="355.8" width="762.5" height="479.7"/>
		</defs>
		<clipPath id="SVGID_198_">
			<use xlink:href="#SVGID_197_"  style="overflow:visible;"/>
		</clipPath>
		<polyline class="st14" points="129.9,417 148.7,427.2 129.9,437.6 		"/>
	</g>
	<g>
		<defs>
			<rect id="SVGID_199_" x="-39" y="355.8" width="762.5" height="479.7"/>
		</defs>
		<clipPath id="SVGID_200_">
			<use xlink:href="#SVGID_199_"  style="overflow:visible;"/>
		</clipPath>
		<line class="st15" x1="125.6" y1="406.8" x2="109.6" y2="449.2"/>
	</g>
	<g>
		<defs>
			<rect id="SVGID_201_" x="-39" y="355.8" width="762.5" height="479.7"/>
		</defs>
		<clipPath id="SVGID_202_">
			<use xlink:href="#SVGID_201_"  style="overflow:visible;"/>
		</clipPath>
		<path class="st16" d="M634.5,509.3c0,1.7-0.6,3.1-1.9,4c-1.3,0.9-3.1,1.4-5.5,1.4c-2.5,0-4.4-0.4-5.8-1.2V511
			c0.9,0.5,1.9,0.8,2.9,1.1c1,0.3,2,0.4,3,0.4c1.5,0,2.6-0.2,3.4-0.7c0.8-0.5,1.2-1.2,1.2-2.2c0-0.7-0.3-1.4-0.9-1.9
			c-0.6-0.5-1.9-1.1-3.7-1.8c-1.7-0.7-3-1.2-3.7-1.7s-1.3-1-1.6-1.6c-0.4-0.6-0.5-1.3-0.5-2.2c0-1.5,0.6-2.7,1.9-3.6
			c1.2-0.9,2.9-1.3,5.1-1.3c2,0,4,0.4,5.9,1.2l-1,2.3c-1.9-0.8-3.6-1.2-5.1-1.2c-1.3,0-2.4,0.2-3,0.6c-0.7,0.4-1,1-1,1.7
			c0,0.5,0.1,0.9,0.4,1.3s0.7,0.7,1.2,1c0.6,0.3,1.7,0.8,3.3,1.4c2.2,0.8,3.7,1.6,4.5,2.4C634.1,507.1,634.5,508.1,634.5,509.3"/>
	</g>
	<g>
		<defs>
			<rect id="SVGID_203_" x="-39" y="355.8" width="762.5" height="479.7"/>
		</defs>
		<clipPath id="SVGID_204_">
			<use xlink:href="#SVGID_203_"  style="overflow:visible;"/>
		</clipPath>
		<path class="st17" d="M646.5,514.8c-2.7,0-4.8-0.8-6.3-2.5s-2.2-4-2.2-7.1c0-3.1,0.8-5.5,2.3-7.3c1.5-1.7,3.7-2.6,6.4-2.6
			c0.9,0,1.8,0.1,2.7,0.3c0.9,0.2,1.6,0.4,2.1,0.7l-0.9,2.4c-0.6-0.3-1.3-0.5-2-0.6c-0.7-0.2-1.4-0.2-2-0.2c-3.8,0-5.7,2.4-5.7,7.3
			c0,2.3,0.5,4.1,1.4,5.3c0.9,1.2,2.3,1.8,4.1,1.8c1.6,0,3.2-0.3,4.8-1v2.5C650,514.5,648.4,514.8,646.5,514.8"/>
	</g>
	<g>
		<defs>
			<rect id="SVGID_205_" x="-39" y="355.8" width="762.5" height="479.7"/>
		</defs>
		<clipPath id="SVGID_206_">
			<use xlink:href="#SVGID_205_"  style="overflow:visible;"/>
		</clipPath>
		<path class="st18" d="M664.2,495.4c0.8,0,1.6,0.1,2.2,0.2l-0.4,2.6c-0.7-0.2-1.4-0.2-2-0.2c-1.5,0-2.8,0.6-3.9,1.8
			c-1.1,1.2-1.6,2.8-1.6,4.6v10h-2.8v-18.7h2.3l0.3,3.5h0.1c0.8-1.2,1.6-2.2,2.6-2.8C662,495.7,663.1,495.4,664.2,495.4"/>
	</g>
	<g>
		<defs>
			<rect id="SVGID_207_" x="-39" y="355.8" width="762.5" height="479.7"/>
		</defs>
		<clipPath id="SVGID_208_">
			<use xlink:href="#SVGID_207_"  style="overflow:visible;"/>
		</clipPath>
		<path class="st19" d="M684.9,499.8H669 M684.9,506.8H669"/>
	</g>
	<g>
		<defs>
			<rect id="SVGID_209_" x="-39" y="355.8" width="762.5" height="479.7"/>
		</defs>
		<clipPath id="SVGID_210_">
			<use xlink:href="#SVGID_209_"  style="overflow:visible;"/>
		</clipPath>
		<path class="st20" d="M691.6,510.3c2.5,0,2.4,3.1,1.5,4c-0.7,0.8-2.2,0.8-3,0.1C689.3,513.6,689,510.3,691.6,510.3"/>
	</g>
	<g>
		<defs>
			<rect id="SVGID_211_" x="-39" y="355.8" width="762.5" height="479.7"/>
		</defs>
		<clipPath id="SVGID_212_">
			<use xlink:href="#SVGID_211_"  style="overflow:visible;"/>
		</clipPath>
		<path class="st21" d="M699.4,510.9c0.8-0.9,3.6-1.1,3.6,1.7c0,2.6-2.5,2.7-3.5,1.8C698.7,513.7,698.7,511.7,699.4,510.9"/>
	</g>
	<g>
		<defs>
			<rect id="SVGID_213_" x="-39" y="355.8" width="762.5" height="479.7"/>
		</defs>
		<clipPath id="SVGID_214_">
			<use xlink:href="#SVGID_213_"  style="overflow:visible;"/>
		</clipPath>
		<path class="st22" d="M708.2,512.6c0-2.9,2.8-2.6,3.6-1.7c0.9,0.9,1,4-1.5,4c-0.6,0-1.1-0.2-1.4-0.5
			C708.4,514,708.2,513.4,708.2,512.6"/>
	</g>
	<g>
		<defs>
			<rect id="SVGID_215_" x="-39" y="355.8" width="762.5" height="479.7"/>
		</defs>
		<clipPath id="SVGID_216_">
			<use xlink:href="#SVGID_215_"  style="overflow:visible;"/>
		</clipPath>
		<path class="st23" d="M-8.4,816.9c0,1.7-0.6,3.1-1.9,4c-1.3,0.9-3.1,1.4-5.5,1.4c-2.5,0-4.4-0.4-5.8-1.2v-2.6
			c0.9,0.5,1.9,0.8,2.9,1.1c1,0.3,2,0.4,3,0.4c1.5,0,2.6-0.2,3.4-0.7c0.8-0.5,1.2-1.2,1.2-2.2c0-0.7-0.3-1.4-0.9-1.9
			c-0.6-0.5-1.9-1.1-3.7-1.8c-1.7-0.7-3-1.2-3.7-1.7s-1.3-1-1.6-1.6c-0.4-0.6-0.5-1.3-0.5-2.2c0-1.5,0.6-2.7,1.9-3.6
			c1.2-0.9,2.9-1.3,5.1-1.3c2,0,4,0.4,5.9,1.2l-1,2.3c-1.9-0.8-3.6-1.2-5.1-1.2c-1.3,0-2.4,0.2-3,0.6c-0.7,0.4-1,1-1,1.7
			c0,0.5,0.1,0.9,0.4,1.3c0.3,0.4,0.7,0.7,1.2,1c0.6,0.3,1.7,0.8,3.3,1.4c2.2,0.8,3.7,1.6,4.5,2.4C-8.8,814.6-8.4,815.7-8.4,816.9"
			/>
	</g>
	<g>
		<defs>
			<rect id="SVGID_217_" x="-39" y="355.8" width="762.5" height="479.7"/>
		</defs>
		<clipPath id="SVGID_218_">
			<use xlink:href="#SVGID_217_"  style="overflow:visible;"/>
		</clipPath>
		<path class="st24" d="M3.7,822.3c-2.7,0-4.8-0.8-6.3-2.5s-2.2-4-2.2-7.1c0-3.1,0.8-5.5,2.3-7.3c1.5-1.7,3.7-2.6,6.4-2.6
			c0.9,0,1.8,0.1,2.7,0.3s1.6,0.4,2.1,0.7l-0.9,2.4c-0.6-0.3-1.3-0.5-2-0.6c-0.7-0.2-1.4-0.2-2-0.2c-3.8,0-5.7,2.4-5.7,7.3
			c0,2.3,0.5,4.1,1.4,5.3s2.3,1.8,4.1,1.8c1.6,0,3.2-0.3,4.8-1v2.5C7.1,822,5.6,822.3,3.7,822.3"/>
	</g>
	<g>
		<defs>
			<rect id="SVGID_219_" x="-39" y="355.8" width="762.5" height="479.7"/>
		</defs>
		<clipPath id="SVGID_220_">
			<use xlink:href="#SVGID_219_"  style="overflow:visible;"/>
		</clipPath>
		<path class="st25" d="M21.4,802.9c0.8,0,1.6,0.1,2.2,0.2l-0.4,2.6c-0.8-0.2-1.5-0.3-2-0.3c-1.5,0-2.8,0.6-3.9,1.8
			c-1.1,1.2-1.6,2.8-1.6,4.6v10h-2.8v-18.7h2.3l0.3,3.5h0.1c0.7-1.2,1.5-2.2,2.5-2.8C19.1,803.3,20.2,802.9,21.4,802.9"/>
	</g>
	<g>
		<defs>
			<rect id="SVGID_221_" x="-39" y="355.8" width="762.5" height="479.7"/>
		</defs>
		<clipPath id="SVGID_222_">
			<use xlink:href="#SVGID_221_"  style="overflow:visible;"/>
		</clipPath>
		<path class="st26" d="M42,807.4H26.1"/>
	</g>
	<g>
		<defs>
			<rect id="SVGID_223_" x="-39" y="355.8" width="762.5" height="479.7"/>
		</defs>
		<clipPath id="SVGID_224_">
			<use xlink:href="#SVGID_223_"  style="overflow:visible;"/>
		</clipPath>
	</g>
	<g>
		<defs>
			<rect id="SVGID_225_" x="-39" y="355.8" width="762.5" height="479.7"/>
		</defs>
		<clipPath id="SVGID_226_">
			<use xlink:href="#SVGID_225_"  style="overflow:visible;"/>
		</clipPath>
	</g>
	<g>
		<defs>
			<rect id="SVGID_227_" x="-39" y="355.8" width="762.5" height="479.7"/>
		</defs>
		<clipPath id="SVGID_228_">
			<use xlink:href="#SVGID_227_"  style="overflow:visible;"/>
		</clipPath>
	</g>
	<g>
		<defs>
			<rect id="SVGID_229_" x="-39" y="355.8" width="762.5" height="479.7"/>
		</defs>
		<clipPath id="SVGID_230_">
			<use xlink:href="#SVGID_229_"  style="overflow:visible;"/>
		</clipPath>
	</g>
	<g>
		<defs>
			<rect id="SVGID_231_" x="-39" y="355.8" width="762.5" height="479.7"/>
		</defs>
		<clipPath id="SVGID_232_">
			<use xlink:href="#SVGID_231_"  style="overflow:visible;"/>
		</clipPath>
	</g>
	<g>
		<defs>
			<rect id="SVGID_233_" x="-39" y="355.8" width="762.5" height="479.7"/>
		</defs>
		<clipPath id="SVGID_234_">
			<use xlink:href="#SVGID_233_"  style="overflow:visible;"/>
		</clipPath>
	</g>
	<g>
		<defs>
			<rect id="SVGID_235_" x="-39" y="355.8" width="762.5" height="479.7"/>
		</defs>
		<clipPath id="SVGID_236_">
			<use xlink:href="#SVGID_235_"  style="overflow:visible;"/>
		</clipPath>
		<path class="st27" d="M81.8,518H55.7 M81.8,529.3H55.7"/>
	</g>
	<g>
		<defs>
			<rect id="SVGID_237_" x="-39" y="355.8" width="762.5" height="479.7"/>
		</defs>
		<clipPath id="SVGID_238_">
			<use xlink:href="#SVGID_237_"  style="overflow:visible;"/>
		</clipPath>
		<line class="st28" x1="42.7" y1="500.9" x2="42.7" y2="530.6"/>
	</g>
	<g>
		<defs>
			<rect id="SVGID_239_" x="-39" y="355.8" width="762.5" height="479.7"/>
		</defs>
		<clipPath id="SVGID_240_">
			<use xlink:href="#SVGID_239_"  style="overflow:visible;"/>
		</clipPath>
		<line class="st29" x1="42.7" y1="538.8" x2="42.7" y2="540.5"/>
	</g>
	<g>
		<defs>
			<rect id="SVGID_241_" x="-39" y="355.8" width="762.5" height="479.7"/>
		</defs>
		<clipPath id="SVGID_242_">
			<use xlink:href="#SVGID_241_"  style="overflow:visible;"/>
		</clipPath>
		<path class="st30" d="M661.4,609.5h-26.1 M661.4,620.8h-26.1"/>
	</g>
	<g>
		<defs>
			<rect id="SVGID_243_" x="-39" y="355.8" width="762.5" height="479.7"/>
		</defs>
		<clipPath id="SVGID_244_">
			<use xlink:href="#SVGID_243_"  style="overflow:visible;"/>
		</clipPath>
		<line class="st31" x1="622.3" y1="592.5" x2="622.3" y2="622.1"/>
	</g>
	<g>
		<defs>
			<rect id="SVGID_245_" x="-39" y="355.8" width="762.5" height="479.7"/>
		</defs>
		<clipPath id="SVGID_246_">
			<use xlink:href="#SVGID_245_"  style="overflow:visible;"/>
		</clipPath>
		<line class="st32" x1="622.3" y1="630.3" x2="622.3" y2="632"/>
	</g>
</g>
<g id="XMLID_64_">
	<g id="XMLID_73_">
		<path id="XMLID_24_" class="st1" d="M238.4,483.8c21.6,0,53.7,17.5,53.7,39.1l3.9,13.9h-96.7v-13.9
			C199.2,501.3,216.8,483.8,238.4,483.8z"/>
		<path id="XMLID_21_" class="st33" d="M464.8,483.8c23.2,0,42.1,18.8,42.1,42.1c0,0,0.1,270.1,0.1,270.6
			c0,21.1,16.7,38.3,37.6,39.1H320c-23.2,0-42.1-18.8-42.1-42.1c0,0-0.1-270.1-0.1-270.6c0-21.1-16.7-38.3-37.6-39.1H464.8z"/>
		<path id="XMLID_20_" class="st1" d="M360.2,796.4v-13.9h225.4v13.9c0,21.6-17.5,39.1-39.1,39.1c-2.4,0-208.6,0-225.4,0
			C342.7,835.5,360.2,818,360.2,796.4z"/>
	</g>
	<g id="XMLID_65_">
		<polygon id="XMLID_17_" class="st2" points="323.7,752.8 336.3,742.4 349.6,752.8 349.6,717.4 323.7,717.4 		"/>
		<g id="XMLID_66_">
			<g id="XMLID_16_">
				<path class="st34" d="M363.5,703.9c0-5.1,1.1-10.6-1.3-14.8c-2.5-4.3-7.8-6.1-12.1-8.5c-4.2-2.4-8.3-6.2-13.5-6.2
					c-5.1,0-9.3,3.8-13.5,6.2c-4.3,2.5-9.6,4.3-12.1,8.5c-2.4,4.2-1.3,9.6-1.3,14.8c0,5.1-1.1,10.6,1.3,14.8
					c2.5,4.3,7.8,6.1,12.1,8.5c4.2,2.4,8.3,6.2,13.5,6.2c5.1,0,9.3-3.8,13.5-6.2c4.3-2.5,9.6-4.3,12.1-8.5
					C364.6,714.5,363.5,709.1,363.5,703.9z"/>
				<path class="st35" d="M363.5,703.9c0-5.1,1.1-10.6-1.3-14.8c-2.5-4.3-7.8-6.1-12.1-8.5c-4.2-2.4-8.3-6.2-13.5-6.2
					c-5.1,0-9.3,3.8-13.5,6.2c-4.3,2.5-9.6,4.3-12.1,8.5c-2.4,4.2-1.3,9.6-1.3,14.8c0,5.1-1.1,10.6,1.3,14.8
					c2.5,4.3,7.8,6.1,12.1,8.5c4.2,2.4,8.3,6.2,13.5,6.2c5.1,0,9.3-3.8,13.5-6.2c4.3-2.5,9.6-4.3,12.1-8.5
					C364.6,714.5,363.5,709.1,363.5,703.9z"/>
			</g>
			<circle id="XMLID_15_" class="st2" cx="336.6" cy="703.9" r="18.8"/>
			<path id="XMLID_14_" class="st36" d="M336.6,722.7c10.4,0,18.8-8.4,18.8-18.8c0-10.4-8.4-18.8-18.8-18.8"/>
		</g>
	</g>
</g>
<line class="st3" x1="420.6" y1="566.8" x2="433.3" y2="566.8"/>
<line class="st3" x1="420.6" y1="578.5" x2="433.3" y2="578.5"/>
<line class="st3" x1="420.6" y1="590.2" x2="433.3" y2="590.2"/>
<line class="st3" x1="420.6" y1="602" x2="433.3" y2="602"/>
<line class="st3" x1="420.6" y1="613.7" x2="433.3" y2="613.7"/>
<line class="st3" x1="420.6" y1="625.4" x2="433.3" y2="625.4"/>
<line class="st3" x1="420.6" y1="637.1" x2="433.3" y2="637.1"/>
<line class="st3" x1="420.6" y1="648.8" x2="433.3" y2="648.8"/>
<line class="st3" x1="420.6" y1="660.5" x2="433.3" y2="660.5"/>
<line class="st3" x1="420.6" y1="672.2" x2="433.3" y2="672.2"/>
<line class="st3" x1="420.6" y1="683.9" x2="433.3" y2="683.9"/>
<line class="st3" x1="420.6" y1="695.6" x2="433.3" y2="695.6"/>
<line class="st3" x1="420.6" y1="707.3" x2="433.3" y2="707.3"/>
<line class="st3" x1="420.6" y1="719" x2="433.3" y2="719"/>
<line class="st3" x1="420.6" y1="730.7" x2="433.3" y2="730.7"/>
<line class="st3" x1="420.6" y1="742.4" x2="433.3" y2="742.4"/>
<line class="st3" x1="448.5" y1="571.6" x2="479.6" y2="571.6"/>
<line class="st3" x1="448.5" y1="710.3" x2="479.6" y2="710.3"/>
<line class="st3" x1="463.3" y1="733.5" x2="486.5" y2="733.5"/>
<line class="st3" x1="460.8" y1="591.9" x2="497.4" y2="591.9"/>
<line class="st3" x1="294.9" y1="563" x2="341.1" y2="563"/>
<line class="st3" x1="319.9" y1="575" x2="366.1" y2="575"/>
<line class="st3" x1="335.2" y1="585.8" x2="396.7" y2="585.8"/>
<line class="st3" x1="335.2" y1="600" x2="396.7" y2="600"/>
<line class="st3" x1="335.2" y1="614.2" x2="396.7" y2="614.2"/>
<line class="st3" x1="335.2" y1="628.4" x2="396.7" y2="628.4"/>
<line class="st3" x1="335.2" y1="642.6" x2="396.7" y2="642.6"/>
<line class="st3" x1="335.2" y1="656.8" x2="396.7" y2="656.8"/>
<g id="XMLID_49_">
	<g id="XMLID_50_">
		<g id="XMLID_54_">
			<line id="XMLID_11_" class="st37" x1="346.5" y1="440.5" x2="346.5" y2="514.5"/>
			<path id="XMLID_10_" class="st0" d="M506.1,529.9l-76.3-4c-2.6-0.1-5.2-0.9-7.5-2.2l-70.7-39.2l10.2-34.7l154.6,45.4L506.1,529.9
				z"/>
			<path id="XMLID_8_" class="st1" d="M334,435.1l112-1.9c3-0.1,5.9,0.8,8.4,2.4l95.7,63.1c2.7,1.8,1.3,5.9-1.9,5.8l-111.4-5.6
				c-3.5-0.2-7-1.2-10.1-3l-94.2-54.6C329.5,439.6,330.7,435.1,334,435.1z"/>
			<path id="XMLID_7_" class="st0" d="M436.9,492.9c-2.8-0.1-5.7-1-8.1-2.4l-91.2-52.9l108.6-1.9c2,0,4,0.6,5.7,1.7l92.1,60.8
				L436.9,492.9z"/>
		</g>
		<path id="XMLID_6_" class="st38" d="M357.2,537.5h-10.6l-3.7-10.9l-2.3,10.9h-5.2v-20.1c0-6,4.9-10.9,10.9-10.9l0,0
			c6,0,10.9,4.9,10.9,10.9V537.5z"/>
	</g>
</g>
</svg>
