<?xml version="1.0" encoding="utf-8"?>
<!-- Generator: Adobe Illustrator 19.0.0, SVG Export Plug-In . SVG Version: 6.00 Build 0)  -->
<svg version="1.1" id="All_Artboard" xmlns="http://www.w3.org/2000/svg" xmlns:xlink="http://www.w3.org/1999/xlink" x="0px"
	 y="0px" viewBox="0 0 281.3 262.4" style="enable-background:new 0 0 281.3 262.4;" xml:space="preserve">
<style type="text/css">
	.st0{fill-rule:evenodd;clip-rule:evenodd;}
	.st1{fill-rule:evenodd;clip-rule:evenodd;fill:#FFFFFF;}
</style>
<g id="IncubateIND_Full_Logo">
	<path id="XMLID_504_" class="st0" d="M576.9,351.1v-44c0-6.1-5-11.1-11.1-11.1H347.6c-6.1,0-11.1,5-11.1,11.1v219.2
		c0,6.1,5,11.1,11.1,11.1h347.8c6.1,0,11.1-5,11.1-11.1v-53.7c0-6.1,5-12.1,11.1-12.1h125.6c6.1,0,11.1-4,11.1-10.1v-77
		c0-6.1-5-11.1-11.1-11.1H588C581.9,362.2,576.9,357.2,576.9,351.1z"/>
	<g id="XMLID_501_">
		<path id="XMLID_473_" class="st1" d="M348.1,417.3c0-35.4,0-70.8,0-106.2c0-1.9,0.4-2.4,2.4-2.4c70.5,0.1,141.1,0.1,211.6,0
			c2.1,0,2.7,0.4,2.6,2.6c-0.2,2.7-0.2,5.4,0,8c0.1,2-0.6,2.5-2.4,2.2c-0.5-0.1-0.9,0-1.4,0c-65.6,0-131.3,0-196.9-0.1
			c-2.3,0-3.1,0.4-3.1,3c0.1,62,0.1,124,0,186.1c0,2.2,0.7,2.6,2.7,2.6c60.4-0.1,120.9,0,181.3-0.1c2.3,0,3,0.5,2.8,2.8
			c-0.2,2.6-0.2,5.2,0,7.8c0.1,2-0.6,2.5-2.4,2.2c-0.2,0-0.3,0-0.5,0c-64.7,0-129.4,0-194.1,0.1c-2.1,0-2.7-0.5-2.7-2.7
			C348.1,487.9,348.1,452.6,348.1,417.3z"/>
		<path id="XMLID_472_" class="st1" d="M594.3,489.7c0.8-1.1,0.5-2,0.5-2.8c0-11.6,0.1-23.2,0-34.7c0-1.7,0.4-2.4,2.2-2.2
			c2.4,0.2,4.9,0.1,7.3,0c1.2,0,1.6,0.4,1.6,1.6c0,23.9,0,47.8,0,71.6c0,1.4-0.5,1.7-1.8,1.6c-2.9-0.1-5.8-0.2-8.7,0
			c-1.7,0.1-2.3-0.5-2.7-2.1c-3.9-14.8-7.9-29.5-11.9-44.3c-0.4-1.3-0.7-2.6-1.4-3.9c0,10.6,0,21.2,0,31.9c0,5.4,0,10.9,0,16.3
			c0,1.5-0.2,2.1-1.9,2c-2.4-0.1-4.9-0.2-7.3,0c-1.8,0.1-2.1-0.6-2.1-2.2c0.1-10.5,0-21,0-31.4c0-13,0-26,0-39
			c0-1.7,0.4-2.3,2.2-2.3c3.7,0.1,7.4,0.2,11.1,0c1.7-0.1,2.3,0.6,2.7,2.1c3.1,11.9,6.3,23.8,9.5,35.6
			C593.7,488.2,594,488.8,594.3,489.7z"/>
		<path id="XMLID_471_" class="st1" d="M596.3,415.2c0-13.2,0-26.3,0-39.5c0-1.9,0.4-2.4,2.3-2.3c2.1,0.2,4.3,0.2,6.4,0
			c1.9-0.2,2.2,0.6,2.1,2.3c-0.1,13.6,0,27.1,0,40.7c0,9.8,0,19.5,0,29.3c0,1.7-0.3,2.4-2.2,2.3c-2.7-0.2-5.4-0.2-8,0
			c-1.8,0.1-2.4-0.6-2.8-2.2c-4.2-15.7-8.5-31.3-12.8-47c-0.2-0.7-0.4-1.5-1-2.2c0,0.8,0,1.5,0,2.3c0,15.5-0.1,31,0.1,46.6
			c0,2.2-0.6,2.6-2.6,2.5c-2.1-0.2-4.3-0.1-6.4,0c-1.5,0.1-2-0.4-2-2c0.1-10.5,0-21,0-31.4c0-13,0-26,0-39c0-1.7,0.5-2.1,2.1-2.1
			c3.8,0.1,7.6,0.1,11.3,0c1.4,0,1.9,0.4,2.2,1.7c3.6,13.2,7.2,26.3,10.8,39.5c0.1,0.2,0.1,0.4,0.2,0.6
			C596.1,415.3,596.2,415.2,596.3,415.2z"/>
		<path id="XMLID_523_" class="st1" d="M719.9,408.2c5.9,2.9,7.8,7.9,8.1,13.8c0.3,4.7,0.5,9.4-0.6,14.1c-1.7,7-6.7,11.3-13.9,11.6
			c-6.8,0.3-13.7,0.1-20.6,0.3c-1.7,0-1.5-0.9-1.5-2c0-10.8,0-21.6,0-32.4c0-12.7,0-25.4-0.1-38.1c0-1.8,0.5-2.2,2.2-2.2
			c6.1,0.1,12.1,0.1,18.2,0.2c9.1,0.2,14.7,5.7,15,14.7c0.1,3.5,0.3,7.1-0.4,10.6C725.6,402.8,723.6,406,719.9,408.2L719.9,408.2z
			 M703.6,425.6L703.6,425.6c0,1.7,0,3.3,0,5c0,2-0.7,4.8,0.3,5.9c1.2,1.3,4,0.4,6.1,0.4c3.8,0,5.7-1.6,5.9-5.5
			c0.2-3.4,0.2-6.8,0-10.1c-0.3-4.8-2.4-6.6-7.3-6.7c-1.2,0-2.4,0.1-3.5,0c-1.2-0.1-1.6,0.3-1.6,1.6
			C703.6,419.3,703.6,422.5,703.6,425.6L703.6,425.6z M703.6,393.8L703.6,393.8c0,1.7,0,3.5,0,5.2c0,5.2,0,5.2,5.4,4.5
			c3.9-0.5,5.3-2,5.8-5.9c0.2-1.9,0.3-3.9,0.2-5.9c-0.2-6-1.8-7.4-7.8-7.4c-0.7,0-1.4,0.1-2.1,0c-1.1-0.1-1.5,0.3-1.5,1.4
			C703.6,388.5,703.6,391.1,703.6,393.8z"/>
		<path id="XMLID_467_" class="st1" d="M564.6,449.2c0,24.5,0,49,0.1,73.5c0,2.1-0.6,2.7-2.6,2.6c-2.8-0.2-5.7-0.1-8.5,0
			c-1.5,0.1-2-0.5-1.8-1.9c0.1-0.4,0-0.8,0-1.2c0-48.8,0-97.5-0.1-146.3c0-2.5,0.7-3,3-2.9c2.7,0.2,5.4,0.1,8,0c1.5-0.1,2,0.4,2,1.9
			c-0.1,6.2,0,12.4,0,18.7C564.6,412.1,564.6,430.7,564.6,449.2z"/>
		<path id="XMLID_519_" class="st1" d="M611,487.3c0-11.7,0-23.5,0-35.2c0-1.3,0-2.2,1.8-2.2c6.5,0.1,13.1-0.1,19.6,0.2
			c8.6,0.4,14.6,6.2,14.9,14.9c0.5,14.9,0.5,29.8,0,44.6c-0.3,8.8-6.6,14.8-15.6,15.1c-6.4,0.2-12.8,0-19.1,0.1
			c-1.8,0-1.6-1-1.6-2.1C611,510.9,611,499.1,611,487.3L611,487.3z M623.4,487.5L623.4,487.5c0,6.9,0,13.7,0,20.6
			c0,5.4,0,5.4,5.5,5.4c4.3,0,6.1-1.8,6.2-6.2c0-3.1,0-6.1,0-9.2c0-10.2,0-20.5,0-30.7c0-4.2-1.8-6-5.8-6c-1.1,0-2.2,0.1-3.3,0
			c-2-0.3-2.7,0.3-2.6,2.5C623.5,471.7,623.4,479.6,623.4,487.5z"/>
		<path id="XMLID_464_" class="st1" d="M686.2,404.3c0,9.1,0.1,18.1,0,27.2c-0.1,6.8-2.2,12.8-8.9,15.6c-7,2.9-14.2,2.8-20.6-2
			c-3.5-2.6-4.9-6.5-5.4-10.6c-0.3-2.3-0.4-4.7-0.4-7.1c0-17.1,0-34.2-0.1-51.3c0-2.3,0.7-2.8,2.7-2.6c2.4,0.2,4.9,0.2,7.3,0
			c1.8-0.1,2.2,0.5,2.2,2.2c-0.1,17.8,0,35.6,0,53.4c0,1.6-0.1,3.1,0.4,4.7c0.8,2.7,2.4,4,5.3,4c3.1,0.1,4.9-1.1,5.7-3.9
			c0.4-1.2,0.4-2.5,0.4-3.7c0-18.1,0-36.2-0.1-54.4c0-2,0.5-2.6,2.4-2.4c2.3,0.2,4.7,0.1,7.1,0c1.6-0.1,1.9,0.4,1.9,1.9
			C686.2,385,686.2,394.6,686.2,404.3z"/>
		<path id="XMLID_515_" class="st1" d="M750,373.5c2.4,0,4.7,0.1,7.1,0c1.1,0,1.7,0.3,1.9,1.5c2.4,15,4.8,30.1,7.2,45.1
			c1.3,8.3,2.7,16.6,4.1,24.9c0.5,2.9,0.5,2.9-2.5,2.9c-2.5,0-5-0.1-7.6,0c-1.4,0.1-1.9-0.5-2.1-1.8c-0.4-3.4-1-6.7-1.4-10
			c-0.1-1.2-0.6-1.6-1.8-1.6c-3.6,0.1-7.2,0.1-10.9,0c-1.5-0.1-1.9,0.5-2.1,1.8c-0.4,3.3-1,6.7-1.4,10c-0.1,1.2-0.5,1.6-1.7,1.6
			c-2.8-0.1-5.5-0.1-8.3,0c-1.2,0-1.4-0.4-1.2-1.5c3.3-19.9,6.5-39.8,9.7-59.8c0.6-4,1.3-7.9,1.9-11.9c0.1-1,0.5-1.3,1.5-1.3
			C745,373.5,747.5,373.5,750,373.5L750,373.5z M754.8,424L754.8,424c-1.8-11.8-3.5-23.4-5.3-35c-0.1,0-0.2,0-0.3,0
			c-1.8,11.6-3.5,23.3-5.3,35C747.5,424,751.1,424,754.8,424z"/>
		<path id="XMLID_461_" class="st1" d="M611.9,410.6c0-7.2-0.3-14.4,0.1-21.5c0.6-13.5,10.3-17.8,21-16.2
			c9.3,1.3,13.8,7.2,14.1,17.6c0.1,2.2,0,4.4,0,6.6c0,1.2-0.2,1.7-1.5,1.7c-2.8-0.1-5.7-0.1-8.5,0c-1.2,0-1.5-0.4-1.4-1.5
			c0.1-2.6,0.1-5.2,0-7.8c-0.3-4.6-3.7-6.9-8-5.5c-2.3,0.7-3.5,2.6-3.6,4.8c-0.4,14.6-0.5,29.3,0,43.9c0.1,4.1,3.4,5.9,7.5,4.9
			c2.6-0.6,4-2.5,4.1-5.8c0.1-3.4,0.1-6.8,0-10.2c0-1.2,0.4-1.6,1.6-1.6c2.8,0.1,5.7,0,8.5,0c0.8,0,1.4,0.1,1.4,1.1
			c-0.2,5.2,0.5,10.4-0.7,15.5c-1.7,7-6.4,11.1-13.5,11.9c-6.1,0.7-12,0.1-16.6-4.7c-3.5-3.7-4.4-8.2-4.4-13.1
			C611.8,424,611.8,417.3,611.9,410.6C611.8,410.6,611.9,410.6,611.9,410.6z"/>
		<path id="XMLID_460_" class="st1" d="M808.7,410.7c0-11.7,0-23.3,0-35c0-1.7,0.3-2.3,2.1-2.2c9.5,0.1,18.9,0.1,28.4,0
			c1.7,0,2.1,0.5,2,2.1c-0.1,2.3-0.1,4.6,0,6.8c0.1,1.6-0.5,2-2,1.9c-5.5-0.1-11,0-16.5-0.1c-1.5,0-1.9,0.4-1.8,1.8
			c0.1,5.6,0.1,11.2,0,16.8c0,1.4,0.3,1.9,1.8,1.8c4.2-0.1,8.4,0,12.5-0.1c1.6,0,2,0.5,1.9,2c-0.1,2.3-0.1,4.6,0,6.8
			c0.1,1.6-0.3,2.2-2,2.1c-4.2-0.1-8.4,0-12.5-0.1c-1.4,0-1.7,0.4-1.7,1.7c0.1,6,0.1,12,0,18c0,1.3,0.4,1.7,1.7,1.7
			c5.6-0.1,11.2,0,16.8-0.1c1.4,0,2,0.3,1.9,1.8c-0.1,2.5-0.1,5,0,7.6c0,1.2-0.3,1.7-1.6,1.7c-9.8,0-19.5-0.1-29.3,0
			c-1.7,0-1.6-0.9-1.6-2C808.7,434.2,808.7,422.4,808.7,410.7z"/>
		<path id="XMLID_459_" class="st1" d="M439.2,469.2c-1.7,0-3.3-0.1-5,0c-2.1,0.2-2.1-0.6-1.4-2.3c5.5-13.9,11-27.8,16.5-41.7
			c6.9-17.5,13.8-35,20.7-52.5c0.6-1.6,1.4-2.1,3-2c3.2,0.1,6.5,0.1,9.7,0c1.6,0,2.3,0.1,1.6,2.1c-8.2,20.5-16.3,41.1-24.4,61.6
			c-4.3,10.9-8.6,21.7-12.8,32.6c-0.7,1.8-1.6,2.4-3.4,2.2C442.2,469,440.7,469.2,439.2,469.2z"/>
		<path id="XMLID_458_" class="st1" d="M794.1,416.3c0,9.8,0,19.7,0,29.5c0,1.7-0.4,2.2-2.1,2.1c-2.6-0.1-5.2-0.2-7.8,0
			c-1.8,0.1-2.2-0.5-2.2-2.2c0.1-18.5,0-37,0-55.6c0-1.4-0.1-2.8,0-4.3c0.1-1.2-0.3-1.6-1.6-1.6c-3.1,0.1-6.1,0-9.2,0.1
			c-1.3,0-1.6-0.4-1.6-1.6c0.1-2.6,0.1-5.2,0-7.8c-0.1-1.4,0.5-1.5,1.7-1.5c11.1,0,22.2,0,33.3,0c1.2,0,1.7,0.2,1.6,1.5
			c-0.1,2.5-0.1,5,0,7.6c0.1,1.5-0.5,1.9-1.9,1.8c-2.8-0.1-5.7,0.1-8.5-0.1c-1.6-0.1-2,0.4-2,2C794.2,396.3,794.1,406.3,794.1,416.3
			z"/>
		<path id="XMLID_457_" class="st1" d="M524.2,420c-9.7-3.5-18.9-6.8-28.1-10c-1.7-0.6-2.4-1.3-2.2-3.1c0.2-2.4,0.1-4.7,0-7.1
			c-0.1-2,0.4-2.5,2.4-1.7c12.2,4.6,24.4,9,36.6,13.5c2.4,0.9,5.7,1,6.9,3c1.1,1.8,0.3,4.9,0.3,7.4c0,0.6-0.1,1.3,0,1.9
			c0.2,1.5-0.4,2.1-1.9,2.6c-14,5.1-28,10.3-41.9,15.4c-2.4,0.9-2.4,0.9-2.4-1.8c0-2.4,0.1-4.9,0-7.3c-0.1-1.5,0.4-2.2,1.9-2.7
			C505.1,426.9,514.4,423.5,524.2,420z"/>
		<path id="XMLID_456_" class="st1" d="M392.8,420.1c9.6,3.5,18.8,6.8,28.1,10c1.5,0.5,2.2,1.1,2.1,2.8c-0.2,2.7-0.1,5.4,0,8
			c0,1.3-0.1,1.9-1.7,1.3c-14.4-5.4-28.8-10.6-43.2-15.9c-1-0.4-1.4-0.9-1.2-1.9c0-0.2,0-0.3,0-0.5c0-3.1-1-6.9,0.4-9.3
			c1.4-2.4,5.5-2.5,8.4-3.6c11.7-4.4,23.4-8.6,35-13c2.1-0.8,2.5-0.2,2.3,1.7c-0.1,1.6,0,3.3,0,5c0,4.5,0,4.5-4.4,6.1
			c-8,2.8-15.9,5.7-23.9,8.5C394.2,419.5,393.7,419.8,392.8,420.1z"/>
		<path id="XMLID_455_" class="st1" d="M683.5,517.9c0.7-3,1.5-6,2.2-9c0.5-2.3,1.1-4.6,1.6-6.9c0.2-0.9,0.6-1.5,1.7-1.4
			c1.4,0.1,1,1,1,1.6c0,6.3,0,12.6,0,18.9c0,0.6,0.5,1.6-0.7,1.6c-1.1,0-0.8-0.9-0.8-1.6c0-3.9,0-7.7,0-11.6c0-0.8,0.2-1.6-0.5-2.7
			c-1.1,4.5-2.1,8.7-3.1,12.9c-0.1,0.5-0.2,0.9-0.3,1.4c-0.1,0.7-0.2,1.4-1.2,1.4c-1,0-1.1-0.7-1.3-1.4c-1.1-4.7-2.2-9.5-3.4-14.2
			c0-0.1-0.1-0.2-0.5-0.8c0,4.8,0,9.1,0,13.4c0,0.6,0,1.3,0,1.9c0,0.6,0.1,1.4-0.9,1.3c-0.9-0.1-0.9-0.7-0.9-1.4c0-1.2,0-2.4,0-3.5
			c0-5.1,0-10.2,0-15.4c0-0.7-0.5-1.8,1-1.8c1.1,0,1.5,0.3,1.8,1.5c1.2,5.3,2.5,10.5,3.8,15.7C683.2,517.9,683.3,517.9,683.5,517.9z
			"/>
		<path id="XMLID_505_" class="st1" d="M664.5,511.5c0-1.9,0-3.8,0-5.7c0.1-3.4,1.8-5.5,4.7-5.6c3-0.1,4.9,1.6,5.1,5.1
			c0.2,4.3,0.3,8.6,0,12.9c-0.2,2.9-1.8,4.4-4.4,4.6c-3,0.2-4.9-1.1-5.3-4.1c-0.3-2.4-0.1-4.8-0.1-7.3
			C664.6,511.5,664.6,511.5,664.5,511.5L664.5,511.5z M666.3,511.6L666.3,511.6C666.4,511.6,666.4,511.6,666.3,511.6
			c0,2.2-0.1,4.4,0.1,6.6c0.1,1.6,0.9,3,2.9,3c2,0,3.1-1,3.2-2.9c0.4-4.3,0.4-8.6,0-12.9c-0.2-2.5-1.2-3.4-3.4-3.2
			c-2.3,0.1-2.8,1.8-2.9,3.6C666.3,507.7,666.3,509.6,666.3,511.6z"/>
		<path id="XMLID_452_" class="st1" d="M653,511.7c0-2.3-0.1-4.6,0-6.8c0.2-2.9,2.1-4.6,4.7-4.5c2.7,0,4.6,1.9,4.8,4.8
			c0,0.2,0.1,0.5,0,0.7c-0.3,0.8,0.7,2.2-0.7,2.3c-1.7,0.1-1-1.5-1-2.3c-0.2-2.5-1.1-3.7-3-3.7c-2,0-3,1.1-3.1,3.6
			c-0.1,3.9-0.1,7.9,0,11.8c0.1,2.6,1,3.6,3.1,3.6c2,0,2.8-1.1,3-3.7c0.1-1-0.9-2.9,0.9-2.8c1.7,0,0.8,1.9,0.8,2.9
			c0.1,3.5-1.7,5.4-4.7,5.4c-3.1,0-4.7-1.8-4.8-5.4C652.9,515.6,652.9,513.6,653,511.7C652.9,511.7,653,511.7,653,511.7z"/>
		<path id="XMLID_451_" class="st1" d="M651.1,521c0,0.8,0.2,1.6-0.9,1.6c-1.4,0-0.8-1-0.9-1.7c-0.1-0.7-0.2-1.4,1-1.3
			C651.4,519.7,651,520.6,651.1,521z"/>
	</g>
	<g id="XMLID_71_">
		<path id="XMLID_107_" class="st0" d="M342,133.6c0-35.4,0-70.8,0-106.2c0-1.9,0.4-2.4,2.4-2.4C414.9,25,485.4,25,556,25
			c2.1,0,2.7,0.4,2.6,2.6c-0.2,2.7-0.2,5.4,0,8c0.1,2-0.6,2.5-2.4,2.2c-0.5-0.1-0.9,0-1.4,0c-65.6,0-131.3,0-196.9-0.1
			c-2.3,0-3.1,0.4-3.1,3c0.1,62,0.1,124,0,186.1c0,2.2,0.7,2.6,2.7,2.6c60.4-0.1,120.9,0,181.3-0.1c2.3,0,3,0.5,2.8,2.8
			c-0.2,2.6-0.2,5.2,0,7.8c0.1,2-0.6,2.5-2.4,2.2c-0.2,0-0.3,0-0.5,0c-64.7,0-129.4,0-194.1,0.1c-2.1,0-2.7-0.5-2.7-2.7
			C342,204.2,342,168.9,342,133.6z"/>
		<path id="XMLID_106_" class="st0" d="M588.2,206c0.8-1.1,0.5-2,0.5-2.8c0-11.6,0.1-23.2,0-34.7c0-1.7,0.4-2.4,2.2-2.2
			c2.4,0.2,4.9,0.1,7.3,0c1.2,0,1.6,0.4,1.6,1.6c0,23.9,0,47.8,0,71.6c0,1.4-0.5,1.7-1.8,1.6c-2.9-0.1-5.8-0.2-8.7,0
			c-1.7,0.1-2.3-0.5-2.7-2.1c-3.9-14.8-7.9-29.5-11.9-44.3c-0.4-1.3-0.7-2.6-1.4-3.9c0,10.6,0,21.2,0,31.9c0,5.4,0,10.9,0,16.3
			c0,1.5-0.2,2.1-1.9,2c-2.4-0.1-4.9-0.2-7.3,0c-1.8,0.1-2.1-0.6-2.1-2.2c0.1-10.5,0-21,0-31.4c0-13,0-26,0-39
			c0-1.7,0.4-2.3,2.2-2.3c3.7,0.1,7.4,0.2,11.1,0c1.7-0.1,2.3,0.6,2.7,2.1c3.1,11.9,6.3,23.8,9.5,35.6
			C587.6,204.5,587.9,205.1,588.2,206z"/>
		<path id="XMLID_105_" class="st0" d="M590.3,131.5c0-13.2,0-26.3,0-39.5c0-1.9,0.4-2.4,2.3-2.3c2.1,0.2,4.3,0.2,6.4,0
			c1.9-0.2,2.2,0.6,2.1,2.3c-0.1,13.6,0,27.1,0,40.7c0,9.8,0,19.5,0,29.3c0,1.7-0.3,2.4-2.2,2.3c-2.7-0.2-5.4-0.2-8,0
			c-1.8,0.1-2.4-0.6-2.8-2.2c-4.2-15.7-8.5-31.3-12.8-47c-0.2-0.7-0.4-1.5-1-2.2c0,0.8,0,1.5,0,2.3c0,15.5-0.1,31,0.1,46.6
			c0,2.2-0.6,2.6-2.6,2.5c-2.1-0.2-4.3-0.1-6.4,0c-1.5,0.1-2-0.4-2-2c0.1-10.5,0-21,0-31.4c0-13,0-26,0-39c0-1.7,0.5-2.1,2.1-2.1
			c3.8,0.1,7.6,0.1,11.3,0c1.4,0,1.9,0.4,2.2,1.7c3.6,13.2,7.2,26.3,10.8,39.5c0.1,0.2,0.1,0.4,0.2,0.6
			C590.1,131.5,590.2,131.5,590.3,131.5z"/>
		<path id="XMLID_101_" class="st0" d="M713.8,124.5c5.9,2.9,7.8,7.9,8.1,13.8c0.3,4.7,0.5,9.4-0.6,14.1c-1.7,7-6.7,11.3-13.9,11.6
			c-6.8,0.3-13.7,0.1-20.6,0.3c-1.7,0-1.5-0.9-1.5-2c0-10.8,0-21.6,0-32.4c0-12.7,0-25.4-0.1-38.1c0-1.8,0.5-2.2,2.2-2.2
			c6.1,0.1,12.1,0.1,18.2,0.2c9.1,0.2,14.7,5.7,15,14.7c0.1,3.5,0.3,7.1-0.4,10.6C719.5,119.1,717.5,122.3,713.8,124.5L713.8,124.5z
			 M697.5,141.9L697.5,141.9c0,1.7,0,3.3,0,5c0,2-0.7,4.8,0.3,5.9c1.2,1.3,4,0.4,6.1,0.4c3.8,0,5.7-1.6,5.9-5.5
			c0.2-3.4,0.2-6.8,0-10.1c-0.3-4.8-2.4-6.6-7.3-6.7c-1.2,0-2.4,0.1-3.5,0c-1.2-0.1-1.6,0.3-1.6,1.6
			C697.5,135.6,697.5,138.8,697.5,141.9L697.5,141.9z M697.5,110.1L697.5,110.1c0,1.7,0,3.5,0,5.2c0,5.2,0,5.2,5.4,4.5
			c3.9-0.5,5.3-2,5.8-5.9c0.2-1.9,0.3-3.9,0.2-5.9c-0.2-6-1.8-7.4-7.8-7.4c-0.7,0-1.4,0.1-2.1,0c-1.1-0.1-1.5,0.3-1.5,1.4
			C697.5,104.7,697.5,107.4,697.5,110.1z"/>
		<path id="XMLID_99_" class="st0" d="M558.5,165.5c0,24.5,0,49,0.1,73.5c0,2.1-0.6,2.7-2.6,2.6c-2.8-0.2-5.7-0.1-8.5,0
			c-1.5,0.1-2-0.5-1.8-1.9c0.1-0.4,0-0.8,0-1.2c0-48.8,0-97.5-0.1-146.3c0-2.5,0.7-3,3-2.9c2.7,0.2,5.4,0.1,8,0c1.5-0.1,2,0.4,2,1.9
			c-0.1,6.2,0,12.4,0,18.7C558.5,128.4,558.5,146.9,558.5,165.5z"/>
		<path id="XMLID_96_" class="st0" d="M605,203.6c0-11.7,0-23.5,0-35.2c0-1.3,0-2.2,1.8-2.2c6.5,0.1,13.1-0.1,19.6,0.2
			c8.6,0.4,14.6,6.2,14.9,14.9c0.5,14.9,0.5,29.8,0,44.6c-0.3,8.8-6.6,14.8-15.6,15.1c-6.4,0.2-12.8,0-19.1,0.1
			c-1.8,0-1.6-1-1.6-2.1C605,227.2,605,215.4,605,203.6L605,203.6z M617.4,203.8L617.4,203.8c0,6.9,0,13.7,0,20.6
			c0,5.4,0,5.4,5.5,5.4c4.3,0,6.1-1.8,6.2-6.2c0-3.1,0-6.1,0-9.2c0-10.2,0-20.5,0-30.7c0-4.2-1.8-6-5.8-6c-1.1,0-2.2,0.1-3.3,0
			c-2-0.3-2.7,0.3-2.6,2.5C617.5,188,617.4,195.9,617.4,203.8z"/>
		<path id="XMLID_95_" class="st0" d="M680.1,120.5c0,9.1,0.1,18.1,0,27.2c-0.1,6.8-2.2,12.8-8.9,15.6c-7,2.9-14.2,2.8-20.6-2
			c-3.5-2.6-4.9-6.5-5.4-10.6c-0.3-2.3-0.4-4.7-0.4-7.1c0-17.1,0-34.2-0.1-51.3c0-2.3,0.7-2.8,2.7-2.6c2.4,0.2,4.9,0.2,7.3,0
			c1.8-0.1,2.2,0.5,2.2,2.2c-0.1,17.8,0,35.6,0,53.4c0,1.6-0.1,3.1,0.4,4.7c0.8,2.7,2.4,4,5.3,4c3.1,0.1,4.9-1.1,5.7-3.9
			c0.4-1.2,0.4-2.5,0.4-3.7c0-18.1,0-36.2-0.1-54.4c0-2,0.5-2.6,2.4-2.4c2.3,0.2,4.7,0.1,7.1,0c1.6-0.1,1.9,0.4,1.9,1.9
			C680.1,101.3,680.1,110.9,680.1,120.5z"/>
		<path id="XMLID_92_" class="st0" d="M743.9,89.8c2.4,0,4.7,0.1,7.1,0c1.1,0,1.7,0.3,1.9,1.5c2.4,15,4.8,30.1,7.2,45.1
			c1.3,8.3,2.7,16.6,4.1,24.9c0.5,2.9,0.5,2.9-2.5,2.9c-2.5,0-5-0.1-7.6,0c-1.4,0.1-1.9-0.5-2.1-1.8c-0.4-3.4-1-6.7-1.4-10
			c-0.1-1.2-0.6-1.6-1.8-1.6c-3.6,0.1-7.2,0.1-10.9,0c-1.5-0.1-1.9,0.5-2.1,1.8c-0.4,3.3-1,6.7-1.4,10c-0.1,1.2-0.5,1.6-1.7,1.6
			c-2.8-0.1-5.5-0.1-8.3,0c-1.2,0-1.4-0.4-1.2-1.5c3.3-19.9,6.5-39.8,9.7-59.8c0.6-4,1.3-7.9,1.9-11.9c0.1-1,0.5-1.3,1.5-1.3
			C738.9,89.8,741.4,89.8,743.9,89.8L743.9,89.8z M748.7,140.3L748.7,140.3c-1.8-11.8-3.5-23.4-5.3-35c-0.1,0-0.2,0-0.3,0
			c-1.8,11.6-3.5,23.3-5.3,35C741.5,140.3,745,140.3,748.7,140.3z"/>
		<path id="XMLID_91_" class="st0" d="M605.8,126.9c0-7.2-0.3-14.4,0.1-21.5c0.6-13.5,10.3-17.8,21-16.2c9.3,1.3,13.8,7.2,14.1,17.6
			c0.1,2.2,0,4.4,0,6.6c0,1.2-0.2,1.7-1.5,1.7c-2.8-0.1-5.7-0.1-8.5,0c-1.2,0-1.5-0.4-1.4-1.5c0.1-2.6,0.1-5.2,0-7.8
			c-0.3-4.6-3.7-6.9-8-5.5c-2.3,0.7-3.5,2.6-3.6,4.8c-0.4,14.6-0.5,29.3,0,43.9c0.1,4.1,3.4,5.9,7.5,4.9c2.6-0.6,4-2.5,4.1-5.8
			c0.1-3.4,0.1-6.8,0-10.2c0-1.2,0.4-1.6,1.6-1.6c2.8,0.1,5.7,0,8.5,0c0.8,0,1.4,0.1,1.4,1.1c-0.2,5.2,0.5,10.4-0.7,15.5
			c-1.7,7-6.4,11.1-13.5,11.9c-6.1,0.7-12,0.1-16.6-4.7c-3.5-3.7-4.4-8.2-4.4-13.1C605.7,140.3,605.7,133.6,605.8,126.9
			C605.8,126.9,605.8,126.9,605.8,126.9z"/>
		<path id="XMLID_90_" class="st0" d="M802.6,127c0-11.7,0-23.3,0-35c0-1.7,0.3-2.3,2.1-2.2c9.5,0.1,18.9,0.1,28.4,0
			c1.7,0,2.1,0.5,2,2.1c-0.1,2.3-0.1,4.6,0,6.8c0.1,1.6-0.5,2-2,1.9c-5.5-0.1-11,0-16.5-0.1c-1.5,0-1.9,0.4-1.8,1.8
			c0.1,5.6,0.1,11.2,0,16.8c0,1.4,0.3,1.9,1.8,1.8c4.2-0.1,8.4,0,12.5-0.1c1.6,0,2,0.5,1.9,2c-0.1,2.3-0.1,4.6,0,6.8
			c0.1,1.6-0.3,2.2-2,2.1c-4.2-0.1-8.4,0-12.5-0.1c-1.4,0-1.7,0.4-1.7,1.7c0.1,6,0.1,12,0,18c0,1.3,0.4,1.7,1.7,1.7
			c5.6-0.1,11.2,0,16.8-0.1c1.4,0,2,0.3,1.9,1.8c-0.1,2.5-0.1,5,0,7.6c0,1.2-0.3,1.7-1.6,1.7c-9.8,0-19.5-0.1-29.3,0
			c-1.7,0-1.6-0.9-1.6-2C802.6,150.4,802.6,138.7,802.6,127z"/>
		<path id="XMLID_89_" class="st0" d="M433.1,185.5c-1.7,0-3.3-0.1-5,0c-2.1,0.2-2.1-0.6-1.4-2.3c5.5-13.9,11-27.8,16.5-41.7
			c6.9-17.5,13.8-35,20.7-52.5c0.6-1.6,1.4-2.1,3-2c3.2,0.1,6.5,0.1,9.7,0c1.6,0,2.3,0.1,1.6,2.1c-8.2,20.5-16.3,41.1-24.4,61.6
			c-4.3,10.9-8.6,21.7-12.8,32.6c-0.7,1.8-1.6,2.4-3.4,2.2C436.1,185.3,434.6,185.5,433.1,185.5z"/>
		<path id="XMLID_88_" class="st0" d="M788.1,132.6c0,9.8,0,19.7,0,29.5c0,1.7-0.4,2.2-2.1,2.1c-2.6-0.1-5.2-0.2-7.8,0
			c-1.8,0.1-2.2-0.5-2.2-2.2c0.1-18.5,0-37,0-55.6c0-1.4-0.1-2.8,0-4.3c0.1-1.2-0.3-1.6-1.6-1.6c-3.1,0.1-6.1,0-9.2,0.1
			c-1.3,0-1.6-0.4-1.6-1.6c0.1-2.6,0.1-5.2,0-7.8c-0.1-1.4,0.5-1.5,1.7-1.5c11.1,0,22.2,0,33.3,0c1.2,0,1.7,0.2,1.6,1.5
			c-0.1,2.5-0.1,5,0,7.6c0.1,1.5-0.5,1.9-1.9,1.8c-2.8-0.1-5.7,0.1-8.5-0.1c-1.6-0.1-2,0.4-2,2C788.1,112.6,788.1,122.6,788.1,132.6
			z"/>
		<path id="XMLID_87_" class="st0" d="M518.1,136.3c-9.7-3.5-18.9-6.8-28.1-10c-1.7-0.6-2.4-1.3-2.2-3.1c0.2-2.4,0.1-4.7,0-7.1
			c-0.1-2,0.4-2.5,2.4-1.7c12.2,4.6,24.4,9,36.6,13.5c2.4,0.9,5.7,1,6.9,3c1.1,1.8,0.3,4.9,0.3,7.4c0,0.6-0.1,1.3,0,1.9
			c0.2,1.5-0.4,2.1-1.9,2.6c-14,5.1-28,10.3-41.9,15.4c-2.4,0.9-2.4,0.9-2.4-1.8c0-2.4,0.1-4.9,0-7.3c-0.1-1.5,0.4-2.2,1.9-2.7
			C499,143.2,508.4,139.8,518.1,136.3z"/>
		<path id="XMLID_78_" class="st0" d="M386.8,136.4c9.6,3.5,18.8,6.8,28.1,10c1.5,0.5,2.2,1.1,2.1,2.8c-0.2,2.7-0.1,5.4,0,8
			c0,1.3-0.1,1.9-1.7,1.3c-14.4-5.4-28.8-10.6-43.2-15.9c-1-0.4-1.4-0.9-1.2-1.9c0-0.2,0-0.3,0-0.5c0-3.1-1-6.9,0.4-9.3
			c1.4-2.4,5.5-2.5,8.4-3.6c11.7-4.4,23.4-8.6,35-13c2.1-0.8,2.5-0.2,2.3,1.7c-0.1,1.6,0,3.3,0,5c0,4.5,0,4.5-4.4,6.1
			c-8,2.8-15.9,5.7-23.9,8.5C388.1,135.8,387.6,136,386.8,136.4z"/>
		<path id="XMLID_77_" class="st0" d="M677.4,234.2c0.7-3,1.5-6,2.2-9c0.5-2.3,1.1-4.6,1.6-6.9c0.2-0.9,0.6-1.5,1.7-1.4
			c1.4,0.1,1,1,1,1.6c0,6.3,0,12.6,0,18.9c0,0.6,0.5,1.6-0.7,1.6c-1.1,0-0.8-0.9-0.8-1.6c0-3.9,0-7.7,0-11.6c0-0.8,0.2-1.6-0.5-2.7
			c-1.1,4.5-2.1,8.7-3.1,12.9c-0.1,0.5-0.2,0.9-0.3,1.4c-0.1,0.7-0.2,1.4-1.2,1.4c-1,0-1.1-0.7-1.3-1.4c-1.1-4.7-2.2-9.5-3.4-14.2
			c0-0.1-0.1-0.2-0.5-0.8c0,4.8,0,9.1,0,13.4c0,0.6,0,1.3,0,1.9c0,0.6,0.1,1.4-0.9,1.3c-0.9-0.1-0.9-0.7-0.9-1.4c0-1.2,0-2.4,0-3.5
			c0-5.1,0-10.2,0-15.4c0-0.7-0.5-1.8,1-1.8c1.1,0,1.5,0.3,1.8,1.5c1.2,5.3,2.5,10.5,3.8,15.7C677.1,234.2,677.3,234.2,677.4,234.2z
			"/>
		<path id="XMLID_74_" class="st0" d="M658.5,227.8c0-1.9,0-3.8,0-5.7c0.1-3.4,1.8-5.5,4.7-5.6c3-0.1,4.9,1.6,5.1,5.1
			c0.2,4.3,0.3,8.6,0,12.9c-0.2,2.9-1.8,4.4-4.4,4.6c-3,0.2-4.9-1.1-5.3-4.1c-0.3-2.4-0.1-4.8-0.1-7.3
			C658.6,227.8,658.5,227.8,658.5,227.8L658.5,227.8z M660.3,227.9L660.3,227.9C660.3,227.9,660.3,227.9,660.3,227.9
			c0,2.2-0.1,4.4,0.1,6.6c0.1,1.6,0.9,3,2.9,3c2,0,3.1-1,3.2-2.9c0.4-4.3,0.4-8.6,0-12.9c-0.2-2.5-1.2-3.4-3.4-3.2
			c-2.3,0.1-2.8,1.8-2.9,3.6C660.2,224,660.3,225.9,660.3,227.9z"/>
		<path id="XMLID_73_" class="st0" d="M646.9,227.9c0-2.3-0.1-4.6,0-6.8c0.2-2.9,2.1-4.6,4.7-4.5c2.7,0,4.6,1.9,4.8,4.8
			c0,0.2,0.1,0.5,0,0.7c-0.3,0.8,0.7,2.2-0.7,2.3c-1.7,0.1-1-1.5-1-2.3c-0.2-2.5-1.1-3.7-3-3.7c-2,0-3,1.1-3.1,3.6
			c-0.1,3.9-0.1,7.9,0,11.8c0.1,2.6,1,3.6,3.1,3.6c2,0,2.8-1.1,3-3.7c0.1-1-0.9-2.9,0.9-2.8c1.7,0,0.8,1.9,0.8,2.9
			c0.1,3.5-1.7,5.4-4.7,5.4c-3.1,0-4.7-1.8-4.8-5.4C646.8,231.9,646.8,229.9,646.9,227.9C646.9,227.9,646.9,227.9,646.9,227.9z"/>
		<path id="XMLID_72_" class="st0" d="M645,237.3c0,0.8,0.2,1.6-0.9,1.6c-1.4,0-0.8-1-0.9-1.7c-0.1-0.7-0.2-1.4,1-1.3
			C645.4,236,644.9,236.9,645,237.3z"/>
	</g>
</g>
<g id="XMLID_218_">
	<path id="XMLID_223_" class="st0" d="M36.2,135.2c0-33.9,0-67.7,0-101.6c0-1.9,0.4-2.3,2.3-2.3c67.5,0.1,135,0.1,202.5,0
		c2,0,2.6,0.4,2.5,2.4c-0.2,2.5-0.2,5.1,0,7.7c0.1,1.9-0.6,2.4-2.3,2.1c-0.4-0.1-0.9,0-1.4,0c-62.8,0-125.7,0-188.5-0.1
		c-2.2,0-3,0.4-3,2.8c0.1,59.4,0.1,118.7,0,178.1c0,2.1,0.6,2.5,2.6,2.5c57.9-0.1,115.7,0,173.6-0.1c2.2,0,2.9,0.5,2.7,2.7
		c-0.2,2.5-0.2,5,0,7.5c0.1,1.9-0.6,2.4-2.3,2.1c-0.1,0-0.3,0-0.5,0c-61.9,0-123.8,0-185.8,0c-2,0-2.5-0.5-2.5-2.5
		C36.2,202.8,36.2,169,36.2,135.2z"/>
	<path id="XMLID_222_" class="st0" d="M243.3,165.8c0,23.5,0,46.9,0.1,70.4c0,2.1-0.6,2.6-2.5,2.5c-2.7-0.2-5.4-0.1-8.1,0
		c-1.4,0.1-1.9-0.4-1.7-1.8c0-0.4,0-0.8,0-1.1c0-46.7,0-93.4-0.1-140c0-2.4,0.7-2.9,2.9-2.7c2.5,0.2,5.1,0.1,7.7,0
		c1.5-0.1,1.9,0.3,1.9,1.9c-0.1,6,0,11.9,0,17.9C243.3,130.3,243.3,148.1,243.3,165.8z"/>
	<path id="XMLID_221_" class="st0" d="M123.4,184.9c-1.6,0-3.2-0.1-4.7,0c-2.1,0.2-2-0.6-1.4-2.2c5.3-13.3,10.5-26.6,15.8-40
		c6.6-16.7,13.2-33.5,19.8-50.2c0.6-1.5,1.3-2,2.9-2c3.1,0.1,6.2,0.1,9.3,0c1.5,0,2.2,0.1,1.5,2c-7.8,19.6-15.6,39.3-23.3,59
		c-4.1,10.4-8.2,20.8-12.2,31.2c-0.7,1.7-1.5,2.3-3.3,2.1C126.3,184.8,124.8,184.9,123.4,184.9z"/>
	<path id="XMLID_220_" class="st0" d="M204.7,137.9c-9.3-3.3-18.1-6.5-26.9-9.6c-1.6-0.6-2.3-1.3-2.1-3c0.2-2.3,0.1-4.5,0-6.8
		c-0.1-1.9,0.3-2.4,2.3-1.6c11.7,4.4,23.4,8.6,35,13c2.3,0.9,5.5,1,6.6,2.8c1.1,1.8,0.3,4.7,0.3,7.1c0,0.6-0.1,1.2,0,1.8
		c0.2,1.5-0.4,2-1.8,2.5c-13.4,4.9-26.8,9.8-40.1,14.8c-2.3,0.8-2.3,0.8-2.3-1.7c0-2.3,0.1-4.7,0-7c-0.1-1.4,0.3-2.1,1.8-2.6
		C186.4,144.5,195.4,141.2,204.7,137.9z"/>
	<path id="XMLID_219_" class="st0" d="M79,137.9c9.2,3.3,18,6.5,26.9,9.6c1.4,0.5,2.1,1,2,2.6c-0.2,2.6-0.1,5.1,0,7.7
		c0,1.2-0.1,1.8-1.6,1.2c-13.8-5.1-27.6-10.2-41.3-15.2c-0.9-0.3-1.3-0.8-1.2-1.8c0-0.1,0-0.3,0-0.5c0-3-0.9-6.6,0.4-8.9
		c1.3-2.3,5.2-2.4,8-3.5c11.2-4.2,22.4-8.2,33.5-12.4c2-0.7,2.3-0.2,2.2,1.6c-0.1,1.6,0,3.2,0,4.7c0,4.3,0,4.3-4.2,5.8
		c-7.6,2.7-15.3,5.4-22.9,8.2C80.3,137.4,79.8,137.6,79,137.9z"/>
</g>
</svg>
