<?xml version="1.0" encoding="utf-8"?>
<!-- Generator: Adobe Illustrator 19.0.0, SVG Export Plug-In . SVG Version: 6.00 Build 0)  -->
<svg version="1.1" id="Layer_1" xmlns="http://www.w3.org/2000/svg" xmlns:xlink="http://www.w3.org/1999/xlink" x="0px" y="0px"
	 viewBox="0 0 279.8 346.4" style="enable-background:new 0 0 279.8 346.4;" xml:space="preserve">
<style type="text/css">
	.st0{clip-path:url(#SVGID_2_);fill:#4C35B0;}
	.st1{clip-path:url(#SVGID_2_);fill:none;}
</style>
<g>
	<defs>
		<rect id="SVGID_1_" width="279.8" height="346.4"/>
	</defs>
	<clipPath id="SVGID_2_">
		<use xlink:href="#SVGID_1_"  style="overflow:visible;"/>
	</clipPath>
	<path class="st0" d="M222.2,222.9l-43.4-9.7v-13.7c16.2-11.7,26.9-30.5,27.7-51.8c14.4-15.2,22.3-34.9,22.3-55.9V67.7
		c0-14.1-10.5-25.7-24.1-27.5C193,16.2,168.8,1,142,1h-9.4c-18.1,0-35.9,6.1-50.1,17.2C62.5,33.8,51,57.3,51,82.7v9.1
		c0,21,8,40.7,22.3,55.9c0.7,21.3,11.4,40.1,27.7,51.8v13.7l-43.4,9.6C24.3,230.3,1,259.2,1,293.4v52.1h116.2h45.4h116.2v-52.1
		C278.8,259.2,255.5,230.3,222.2,222.9 M183.6,225.7l-8.5,38.1L149,245.1l25.7-21.4L183.6,225.7z M139.9,238.2l-27.8-23.1V206
		c8.5,3.9,17.9,6.1,27.8,6.1s19.3-2.2,27.8-6.1v9.1L139.9,238.2z M73.2,95.4v34.2c-7.2-11.2-11.1-24.2-11.1-37.9v-9.1
		c0-21.9,9.9-42.2,27.2-55.7c12.3-9.6,27.7-14.9,43.3-14.9h9.3c23.5,0,44.6,13.9,53.9,35.5l1.4,3.4h3.7c9.2,0,16.7,7.5,16.7,16.7
		v24.1c0,13.6-3.9,26.7-11.1,37.9V84.3h-7.8c-10.7,0-20.6-5.3-26.5-14.2l-1.6-2.5H159l-1.6,2.7c-9.3,15.5-26.3,25.1-44.3,25.1H73.2z
		 M84.3,145.4v-38.9h28.7c20.8,0,40.4-10.5,52-27.5c7.4,9.5,18.4,15.4,30.4,16.3v50.1c0,30.6-24.9,55.6-55.6,55.6
		S84.3,176.1,84.3,145.4 M105.1,223.7l25.7,21.4l-26.2,18.7l-8.5-38.1L105.1,223.7z M118.1,334.3H67.7v-22.2H56.6v22.2H12.1v-41
		c0-28.9,19.7-53.4,47.9-59.6l25.3-5.6l12.1,54.5l19.2-13.7l6.4,6.4L118.1,334.3z M150.5,334.3h-21.3l5.3-63.2l-8.8-8.8l14.1-10.1
		l14.1,10.1l-8.8,8.8L150.5,334.3z M267.7,334.3h-44.4v-22.2h-11.1v22.2h-50.4l-4.9-59l6.4-6.4l19.2,13.7l12.1-54.5l25.3,5.6
		c28.2,6.3,47.9,30.8,47.9,59.6V334.3z"/>
	<path class="st1" d="M222.2,222.9l-43.4-9.7v-13.7c16.2-11.7,26.9-30.5,27.7-51.8c14.4-15.2,22.3-34.9,22.3-55.9V67.7
		c0-14.1-10.5-25.7-24.1-27.5C193,16.2,168.8,1,142,1h-9.4c-18.1,0-35.9,6.1-50.1,17.2C62.5,33.8,51,57.3,51,82.7v9.1
		c0,21,8,40.7,22.3,55.9c0.7,21.3,11.4,40.1,27.7,51.8v13.7l-43.4,9.6C24.3,230.3,1,259.2,1,293.4v52.1h116.2h45.4h116.2v-52.1
		C278.8,259.2,255.5,230.3,222.2,222.9z M183.6,225.7l-8.5,38.1L149,245.1l25.7-21.4L183.6,225.7z M139.9,238.2l-27.8-23.1V206
		c8.5,3.9,17.9,6.1,27.8,6.1s19.3-2.2,27.8-6.1v9.1L139.9,238.2z M73.2,95.4v34.2c-7.2-11.2-11.1-24.2-11.1-37.9v-9.1
		c0-21.9,9.9-42.2,27.2-55.7c12.3-9.6,27.7-14.9,43.3-14.9h9.3c23.5,0,44.6,13.9,53.9,35.5l1.4,3.4h3.7c9.2,0,16.7,7.5,16.7,16.7
		v24.1c0,13.6-3.9,26.7-11.1,37.9V84.3h-7.8c-10.7,0-20.6-5.3-26.5-14.2l-1.6-2.5H159l-1.6,2.7c-9.3,15.5-26.3,25.1-44.3,25.1H73.2z
		 M84.3,145.4v-38.9h28.7c20.8,0,40.4-10.5,52-27.5c7.4,9.5,18.4,15.4,30.4,16.3v50.1c0,30.6-24.9,55.6-55.6,55.6
		S84.3,176.1,84.3,145.4z M105.1,223.7l25.7,21.4l-26.2,18.7l-8.5-38.1L105.1,223.7z M118.1,334.3H67.7v-22.2H56.6v22.2H12.1v-41
		c0-28.9,19.7-53.4,47.9-59.6l25.3-5.6l12.1,54.5l19.2-13.7l6.4,6.4L118.1,334.3z M150.5,334.3h-21.3l5.3-63.2l-8.8-8.8l14.1-10.1
		l14.1,10.1l-8.8,8.8L150.5,334.3z M267.7,334.3h-44.4v-22.2h-11.1v22.2h-50.4l-4.9-59l6.4-6.4l19.2,13.7l12.1-54.5l25.3,5.6
		c28.2,6.3,47.9,30.8,47.9,59.6V334.3z"/>
</g>
</svg>
